<svg width="350" height="350" viewBox="0 0 350 350" fill="none" xmlns="http://www.w3.org/2000/svg">
<path d="M194.908 323.442C182.84 317.73 178.031 304.15 176.33 291.501C176.043 289.401 175.441 287.217 176.127 285.201C176.813 283.185 178.927 281.54 180.957 282.107C182.644 282.576 183.631 284.27 184.758 285.607C186.257 287.411 188.238 288.751 190.47 289.471C191.926 289.94 193.655 290.087 194.852 289.135C196.49 287.826 196.252 285.292 195.916 283.206C195.23 279.337 194.558 275.469 193.9 271.6C193.426 269.536 193.286 267.409 193.487 265.3C193.795 263.2 194.922 261.1 196.812 260.232C198.702 259.364 201.355 260.071 202.118 262.045C202.343 262.894 202.511 263.757 202.622 264.628C202.825 265.489 203.392 266.378 204.253 266.483C205.114 266.588 205.863 265.853 206.388 265.132C208.18 262.661 209.188 259.7 210.098 256.767C211.008 253.834 211.862 250.845 213.43 248.213C214.998 245.581 217.392 243.313 220.353 242.613C223.314 241.913 226.814 243.243 228.053 246.05C229.292 248.857 228.095 252.14 226.653 254.842C224.463 258.843 221.707 262.507 218.47 265.72C217.824 266.234 217.359 266.94 217.14 267.736C216.923 269.206 218.477 270.368 219.94 270.592C221.578 270.844 223.244 270.396 224.903 270.312C226.562 270.228 228.445 270.648 229.327 272.083C230.538 274.071 229.131 276.612 227.626 278.383C224.603 281.911 220.997 284.895 216.965 287.203C215.523 288.022 213.99 288.792 212.933 290.08C211.876 291.368 211.449 293.37 212.443 294.714C213.437 296.058 215.446 296.205 217 295.631C218.554 295.057 219.849 293.944 221.284 293.111C223.972 291.543 227.71 291.109 229.971 293.279C230.676 294.038 231.196 294.95 231.488 295.943C231.781 296.937 231.839 297.985 231.658 299.005C231.286 301.037 230.507 302.972 229.369 304.696C225.744 310.928 220.531 316.087 214.263 319.648C207.998 323.078 201.936 324.751 194.915 323.449" fill="black"/>
<path d="M196.819 315C197.747 307.796 199.089 300.651 200.837 293.601L202.181 288.05C202.622 286.223 203.063 284.417 203.581 282.681C204.628 279.349 205.857 276.078 207.263 272.881C208.586 269.815 209.951 266.945 211.246 264.278C212.541 261.611 213.808 259.147 215.054 256.956C216.999 253.481 219.218 250.166 221.69 247.044C222.565 245.938 223.272 245.105 223.755 244.545C223.986 244.279 224.175 244.069 224.308 243.908C224.441 243.747 224.504 243.698 224.511 243.705C224.46 243.786 224.404 243.863 224.343 243.936L223.811 244.594C223.349 245.168 222.663 245.994 221.809 247.135C219.391 250.288 217.213 253.618 215.292 257.096C214.067 259.294 212.821 261.758 211.533 264.425C210.245 267.092 208.901 269.962 207.592 273.028C206.198 276.225 204.983 279.496 203.952 282.828C203.413 284.557 202.979 286.328 202.552 288.176L201.208 293.734C199.464 300.77 198.115 307.897 197.169 315.084" fill="#FF9900"/>
<path d="M203.7 282.653C203.548 282.381 203.428 282.092 203.343 281.792C203.133 281.239 202.86 280.392 202.538 279.405C201.894 277.375 201.096 274.54 200.228 271.418C199.36 268.296 198.527 265.475 197.848 263.466C197.512 262.458 197.232 261.639 197.036 261.086C196.918 260.799 196.827 260.501 196.763 260.197C196.932 260.458 197.07 260.738 197.176 261.03C197.421 261.569 197.736 262.374 198.107 263.368C198.856 265.37 199.731 268.177 200.606 271.313C201.481 274.449 202.216 277.193 202.804 279.321C203.077 280.287 203.301 281.099 203.504 281.75C203.596 282.045 203.661 282.347 203.7 282.653Z" fill="#FF9900"/>
<path d="M229.705 273.091C229.367 273.232 229.015 273.338 228.655 273.406C227.955 273.581 226.996 273.833 225.792 274.183C223.377 274.883 220.08 275.919 216.489 277.249C212.898 278.579 209.699 279.93 207.389 280.966C206.241 281.477 205.324 281.918 204.687 282.219C204.367 282.393 204.032 282.539 203.686 282.653C203.975 282.43 204.287 282.237 204.617 282.079C205.233 281.736 206.136 281.26 207.27 280.679C209.531 279.573 212.723 278.18 216.321 276.843C219.392 275.694 222.52 274.706 225.694 273.882C226.912 273.56 227.906 273.35 228.599 273.217C228.963 273.141 229.333 273.099 229.705 273.091Z" fill="#FF9900"/>
<path d="M197.064 314.461C196.974 314.369 196.894 314.268 196.826 314.16L196.203 313.271C195.664 312.487 194.915 311.346 194.012 309.918C192.192 307.062 189.812 303.037 187.243 298.557C184.674 294.077 182.343 290.038 180.572 287.154L178.472 283.731L177.912 282.8C177.838 282.697 177.779 282.584 177.737 282.464C177.737 282.464 177.828 282.555 177.975 282.758C178.122 282.961 178.353 283.29 178.598 283.654C179.137 284.431 179.886 285.572 180.796 287.007C182.609 289.863 184.996 293.881 187.565 298.361C190.134 302.841 192.465 306.88 194.229 309.771L196.329 313.187C196.553 313.558 196.742 313.887 196.889 314.118C196.964 314.223 197.023 314.339 197.064 314.461Z" fill="#FF9900"/>
<path d="M230.79 296.926C230.691 297.012 230.581 297.083 230.461 297.136L229.488 297.654L225.876 299.537C222.824 301.133 218.638 303.38 214.018 305.837C209.398 308.294 205.191 310.541 202.118 312.067C200.578 312.83 199.318 313.467 198.45 313.838L197.4 314.3C197.285 314.361 197.162 314.408 197.036 314.44C197.136 314.356 197.247 314.285 197.365 314.23L198.345 313.712L201.957 311.822C205.002 310.233 209.188 307.986 213.808 305.522C218.428 303.058 222.642 300.825 225.708 299.299C227.248 298.536 228.508 297.899 229.376 297.528L230.384 297.066C230.511 296.999 230.648 296.952 230.79 296.926Z" fill="#FF9900"/>
<path d="M107.38 173.187C107.38 173.187 99.0639 174.342 103.733 192.556C108.402 210.77 112.364 220.164 112.364 220.164C112.364 220.164 112.987 224.287 109.662 224.161C106.337 224.035 99.5539 221.361 97.2509 224.924C94.8709 228.648 96.9569 233.128 102.151 237.825C107.345 242.522 118.419 253.225 119.413 254.198C120.407 255.171 121.135 257.173 118.853 257.446C116.571 257.719 100.387 255.822 99.9529 263.557C99.5189 271.292 116.2 281.988 117.999 283.192C119.798 284.396 120.099 285.334 119.679 286.384C119.259 287.434 113.897 286.279 109.27 285.922C104.643 285.565 99.2109 285.978 99.3299 290.458C99.4489 294.938 108.213 306.278 133.763 314.706L145.866 317.835L154.805 309.029C172.795 289.016 174.762 274.827 172.641 270.879C170.52 266.931 165.641 269.276 161.763 271.88C157.885 274.484 153.825 278.18 152.957 277.48C152.089 276.78 151.865 275.814 152.831 273.875C153.797 271.936 162.96 254.366 158.732 247.87C154.504 241.374 141.4 251.048 139.3 251.937C137.2 252.826 136.822 250.712 137.2 249.396C137.578 248.08 141.848 233.296 144.046 226.611C146.244 219.926 145.824 215.012 141.904 212.968C138.124 211.001 133.581 216.713 130.753 218.477C127.925 220.241 126.427 216.377 126.427 216.377C126.427 216.377 125.195 206.262 120.197 188.132C115.199 170.002 107.226 173.25 107.226 173.25" fill="black"/>
<path d="M145.859 320.845C142.24 307.545 136.199 283.745 130.914 263.312C125.629 242.879 120.827 224.455 117.271 211.113C115.493 204.449 114.051 199.059 113.071 195.314C112.581 193.459 112.196 192.01 111.93 191.016L111.636 189.896C111.573 189.644 111.552 189.511 111.552 189.511C111.552 189.511 111.601 189.63 111.678 189.882C111.755 190.134 111.86 190.519 112 190.995C112.287 191.989 112.7 193.424 113.218 195.272C114.268 198.989 115.752 204.372 117.558 211.036C121.177 224.336 126.028 242.823 131.313 263.214C136.598 283.605 142.59 307.426 146.146 320.768" fill="#FF9900"/>
<path d="M106.589 229.082C106.869 229.197 107.136 229.34 107.387 229.509C107.884 229.803 108.598 230.251 109.487 230.811C111.23 231.938 113.603 233.555 116.186 235.382L122.78 240.086L124.789 241.486C125.042 241.644 125.277 241.829 125.489 242.039C125.207 241.925 124.937 241.782 124.684 241.612C124.187 241.318 123.473 240.87 122.584 240.303C120.855 239.162 118.503 237.503 115.92 235.683L109.291 231.028L107.275 229.628C107.028 229.471 106.798 229.288 106.589 229.082Z" fill="#FF9900"/>
<path d="M126.504 241.458C126.413 241.402 129.528 236.369 133.455 230.216C137.382 224.063 140.651 219.121 140.742 219.177C140.833 219.233 137.718 224.273 133.784 230.426C129.85 236.579 126.595 241.5 126.504 241.458Z" fill="#FF9900"/>
<path d="M133.21 273.154C133.404 272.912 133.627 272.696 133.875 272.51L135.758 270.858C137.347 269.458 139.538 267.526 141.876 265.3C144.214 263.074 146.272 260.995 147.742 259.476C148.442 258.776 149.016 258.153 149.485 257.677C149.697 257.442 149.931 257.229 150.185 257.04C150.03 257.308 149.842 257.555 149.625 257.775C149.247 258.23 148.68 258.874 147.966 259.658C146.566 261.233 144.522 263.354 142.17 265.58C139.818 267.806 137.606 269.724 135.968 271.068C135.142 271.768 134.47 272.272 133.994 272.629C133.753 272.832 133.49 273.008 133.21 273.154Z" fill="#FF9900"/>
<path d="M112.735 265.923C113.018 265.957 113.295 266.025 113.561 266.126L115.78 266.826C117.642 267.421 120.211 268.268 123.039 269.22C125.867 270.172 128.422 271.068 130.263 271.733L132.44 272.531C132.711 272.616 132.972 272.731 133.217 272.874C132.934 272.845 132.656 272.779 132.391 272.678L130.172 271.978C128.31 271.383 125.741 270.536 122.913 269.577C120.085 268.618 117.53 267.729 115.689 267.071L113.512 266.266C113.239 266.187 112.977 266.072 112.735 265.923Z" fill="#FF9900"/>
<path d="M115.101 294.658C115.461 294.712 115.815 294.801 116.158 294.924L119 295.792C121.394 296.541 124.691 297.598 128.331 298.795C131.971 299.992 135.254 301.084 137.627 301.903L140.427 302.883C140.775 302.995 141.115 303.133 141.442 303.296C141.079 303.243 140.723 303.154 140.378 303.03L137.536 302.162C135.142 301.413 131.845 300.356 128.205 299.159C124.565 297.962 121.282 296.863 118.916 296.051L116.116 295.064C115.766 294.96 115.426 294.824 115.101 294.658Z" fill="#FF9900"/>
<path d="M140.868 302.911C141.114 302.608 141.389 302.33 141.687 302.078L144.004 299.901C145.957 298.06 148.645 295.505 151.536 292.6C154.427 289.695 156.982 287 158.816 285.04L160.986 282.716C161.241 282.419 161.52 282.143 161.819 281.89C161.615 282.219 161.381 282.529 161.119 282.814C160.643 283.395 159.929 284.214 159.019 285.222C157.234 287.238 154.714 289.968 151.809 292.873C148.904 295.778 146.209 298.312 144.193 300.104C143.185 300.993 142.366 301.714 141.785 302.204C141.499 302.465 141.193 302.701 140.868 302.911Z" fill="#FF9900"/>
<path d="M71.2599 64.568L64.4279 62.468C64.4279 62.468 62.6359 68.208 56.6439 66.451C55.4839 66.1316 54.4518 65.4594 53.6906 64.5276C52.9293 63.5958 52.4765 62.4505 52.3949 61.25C52.3052 60.2377 52.4585 59.2186 52.842 58.2774C53.2255 57.3363 53.8282 56.5003 54.5999 55.839C56.3569 54.285 59.4369 53.34 63.7839 55.587L68.5929 40.187L61.8379 38.087L59.0379 47.11C59.0379 47.11 48.7899 46.599 45.5349 57.036C42.4199 67.025 50.6519 72.142 54.4879 73.339C57.3999 74.249 67.6269 76.657 71.2599 64.568Z" fill="black"/>
<path d="M62.7529 34.8817L69.6089 37.0211L71.6064 30.6195L64.7505 28.4801L62.7529 34.8817Z" fill="black"/>
<path d="M90.111 47.18L92.848 46.48C92.7644 46.1692 92.7442 45.8447 92.7886 45.5259C92.8329 45.2071 92.9409 44.9005 93.1061 44.6243C93.2713 44.348 93.4904 44.1078 93.7503 43.918C94.0102 43.7281 94.3056 43.5924 94.619 43.519C95.075 43.3813 95.5625 43.3889 96.014 43.5407C96.4655 43.6924 96.8587 43.9809 97.139 44.366C97.3769 44.6858 97.5358 45.0574 97.6028 45.4503C97.6697 45.8433 97.6427 46.2465 97.524 46.627C97.265 47.516 96.432 48.482 94.5 48.643L96.131 54.81L98.833 54.11L97.881 50.498C98.9056 49.88 99.6986 48.9421 100.138 47.8289C100.576 46.7157 100.637 45.489 100.31 44.338C99.26 40.334 95.41 40.355 93.891 40.754C92.715 41.027 88.788 42.364 90.111 47.18Z" fill="black"/>
<path d="M99.7863 55.0094L97.0295 55.7483L97.7193 58.3217L100.476 57.5828L99.7863 55.0094Z" fill="black"/>
<path d="M316.078 118.027L318.738 118.986C318.85 118.685 319.02 118.409 319.24 118.175C319.46 117.941 319.724 117.753 320.018 117.622C320.311 117.492 320.628 117.421 320.949 117.415C321.27 117.409 321.59 117.467 321.888 117.586C322.336 117.73 322.729 118.009 323.012 118.385C323.295 118.761 323.455 119.216 323.47 119.686C323.486 120.088 323.407 120.487 323.24 120.852C323.072 121.217 322.82 121.537 322.504 121.786C321.804 122.367 320.551 122.682 318.871 121.716L316.694 127.715L319.326 128.667L320.6 125.167C321.795 125.241 322.981 124.921 323.976 124.256C324.971 123.591 325.72 122.617 326.109 121.485C327.509 117.593 324.352 115.43 322.861 114.891C321.72 114.443 317.73 113.316 316.078 118.027Z" fill="black"/>
<path d="M318.932 129.883L316.26 128.915L315.357 131.41L318.029 132.378L318.932 129.883Z" fill="black"/>
<path d="M33.7819 148.491L39.3819 146.321C39.3819 146.321 37.5619 141.596 42.4409 139.615C43.3747 139.22 44.4081 139.124 45.3985 139.341C46.389 139.558 47.2877 140.077 47.9709 140.826C48.5522 141.449 48.9781 142.2 49.2141 143.019C49.4501 143.838 49.4894 144.7 49.3289 145.537C48.9789 147.483 47.4389 149.737 43.3859 150.514L48.2859 163.205L53.8859 161.063L51.0159 153.629C51.0159 153.629 58.0159 148.603 54.7329 139.993C51.5479 131.761 43.3999 132.699 40.2709 133.91C37.8559 134.841 29.8479 138.6 33.7819 148.491Z" fill="black"/>
<path d="M54.9468 163.646L49.2966 165.823L51.33 171.101L56.9802 168.924L54.9468 163.646Z" fill="black"/>
<path d="M318.269 169.848L314.279 171.381C314.279 171.381 315.567 174.734 312.109 176.134C311.447 176.411 310.716 176.477 310.014 176.324C309.313 176.172 308.676 175.807 308.189 175.28C307.777 174.838 307.476 174.306 307.309 173.726C307.142 173.145 307.115 172.534 307.23 171.941C307.482 170.541 308.574 168.973 311.43 168.441L308 159.418L304.052 160.937L306.082 166.208C304.645 167.307 303.609 168.848 303.134 170.593C302.658 172.339 302.769 174.192 303.45 175.868C305.697 181.699 311.451 181.041 313.691 180.18C315.385 179.515 321.055 176.855 318.269 169.848Z" fill="black"/>
<path d="M303.271 159.109L307.275 157.566L305.835 153.83L301.831 155.372L303.271 159.109Z" fill="black"/>
<path d="M64.8479 306.46C65.5479 303.884 63.8189 301.301 61.9289 299.46C60.0389 297.619 57.7779 295.925 56.7909 293.454C55.1949 289.45 57.3369 284.27 54.6209 280.931C53.0179 278.971 50.1479 278.313 48.7269 276.213C48.0699 275.056 47.6354 273.785 47.4459 272.468C45.9355 265.818 42.6643 259.696 37.9749 254.744C37.6588 260.668 38.9427 266.567 41.6919 271.824C42.7909 273.924 44.1489 275.968 44.4919 278.313C45.0869 282.114 42.9589 286.013 43.8969 289.765C44.9679 294.035 49.7629 296.898 49.9869 301.294C50.183 305.011 46.942 308.294 47.187 311.99C47.3833 313.573 47.957 315.085 48.86 316.4C51.7299 321.181 55.9579 324.471 62.3559 324.366L70.1959 324.639L64.8479 306.46Z" fill="#37DB7F"/>
<g opacity="0.3">
<path opacity="0.3" d="M64.8479 306.46C65.5479 303.884 63.8189 301.301 61.9289 299.46C60.0389 297.619 57.7779 295.925 56.7909 293.454C55.1949 289.45 57.3369 284.27 54.6209 280.931C53.0179 278.971 50.1479 278.313 48.7269 276.213C48.0699 275.056 47.6354 273.785 47.4459 272.468C45.9355 265.818 42.6643 259.696 37.9749 254.744C37.6588 260.668 38.9427 266.567 41.6919 271.824C42.7909 273.924 44.1489 275.968 44.4919 278.313C45.0869 282.114 42.9589 286.013 43.8969 289.765C44.9679 294.035 49.7629 296.898 49.9869 301.294C50.183 305.011 46.942 308.294 47.187 311.99C47.3833 313.573 47.957 315.085 48.86 316.4C51.7299 321.181 55.9579 324.471 62.3559 324.366L70.1959 324.639L64.8479 306.46Z" fill="black"/>
</g>
<path d="M71.778 324.8C72.496 324.911 73.2278 324.897 73.941 324.758C74.8069 324.626 75.6579 324.411 76.482 324.114C77.6201 323.718 78.6845 323.136 79.632 322.392C80.2021 321.934 80.6474 321.339 80.927 320.663C81.1612 319.905 81.2838 319.118 81.291 318.325C81.3068 317.477 81.3699 316.631 81.48 315.791C81.6275 314.896 81.9511 314.04 82.432 313.271C83.356 311.647 84.896 310.107 85.386 307.902C85.876 305.697 85.54 303.387 85.176 301.035C84.812 298.683 84.476 296.135 85.358 293.671C86.24 291.207 87.92 289.002 88.781 286.244C89.642 283.486 89.236 280.448 89.418 277.487C89.4717 275.983 89.8189 274.504 90.44 273.133C91.07 271.733 91.952 270.438 92.638 268.982C94.038 266.028 94.276 262.682 94.654 259.399C94.843 257.747 95.025 256.074 95.214 254.394C95.3331 252.695 95.6264 251.014 96.089 249.375C96.6201 247.723 97.2465 246.103 97.965 244.524C98.335 243.707 98.6393 242.862 98.875 241.997C99.0069 241.101 99.091 240.2 99.127 239.295C99.2105 237.484 99.1402 235.669 98.917 233.87C98.707 232.064 98.378 230.272 98.182 228.459C98.182 228.347 98.182 228.242 98.182 228.144L98.14 227.787L97.825 227.941C96.1699 228.79 94.7328 230.01 93.625 231.504C92.5385 232.967 91.6642 234.577 91.028 236.285C89.719 239.652 89.25 243.18 88.592 246.547C87.934 249.914 87.094 253.225 85.372 256.025C84.511 257.425 83.468 258.699 82.572 260.057C81.5991 261.382 80.9342 262.908 80.626 264.523C80.157 267.841 81.984 270.753 81.606 273.693C81.4354 275.133 80.958 276.52 80.206 277.76C79.506 279.013 78.659 280.175 77.861 281.337C77.0522 282.477 76.3493 283.688 75.761 284.956C75.2073 286.197 74.8802 287.527 74.795 288.883C74.606 291.529 74.977 294.035 74.795 296.401C74.5764 298.656 73.9177 300.846 72.856 302.848C71.911 304.773 70.854 306.516 69.972 308.21C69.531 309.05 69.118 309.876 68.782 310.709C68.464 311.509 68.2295 312.339 68.082 313.187C67.8477 314.667 67.8288 316.174 68.026 317.66C68.2317 319.732 69.007 321.707 70.266 323.365C70.4585 323.616 70.6716 323.85 70.903 324.065C71.0576 324.227 71.2289 324.373 71.414 324.499C71.708 324.716 71.862 324.814 71.862 324.814C71.3024 324.372 70.793 323.869 70.343 323.316C69.1412 321.652 68.4152 319.692 68.243 317.646C68.0647 316.179 68.0978 314.694 68.341 313.236C68.4884 312.409 68.723 311.599 69.041 310.821C69.3957 309.979 69.7953 309.156 70.238 308.357C71.127 306.677 72.191 304.941 73.157 303.002C74.2504 300.969 74.9308 298.74 75.159 296.443C75.369 294.028 75.005 291.508 75.201 288.932C75.2912 287.619 75.611 286.333 76.146 285.131C76.7379 283.889 77.4408 282.704 78.246 281.589C79.044 280.427 79.891 279.265 80.619 277.984C81.418 276.697 81.929 275.252 82.117 273.749C82.495 270.62 80.682 267.694 81.151 264.607C81.4578 263.063 82.1007 261.605 83.034 260.337C83.923 259 84.973 257.726 85.834 256.291C87.619 253.414 88.48 250.04 89.131 246.659C89.782 243.278 90.265 239.778 91.553 236.474C92.1725 234.814 93.0232 233.249 94.08 231.826C95.1456 230.392 96.5278 229.223 98.119 228.41L97.762 228.207C97.762 228.312 97.762 228.417 97.797 228.529C97.993 230.363 98.322 232.155 98.497 233.947C98.7181 235.718 98.786 237.505 98.7 239.288C98.6646 240.164 98.5852 241.038 98.462 241.906C98.2358 242.743 97.9408 243.56 97.58 244.349C96.8577 245.945 96.2267 247.581 95.69 249.249C95.2234 250.913 94.9279 252.621 94.808 254.345C94.626 256.032 94.437 257.705 94.255 259.357C93.877 262.654 93.632 265.944 92.295 268.793C91.595 270.193 90.755 271.53 90.104 272.958C89.4633 274.38 89.1066 275.914 89.054 277.473C88.879 280.497 89.271 283.458 88.452 286.132C87.633 288.806 85.932 291.032 85.071 293.559C84.21 296.086 84.525 298.76 84.903 301.105C85.281 303.45 85.659 305.76 85.155 307.839C84.651 309.918 83.209 311.472 82.271 313.138C81.7765 313.94 81.4458 314.832 81.298 315.763C81.1923 316.613 81.1362 317.468 81.13 318.325C81.1311 319.098 81.0179 319.867 80.794 320.607C80.5347 321.248 80.1183 321.814 79.583 322.252C78.6609 322.995 77.6227 323.582 76.51 323.988C75.6968 324.301 74.8552 324.536 73.997 324.688C73.4725 324.783 72.941 324.835 72.408 324.842C71.967 324.8 71.778 324.8 71.778 324.8Z" fill="#263238"/>
<path d="M96.5439 232.47C96.5065 232.545 96.4806 232.625 96.4669 232.708L96.299 233.408C96.145 234.031 95.956 234.962 95.662 236.124C95.368 237.286 94.6469 238.602 94.0379 240.219C93.3247 242.039 92.7032 243.894 92.1759 245.777C91.5739 247.877 91.0489 250.187 90.4889 252.679C90.013 255.333 89.1696 257.908 87.9829 260.33C87.3389 261.604 86.5829 262.892 86.0439 264.306C85.4787 265.75 85.1 267.26 84.9169 268.8C84.5188 271.989 83.9533 275.155 83.2229 278.285C81.6549 284.704 80.1569 290.822 78.7919 296.394C77.4269 301.966 76.1389 306.95 75.0749 311.164C74.0109 315.378 73.2059 318.738 72.6179 321.139C72.3449 322.287 72.1279 323.19 71.9739 323.855C71.9109 324.142 71.8549 324.373 71.8129 324.555C71.8052 324.636 71.8052 324.719 71.8129 324.8C71.8536 324.727 71.8842 324.65 71.9039 324.569C71.9529 324.38 72.0229 324.156 72.1069 323.869C72.2819 323.218 72.5269 322.315 72.8419 321.174C73.4719 318.794 74.3609 315.413 75.4599 311.248C76.5589 307.083 77.8399 302.043 79.2749 296.506C80.7099 290.969 82.1659 284.809 83.7479 278.383C84.4737 275.245 85.0252 272.069 85.3999 268.87C85.5788 267.367 85.9457 265.893 86.4919 264.481C87.0449 263.081 87.7519 261.828 88.3959 260.54C89.7959 257.985 90.3489 255.241 90.9019 252.77C91.4549 250.299 91.9449 247.961 92.5189 245.875C93.0929 243.789 93.695 241.927 94.297 240.317C94.899 238.707 95.5639 237.377 95.8509 236.173C96.1379 234.969 96.271 234.073 96.397 233.429C96.4436 233.14 96.4856 232.906 96.5229 232.729C96.5439 232.554 96.5579 232.47 96.5439 232.47Z" fill="#263238"/>
<path d="M73.1639 324.835C78.2809 321.79 79.7509 312.55 77.6159 306.992C75.4809 301.434 71.7429 296.352 71.1689 290.423C70.7209 285.866 72.2189 281.19 71.1689 276.738C69.7339 270.725 63.8679 266.07 63.9379 259.889C63.9729 256.424 65.9469 253.162 65.7859 249.697C65.5969 245.455 62.3349 242.081 60.3189 238.343C57.2249 232.61 57.0219 225.841 55.9649 219.443C54.9079 213.045 52.4649 206.143 46.7669 202.986C45.9269 208.439 44.4919 212.177 44.9399 219.562C45.1079 222.215 48.1879 227.262 48.6079 233.107C48.8599 236.607 49.0279 240.065 49.2449 243.537C49.4619 247.009 49.6719 250.369 50.8829 253.533C51.8139 255.962 53.3049 258.167 53.9979 260.673C55.2929 265.384 53.5849 270.473 54.6349 275.261C55.5239 279.307 58.3239 282.786 58.8979 286.888C59.6959 292.649 55.9719 298.641 57.8759 304.136C58.8279 306.866 61.0679 309.036 61.7049 311.871C62.2019 314.055 61.6629 316.372 62.1109 318.563C62.8109 322.105 69.5729 324.863 73.1779 324.632" fill="#37DB7F"/>
<path d="M48.167 208.369C48.1574 208.471 48.1574 208.575 48.167 208.677C48.167 208.908 48.237 209.202 48.279 209.573C48.398 210.364 48.531 211.519 48.797 213.017C49.063 214.515 49.861 216.209 50.477 218.253C51.093 220.297 51.779 222.635 52.353 225.253C52.927 227.871 53.431 230.79 53.942 233.919C54.453 237.048 55.013 240.457 56.567 243.719C57.267 245.35 58.093 246.988 58.667 248.738C59.2551 250.529 59.6172 252.387 59.745 254.268C60.0311 258.259 60.5335 262.231 61.25 266.168C62.818 274.246 64.309 281.939 65.667 288.946C67.025 295.953 68.39 302.204 69.482 307.496C70.574 312.788 71.47 317.016 72.093 319.998L72.793 323.393C72.877 323.757 72.94 324.044 72.996 324.268C73.0149 324.371 73.043 324.471 73.08 324.569C73.0924 324.467 73.0924 324.363 73.08 324.261C73.038 324.03 72.989 323.743 72.926 323.372C72.772 322.56 72.555 321.412 72.282 319.956C71.694 316.967 70.882 312.697 69.825 307.426C68.768 302.155 67.515 295.834 66.122 288.855C64.729 281.876 63.322 274.155 61.747 266.084C61.0301 262.147 60.5254 258.175 60.235 254.184C60.1017 252.264 59.7278 250.369 59.122 248.542C58.499 246.764 57.68 245.119 56.959 243.495C55.419 240.282 54.859 236.929 54.327 233.814C53.795 230.699 53.284 227.773 52.675 225.141C52.066 222.509 51.401 220.157 50.715 218.141C50.029 216.125 49.266 214.417 48.958 212.954C48.65 211.491 48.503 210.315 48.356 209.538C48.286 209.174 48.23 208.88 48.188 208.649C48.1865 208.555 48.1795 208.462 48.167 208.369Z" fill="#263238"/>
<path d="M295.029 62.139H292.229C292.231 62.4566 292.169 62.7713 292.047 63.0645C291.925 63.3578 291.746 63.6236 291.519 63.8462C291.293 64.0688 291.024 64.2436 290.729 64.3604C290.433 64.4772 290.118 64.5335 289.8 64.526C289.331 64.5428 288.869 64.4129 288.477 64.1544C288.086 63.8959 287.785 63.5217 287.616 63.084C287.469 62.7195 287.41 62.3252 287.444 61.9335C287.478 61.5417 287.604 61.1636 287.812 60.83C288.288 60.046 289.324 59.339 291.2 59.668V53.368H288.449V57.05C287.32 57.3823 286.332 58.0759 285.635 59.0242C284.938 59.9726 284.572 61.1234 284.592 62.3C284.592 66.374 288.246 67.319 289.814 67.319C291.011 67.347 295.085 67.06 295.029 62.139Z" fill="#37DB7F"/>
<path d="M288.428 52.094H291.221V49.483H288.428V52.094Z" fill="#37DB7F"/>
<path d="M310.296 58.415C310.305 58.2962 310.305 58.1768 310.296 58.058C310.296 57.806 310.296 57.463 310.296 57.022C310.296 56.798 310.296 56.539 310.261 56.259C310.226 55.979 310.184 55.671 310.135 55.349C310.086 55.027 310.037 54.649 309.981 54.278L309.687 53.088C309.167 51.0386 308.316 49.088 307.167 47.313C305.499 44.6843 303.25 42.4732 300.594 40.8495C297.937 39.2259 294.944 38.2329 291.844 37.947C290.913 37.8648 289.978 37.8461 289.044 37.891C288.575 37.891 288.092 37.891 287.644 37.982L286.202 38.199C284.224 38.5667 282.309 39.2199 280.518 40.138C278.649 41.1273 276.93 42.379 275.415 43.855C273.864 45.4271 272.567 47.2314 271.572 49.203C270.501 51.2356 269.8 53.4422 269.5 55.72C269.413 56.2971 269.364 56.8794 269.353 57.463C269.306 58.0474 269.295 58.6341 269.318 59.22C269.47 62.9751 270.644 66.6175 272.713 69.755V69.538C271.74 71.967 270.781 74.354 269.843 76.678L269.675 77.105L270.116 76.979L277.746 74.879L277.564 74.837C280.134 76.7824 283.127 78.0921 286.3 78.659C287.772 78.9333 289.272 79.025 290.766 78.932C291.487 78.9212 292.205 78.8534 292.915 78.729L293.958 78.568C294.301 78.505 294.658 78.4 294.966 78.323C299.668 77.1315 303.792 74.3051 306.6 70.35C307.647 68.8929 308.488 67.2982 309.099 65.611C309.232 65.24 309.358 64.911 309.477 64.547C309.596 64.183 309.659 63.847 309.736 63.532C309.813 63.217 309.897 62.895 309.967 62.601C310.037 62.307 310.058 62.02 310.1 61.747C310.163 61.208 310.261 60.732 310.282 60.347C310.303 59.962 310.282 59.591 310.282 59.297C310.282 59.003 310.282 58.821 310.282 58.66C310.282 58.499 310.282 58.443 310.282 58.443C310.271 58.5149 310.271 58.5881 310.282 58.66C310.282 58.821 310.282 59.031 310.233 59.297C310.184 59.563 310.191 59.934 310.163 60.34C310.135 60.746 310.03 61.222 309.946 61.74C309.278 65.6142 307.5 69.2112 304.827 72.0941C302.154 74.977 298.702 77.0217 294.889 77.98C294.56 78.057 294.231 78.155 293.895 78.218L292.866 78.372C292.172 78.4879 291.47 78.5511 290.766 78.561C289.299 78.6383 287.828 78.542 286.384 78.274C283.285 77.7038 280.363 76.4165 277.851 74.515L277.767 74.445H277.662L270.025 76.545L270.291 76.846L273.168 69.713L273.21 69.601L273.147 69.496C271.769 67.4105 270.791 65.0866 270.263 62.643C270.021 61.5093 269.876 60.3572 269.829 59.199C269.806 58.6271 269.817 58.0544 269.864 57.484C269.868 56.9143 269.915 56.3457 270.004 55.783C270.273 53.5585 270.934 51.3994 271.957 49.406C272.93 47.4792 274.193 45.7133 275.702 44.17C277.185 42.7209 278.868 41.4927 280.7 40.523C282.451 39.6123 284.326 38.9637 286.265 38.598L287.665 38.381C288.134 38.311 288.603 38.318 289.065 38.283C289.978 38.2396 290.892 38.2559 291.802 38.332C294.851 38.5989 297.8 39.5572 300.423 41.1339C303.047 42.7107 305.276 44.8646 306.943 47.432C308.098 49.176 308.963 51.0955 309.505 53.116L309.82 54.292C309.883 54.663 309.939 54.992 309.995 55.342C310.051 55.692 310.093 55.972 310.142 56.252C310.191 56.532 310.177 56.784 310.198 57.008C310.198 57.442 310.254 57.785 310.275 58.037C310.262 58.1633 310.269 58.2909 310.296 58.415Z" fill="#263238"/>
<path d="M101.549 140.966H141.974C141.974 140.966 141.974 107.023 177.247 106.421C195.566 106.099 205.065 118.104 208.929 127.295C213.409 137.97 212.051 150.136 206.045 160.041C199.192 171.346 184.422 182.707 157.178 177.905L156.919 267.974H196.896V214.578C196.896 214.578 252.959 200.088 252.959 138.278C252.959 79.163 205.156 66.395 179.459 65.569C165.165 65.114 159.985 64.498 142.303 67.011C119.77 70.231 101.073 96.397 101.549 140.966Z" fill="#37DB7F"/>
<path d="M197.379 286.748H156.807V324.639H197.379V286.748Z" fill="#37DB7F"/>
<path opacity="0.1" d="M197.379 286.748H156.807V324.639H197.379V286.748Z" fill="black"/>
<path opacity="0.1" d="M101.549 140.966H141.974C141.974 140.966 141.974 107.023 177.247 106.421C195.566 106.099 205.065 118.104 208.929 127.295C213.409 137.97 212.051 150.136 206.045 160.041C199.192 171.346 184.422 182.707 157.178 177.905L156.919 267.974H196.896V214.578C196.896 214.578 252.959 200.088 252.959 138.278C252.959 79.163 205.156 66.395 179.459 65.569C165.165 65.114 159.985 64.498 142.303 67.011C119.77 70.231 101.073 96.397 101.549 140.966Z" fill="black"/>
<path d="M84.798 140.966H125.23C125.23 140.966 125.23 107.023 160.503 106.421C178.822 106.099 188.321 118.104 192.178 127.295C196.665 137.97 195.307 150.136 189.301 160.041C182.448 171.346 167.419 181.622 140.175 176.841V267.974H180.152V214.578C180.152 214.578 236.215 200.088 236.215 138.278C236.215 79.163 183.197 65.436 160.51 65.436C143.157 65.457 84.035 69.65 84.798 140.966Z" fill="#37DB7F"/>
<path opacity="0.3" d="M84.798 140.966H125.23C125.23 140.966 125.23 107.023 160.503 106.421C178.822 106.099 188.321 118.104 192.178 127.295C196.665 137.97 195.307 150.136 189.301 160.041C182.448 171.346 167.419 181.622 140.175 176.841V267.974H180.152V214.578C180.152 214.578 236.215 200.088 236.215 138.278C236.215 79.163 183.197 65.436 160.51 65.436C143.157 65.457 84.035 69.65 84.798 140.966Z" fill="black"/>
<path d="M180.635 286.748H140.063V324.639H180.635V286.748Z" fill="#37DB7F"/>
<path opacity="0.3" d="M180.635 286.748H140.063V324.639H180.635V286.748Z" fill="black"/>
<path d="M165.067 106.603C164.867 106.62 164.665 106.62 164.465 106.603C164.066 106.603 163.492 106.47 162.743 106.463C160.625 106.359 158.503 106.448 156.401 106.729C153.285 107.123 150.218 107.844 147.252 108.878C145.503 109.489 143.801 110.224 142.156 111.076C140.378 111.964 138.705 113.047 137.165 114.303C135.636 115.571 134.266 117.019 133.084 118.615C131.964 120.091 130.942 121.639 130.025 123.249C128.494 125.991 127.28 128.899 126.406 131.915C125.813 133.951 125.406 136.036 125.188 138.145C125.104 138.887 125.083 139.475 125.062 139.867C125.062 140.069 125.044 140.271 125.006 140.469C124.988 140.269 124.988 140.067 125.006 139.867C125.006 139.468 125.006 138.88 125.069 138.131C125.23 135.999 125.603 133.889 126.182 131.831C127.024 128.78 128.222 125.838 129.752 123.067C130.671 121.439 131.697 119.875 132.825 118.384C134.017 116.762 135.404 115.292 136.955 114.009C138.513 112.735 140.208 111.639 142.009 110.74C143.664 109.872 145.378 109.123 147.14 108.5C150.133 107.47 153.229 106.766 156.373 106.4C158.489 106.14 160.625 106.091 162.75 106.253C163.328 106.29 163.902 106.36 164.472 106.463C164.673 106.496 164.872 106.542 165.067 106.603Z" fill="#263238"/>
<path d="M225.981 99.4C225.981 99.4 225.932 99.351 225.848 99.246C225.764 99.141 225.638 98.959 225.498 98.756L224.161 96.866C223.874 96.46 223.566 95.991 223.202 95.508L221.942 93.975L220.5 92.204C219.975 91.588 219.359 90.993 218.743 90.342C218.127 89.691 217.497 88.998 216.783 88.333C216.069 87.668 215.306 86.989 214.522 86.289C214.13 85.939 213.745 85.589 213.325 85.218L212.023 84.189C211.134 83.489 210.252 82.789 209.293 82.089C205.113 79.0983 200.679 76.4797 196.042 74.263L192.353 72.597L188.692 71.197C187.495 70.7 186.277 70.35 185.101 69.958C183.925 69.566 182.777 69.167 181.601 68.894L178.255 68.019C177.17 67.732 176.092 67.557 175.063 67.319C174.034 67.081 173.04 66.871 172.067 66.752L169.267 66.346C167.496 66.045 165.872 65.982 164.458 65.842C163.758 65.786 163.058 65.709 162.477 65.681L160.811 65.639L158.501 65.562H157.899H157.696C157.763 65.5515 157.832 65.5515 157.899 65.562H158.501H160.811H162.484C163.093 65.562 163.758 65.646 164.472 65.695C165.872 65.814 167.524 65.863 169.295 66.15L172.095 66.528C173.068 66.64 174.062 66.892 175.098 67.081C176.134 67.27 177.198 67.466 178.311 67.781L181.671 68.649C182.833 68.915 183.981 69.349 185.171 69.706C186.361 70.063 187.572 70.406 188.769 70.938L192.451 72.338L196.161 74.011C200.822 76.2327 205.274 78.8707 209.461 81.893C210.427 82.593 211.309 83.342 212.198 84.035L213.5 84.98C213.92 85.33 214.305 85.68 214.697 86.058L216.951 88.158C217.651 88.858 218.281 89.558 218.904 90.195C219.527 90.832 220.122 91.455 220.647 92.078L222.047 93.863L223.293 95.417C223.65 95.907 223.951 96.383 224.231 96.817C224.777 97.636 225.204 98.28 225.505 98.742L225.834 99.253C225.889 99.2954 225.938 99.3448 225.981 99.4Z" fill="#263238"/>
<path d="M221.767 186.2C221.684 186.352 221.583 186.493 221.466 186.62L220.5 187.761C220.101 188.272 219.597 188.881 218.974 189.56C218.351 190.239 217.686 191.037 216.874 191.863C216.062 192.689 215.194 193.613 214.207 194.544C213.22 195.475 212.149 196.455 211.008 197.477C206.003 201.845 200.517 205.628 194.656 208.754C193.298 209.454 192.017 210.154 190.778 210.693C189.539 211.232 188.384 211.785 187.32 212.233C186.256 212.681 185.276 213.052 184.422 213.381C183.568 213.71 182.819 213.976 182.203 214.172L180.803 214.627C180.64 214.692 180.471 214.738 180.299 214.767C180.45 214.681 180.609 214.61 180.775 214.557L182.175 214.039C182.784 213.822 183.519 213.542 184.366 213.192C185.213 212.842 186.193 212.492 187.243 211.995C188.293 211.498 189.455 211.029 190.666 210.42C191.877 209.811 193.172 209.167 194.523 208.46C197.19 206.99 200.067 205.268 202.972 203.28C205.877 201.292 208.488 199.199 210.812 197.225C211.953 196.217 213.045 195.272 214.018 194.32C214.991 193.368 215.901 192.507 216.706 191.681C217.511 190.855 218.218 190.092 218.848 189.42C219.478 188.748 219.996 188.16 220.416 187.67L221.396 186.557C221.51 186.428 221.634 186.309 221.767 186.2Z" fill="#263238"/>
<path d="M179.445 264.796C179.34 264.796 179.256 253.554 179.256 239.687C179.256 225.82 179.34 214.571 179.445 214.571C179.55 214.571 179.627 225.813 179.627 239.687C179.627 253.561 179.543 264.796 179.445 264.796Z" fill="#263238"/>
<path d="M180.985 322.07C180.88 322.07 180.803 314.181 180.803 304.451C180.803 294.721 180.88 286.825 180.985 286.825C181.09 286.825 181.167 294.714 181.167 304.451C181.167 314.188 181.083 322.07 180.985 322.07Z" fill="#263238"/>
<path d="M220.78 135.597C220.08 136.997 222.691 138.145 224.196 138.6C225.731 138.977 227.32 139.086 228.893 138.922C230.993 138.81 233.142 138.614 234.955 137.578C236.543 136.594 237.812 135.172 238.609 133.483C239.395 131.799 240.016 130.043 240.464 128.24C240.464 128.24 223.923 129.318 220.78 135.597Z" fill="#37DB7F"/>
<g opacity="0.4">
<path opacity="0.4" d="M220.78 135.597C220.08 136.997 222.691 138.145 224.196 138.6C225.731 138.977 227.32 139.086 228.893 138.922C230.993 138.81 233.142 138.614 234.955 137.578C236.543 136.594 237.812 135.172 238.609 133.483C239.395 131.799 240.016 130.043 240.464 128.24C240.464 128.24 223.923 129.318 220.78 135.597Z" fill="black"/>
</g>
<path d="M267.498 131.117C270.225 133.051 273.493 134.075 276.836 134.043C278.439 134.132 280.019 133.635 281.281 132.643C281.82 132.146 282.226 131.516 282.779 131.04C283.157 130.718 283.598 130.473 283.955 130.13C284.143 129.968 284.289 129.761 284.378 129.529C284.467 129.297 284.497 129.047 284.466 128.8C284.328 128.192 283.987 127.649 283.5 127.26C281.603 126.182 279.335 126.224 277.151 126.273C274.965 126.368 272.806 126.79 270.746 127.526C269.052 128.1 267.281 128.926 266.42 130.466" fill="#37DB7F"/>
<g opacity="0.4">
<path opacity="0.4" d="M284.466 128.8C284.219 128.21 283.783 127.717 283.227 127.4C281.33 126.322 279.335 126.224 277.151 126.273C274.965 126.368 272.806 126.79 270.746 127.526C269.052 128.1 267.281 128.926 266.42 130.466L267.498 131.117C270.225 133.051 273.493 134.075 276.836 134.043C278.439 134.132 280.019 133.635 281.281 132.643C281.82 132.146 282.226 131.516 282.779 131.04C283.157 130.718 283.598 130.473 283.955 130.13C284.143 129.968 284.289 129.761 284.378 129.529C284.467 129.297 284.497 129.047 284.466 128.8Z" fill="black"/>
</g>
<path d="M235.2 156.24L270.095 156.702C270.166 156.702 270.236 156.685 270.299 156.653C270.363 156.621 270.418 156.574 270.46 156.517C270.502 156.46 270.53 156.394 270.542 156.324C270.554 156.254 270.55 156.182 270.529 156.114L266.434 143.346C266.434 143.346 267.036 136.962 267.869 129.29C269.136 117.635 270.823 102.984 270.844 103.026C268.457 96.334 254.373 95.2 254.373 95.2L238.322 96.152L237.762 95.207L233.142 97.356C232.134 97.8248 231.165 98.3725 230.244 98.994C227.192 101.031 219.842 105.714 218.498 110.929C215.397 123.004 220.647 136.479 220.647 136.479L224.021 133.84C224.871 133.185 225.764 132.589 226.695 132.055L233.457 150.178C233.055 150.432 232.714 150.772 232.46 151.174C232.205 151.576 232.044 152.03 231.987 152.502C231.931 153.972 232.687 155.736 235.2 156.24Z" fill="#37DB7F"/>
<g opacity="0.3">
<path opacity="0.3" d="M250.173 134.876C251.279 128.926 250.698 122.808 250.103 116.788C248.171 121.688 248.241 127.288 246.19 132.146C245.939 132.659 245.755 133.203 245.644 133.763C245.591 134.044 245.605 134.335 245.685 134.61C245.765 134.885 245.909 135.137 246.106 135.345C246.666 135.856 247.506 135.576 248.248 135.492C248.912 135.365 249.559 135.158 250.173 134.876Z" fill="black"/>
</g>
<g opacity="0.4">
<path opacity="0.4" d="M237.3 148.652C240.1 149.625 243.082 147.812 246.043 147.49C248.003 147.28 249.963 147.728 251.909 148.043C255.844 148.68 259.847 148.778 263.809 148.337C264.417 148.304 265.012 148.149 265.559 147.882C265.842 147.689 266.073 147.43 266.233 147.128C266.393 146.825 266.476 146.488 266.476 146.146C259.882 145.446 253.295 145.068 246.701 144.389C245.06 144.109 243.379 144.164 241.759 144.55C239.771 145.166 238.259 146.727 236.859 148.274" fill="black"/>
</g>
<path d="M283.458 126.504C280.609 120.085 270.564 102.333 270.564 102.333L262.787 112.084L264.6 131.229C264.6 131.229 268.709 126.644 280.196 126.553C281.031 126.586 281.848 126.806 282.586 127.196C283.325 127.586 283.967 128.137 284.466 128.807L283.458 126.504Z" fill="#37DB7F"/>
<path d="M236.761 123.109C236.206 121.748 235.766 120.343 235.445 118.909C235.01 117.512 234.692 116.081 234.493 114.632C235.04 115.995 235.477 117.4 235.802 118.832C236.237 120.229 236.558 121.66 236.761 123.109Z" fill="#263238"/>
<path d="M262.199 110.789C262.452 110.968 262.687 111.172 262.899 111.398C263.517 111.995 264.097 112.631 264.635 113.302C266.445 115.515 267.717 118.117 268.352 120.904C268.681 122.445 268.755 124.029 268.569 125.594C268.394 127.029 268.121 128.289 267.939 129.353C267.757 130.417 267.645 131.285 267.589 131.887C267.588 132.2 267.555 132.512 267.491 132.818C267.442 132.506 267.427 132.189 267.449 131.873C267.48 131.015 267.559 130.16 267.687 129.311C267.834 128.24 268.079 126.966 268.24 125.559C268.402 124.03 268.319 122.484 267.995 120.981C267.368 118.246 266.152 115.68 264.432 113.463C263.151 111.741 262.143 110.845 262.199 110.789Z" fill="#263238"/>
<path d="M255.073 154.7C254.83 154.808 254.573 154.884 254.31 154.924C254.011 155.003 253.707 155.061 253.4 155.099C253.043 155.148 252.637 155.225 252.182 155.246C251.116 155.344 250.042 155.344 248.976 155.246C247.671 155.112 246.382 154.854 245.126 154.476C243.876 154.074 242.667 153.556 241.514 152.929C240.579 152.407 239.691 151.805 238.861 151.13C238.497 150.85 238.203 150.556 237.937 150.311C237.708 150.104 237.49 149.885 237.286 149.653C237.091 149.473 236.924 149.265 236.789 149.037C236.838 148.988 237.587 149.828 239.022 150.927C239.86 151.565 240.747 152.136 241.675 152.635C242.815 153.234 244.005 153.733 245.231 154.126C246.465 154.498 247.73 154.76 249.011 154.91C250.057 155.023 251.11 155.055 252.161 155.008C253.96 154.91 255.059 154.644 255.073 154.7Z" fill="#263238"/>
<path d="M265.846 150.724C266.011 151.041 266.104 151.389 266.119 151.746C266.231 152.599 266.166 153.466 265.93 154.294C265.69 155.14 265.202 155.896 264.53 156.464C264.019 156.891 263.627 157.024 263.606 156.989C263.585 156.954 263.914 156.723 264.355 156.289C264.921 155.699 265.332 154.977 265.552 154.189C266.112 152.341 265.713 150.731 265.846 150.724Z" fill="#263238"/>
<path d="M263.949 153.188C264.101 153.908 264.04 154.657 263.774 155.343C263.508 156.029 263.048 156.623 262.451 157.052C262.374 156.975 263.025 156.282 263.431 155.211C263.837 154.14 263.844 153.195 263.949 153.188Z" fill="#263238"/>
<path d="M257.705 130.158C257.334 130.785 256.918 131.384 256.459 131.95C256.097 132.582 255.688 133.186 255.234 133.756C255.368 133.017 255.686 132.324 256.158 131.74C256.531 131.09 257.063 130.546 257.705 130.158Z" fill="#263238"/>
<path d="M233.751 113.204C233.218 112.891 232.701 112.55 232.204 112.182C229.714 110.546 226.889 109.491 223.937 109.095C223.319 109.05 222.704 108.968 222.096 108.85C222.716 108.764 223.345 108.764 223.965 108.85C226.998 109.109 229.902 110.191 232.365 111.979C232.882 112.321 233.348 112.733 233.751 113.204Z" fill="#263238"/>
<path d="M270.564 102.102C269.311 103.111 268.141 104.218 267.064 105.413C266.073 106.688 265.185 108.041 264.411 109.459C264.494 108.982 264.657 108.523 264.894 108.101C265.401 107.051 266.036 106.069 266.784 105.175C267.535 104.283 268.395 103.491 269.346 102.816C269.708 102.51 270.12 102.268 270.564 102.102Z" fill="#263238"/>
<path d="M256.158 96.334C256.222 96.435 256.273 96.543 256.312 96.656C256.449 96.973 256.559 97.3008 256.641 97.636C256.936 98.8834 256.936 100.183 256.641 101.43C256.205 103.292 255.208 104.976 253.785 106.253C251.988 107.775 249.699 108.591 247.345 108.549C244.989 108.557 242.693 107.803 240.8 106.4C239.292 105.248 238.068 103.766 237.223 102.067C236.654 100.929 236.253 99.715 236.033 98.462C235.969 98.1244 235.927 97.783 235.907 97.44C235.887 97.3195 235.887 97.1965 235.907 97.076C235.907 97.076 235.984 97.566 236.18 98.434C236.452 99.6516 236.883 100.828 237.461 101.934C238.315 103.582 239.528 105.017 241.01 106.134C242.834 107.485 245.04 108.22 247.31 108.234C249.579 108.276 251.788 107.501 253.533 106.05C254.908 104.82 255.883 103.206 256.333 101.416C256.644 100.208 256.687 98.9464 256.459 97.72C256.326 96.796 256.116 96.348 256.158 96.334Z" fill="#263238"/>
<g opacity="0.3">
<path opacity="0.3" d="M258.608 131.397C258.608 131.047 258.552 130.634 258.244 130.459C258.146 130.41 258.038 130.384 257.929 130.384C257.82 130.384 257.712 130.41 257.614 130.459C257.418 130.565 257.245 130.707 257.103 130.879C256.28 131.735 255.644 132.753 255.234 133.868L258.664 133.567C258.643 132.86 258.629 132.118 258.608 131.397Z" fill="black"/>
</g>
<g opacity="0.3">
<path opacity="0.3" d="M269.997 124.18C269.652 122.217 268.792 120.381 267.505 118.86C268.989 123.704 268.492 126.441 267.659 129.759L267.841 129.297C268.8 127.358 270.256 126.14 269.997 124.18Z" fill="black"/>
</g>
<path d="M263.144 286.902L261.051 318.297L247.401 318.136L245.252 285.495L263.144 286.902Z" fill="#FFBE9D"/>
<path d="M261.436 314.167V315.077C261.436 315.077 276.836 321.265 276.983 324.177L246.4 324.009L246.876 313.838C251.433 315.973 256.2 316.239 261.436 314.167Z" fill="#37DB7F"/>
<path d="M249.977 317.1C249.687 317.188 249.438 317.378 249.279 317.636C249.119 317.894 249.058 318.201 249.109 318.5C249.184 318.799 249.371 319.057 249.633 319.22C249.894 319.383 250.208 319.439 250.509 319.375C250.82 319.282 251.086 319.076 251.254 318.798C251.423 318.52 251.481 318.189 251.419 317.87C251.308 317.568 251.084 317.32 250.794 317.181C250.504 317.041 250.171 317.019 249.865 317.121" fill="white"/>
<path d="M246.4 324.009L246.512 321.566L275.8 322.63C275.8 322.63 277.158 323.232 276.997 324.184L246.4 324.009Z" fill="#263238"/>
<path d="M261.548 315.161C261.548 315.308 260.792 315.371 260.057 315.861C259.322 316.351 258.923 316.96 258.79 316.904C258.657 316.848 258.881 315.98 259.784 315.42C260.687 314.86 261.583 315 261.548 315.161Z" fill="#263238"/>
<path d="M264.747 316.505C264.782 316.652 264.131 316.897 263.62 317.527C263.109 318.157 262.962 318.822 262.808 318.815C262.654 318.808 262.57 317.961 263.221 317.198C263.872 316.435 264.74 316.4 264.747 316.505Z" fill="#263238"/>
<path d="M266.546 320.355C266.406 320.355 266.203 319.655 266.595 318.822C266.987 317.989 267.68 317.688 267.743 317.807C267.806 317.926 267.372 318.367 267.043 319.046C266.714 319.725 266.7 320.341 266.546 320.355Z" fill="#263238"/>
<path d="M260.652 57.295C261.443 55.335 260.484 52.962 258.783 51.695C256.99 50.5149 254.804 50.0898 252.7 50.512C250.624 50.9473 248.614 51.6533 246.722 52.612C245.842 51.7247 244.733 51.0993 243.518 50.8058C242.304 50.5124 241.031 50.5623 239.843 50.95C238.656 51.3378 237.599 52.0481 236.791 53.0016C235.984 53.9552 235.457 55.1145 235.27 56.35C234.513 56.1595 233.719 56.1787 232.972 56.4055C232.225 56.6323 231.554 57.0581 231.031 57.6373C230.508 58.2165 230.153 58.9272 230.003 59.6932C229.853 60.4591 229.915 61.2514 230.181 61.985L239.645 65.31L249.977 83.51C251.504 84.8127 253.453 85.5154 255.46 85.487C257.467 85.4586 259.395 84.7009 260.884 83.3555C262.374 82.01 263.323 80.1686 263.554 78.1748C263.786 76.181 263.284 74.1711 262.143 72.52C262.722 72.0052 263.214 71.4 263.599 70.728C264.425 70.2398 265.145 69.5923 265.718 68.8232C266.291 68.0541 266.706 67.1787 266.938 66.248C267.855 62.195 264.719 57.771 260.652 57.295Z" fill="#263238"/>
<path d="M254.387 95.2C253.799 92.239 253.393 90.209 253.4 90.23C253.407 90.251 259 88.06 258.594 80.269C258.398 76.391 256.921 70.28 255.549 65.324C254.317 60.858 250.152 55.937 245.749 57.358L232.4 63.868C231.063 64.302 230.832 65.562 231.147 66.927V67.627L236.334 89.089L238.525 98.679C238.992 100.648 240.179 102.371 241.853 103.509C243.527 104.646 245.566 105.116 247.569 104.825C248.663 104.671 249.714 104.295 250.657 103.721C251.6 103.146 252.416 102.385 253.055 101.484C253.693 100.582 254.141 99.5599 254.37 98.4794C254.599 97.3988 254.605 96.2829 254.387 95.2Z" fill="#FFBE9D"/>
<path d="M255.5 70.504C255.556 70.7524 255.515 71.0128 255.385 71.2317C255.254 71.4505 255.045 71.611 254.8 71.68C254.676 71.7145 254.547 71.7237 254.42 71.7069C254.292 71.6901 254.17 71.6478 254.059 71.5824C253.949 71.517 253.853 71.4299 253.777 71.3264C253.701 71.2229 253.646 71.105 253.617 70.98C253.561 70.7325 253.603 70.473 253.733 70.2553C253.863 70.0377 254.072 69.8785 254.317 69.811C254.44 69.7753 254.569 69.7651 254.697 69.781C254.824 69.7969 254.947 69.8385 255.057 69.9034C255.168 69.9682 255.264 70.0549 255.341 70.1581C255.417 70.2614 255.471 70.3791 255.5 70.504Z" fill="#263238"/>
<path d="M254.891 69.013C254.793 69.167 253.946 68.782 252.91 69.013C251.874 69.244 251.216 69.916 251.076 69.811C250.936 69.706 251.076 69.51 251.363 69.202C251.748 68.795 252.249 68.5164 252.798 68.404C253.34 68.2872 253.904 68.3486 254.408 68.579C254.8 68.74 254.933 68.95 254.891 69.013Z" fill="#263238"/>
<path d="M245.336 72.8C245.392 73.0475 245.35 73.307 245.22 73.5247C245.09 73.7424 244.881 73.9015 244.636 73.969C244.515 74.0042 244.388 74.0151 244.263 74.001C244.138 73.9869 244.017 73.9481 243.907 73.8869C243.797 73.8257 243.7 73.7433 243.622 73.6445C243.544 73.5456 243.487 73.4323 243.453 73.311C243.397 73.0626 243.438 72.8022 243.568 72.5834C243.699 72.3646 243.908 72.2041 244.153 72.135C244.274 72.1 244.401 72.0894 244.527 72.1039C244.652 72.1185 244.774 72.1578 244.884 72.2197C244.994 72.2816 245.091 72.3648 245.168 72.4644C245.246 72.564 245.303 72.6781 245.336 72.8Z" fill="#263238"/>
<path d="M244.825 71.484C244.734 71.638 243.88 71.246 242.844 71.484C241.808 71.722 241.15 72.38 241.01 72.282C240.87 72.184 241.01 71.981 241.297 71.666C241.684 71.2627 242.184 70.9868 242.732 70.875C243.273 70.76 243.836 70.8188 244.342 71.043C244.713 71.211 244.874 71.4 244.825 71.484Z" fill="#263238"/>
<path d="M250.096 78.064C250.609 77.7809 251.154 77.56 251.72 77.406C251.979 77.322 252.224 77.217 252.231 77.028C252.194 76.7496 252.075 76.4886 251.888 76.279L250.677 74.417C248.983 71.764 247.695 69.566 247.8 69.517C247.905 69.468 249.368 71.547 251.062 74.2L252.245 76.076C252.477 76.3631 252.603 76.7216 252.602 77.091C252.581 77.1917 252.538 77.2865 252.477 77.3688C252.415 77.4511 252.336 77.5187 252.245 77.567C252.108 77.6395 251.962 77.6936 251.811 77.728C251.257 77.9176 250.68 78.0306 250.096 78.064Z" fill="#263238"/>
<path d="M253.4 90.23C249.859 91.0302 246.166 90.8315 242.732 89.656C242.732 89.656 246.4 94.444 253.799 92.155L253.4 90.23Z" fill="#EB996E"/>
<path d="M245 70C244.93 70.301 243.859 70.294 242.641 70.595C241.423 70.896 240.457 71.351 240.261 71.113C240.177 71.001 240.317 70.707 240.688 70.413C241.181 69.9977 241.767 69.7072 242.396 69.566C243.02 69.418 243.669 69.418 244.293 69.566C244.79 69.657 245.049 69.86 245 70Z" fill="#263238"/>
<path d="M254.492 65.709C254.324 65.989 253.428 65.919 252.392 66.122C251.356 66.325 250.537 66.675 250.292 66.472C250.18 66.367 250.292 66.101 250.593 65.772C251.055 65.3833 251.614 65.1269 252.21 65.03C252.796 64.9119 253.404 64.9554 253.967 65.156C254.394 65.352 254.562 65.569 254.492 65.709Z" fill="#263238"/>
<path d="M235.697 58.856C235.852 59.6143 236.172 60.3292 236.634 60.9499C237.097 61.5706 237.69 62.0818 238.372 62.4473C239.054 62.8128 239.809 63.0236 240.582 63.0647C241.354 63.1057 242.127 62.9761 242.844 62.685C243.95 62.237 245.098 61.397 246.218 61.803C247.338 62.209 247.8 63.805 248.871 64.4C250.446 65.282 252.371 63.756 254.128 63.91C255.528 64.029 256.585 65.1 257.67 66.01C258.755 66.92 260.253 67.606 261.478 66.948C261.197 65.779 260.782 64.6467 260.239 63.574C259.692 62.4941 258.786 61.6379 257.677 61.152C257.061 60.907 256.396 60.823 255.808 60.522C254.541 59.878 253.974 58.422 253.057 57.323C252.455 56.6304 251.696 56.0914 250.844 55.7505C249.992 55.4097 249.071 55.2768 248.157 55.363C246.645 55.517 245.21 56.28 243.684 56.217C242.557 56.168 241.479 55.664 240.352 55.685C238.161 55.685 236.516 57.645 235.298 59.472" fill="#263238"/>
<path d="M243.075 60.459C242.067 60.382 240.009 60.172 239.33 59.458C238.64 58.6865 237.76 58.1097 236.777 57.7854C235.794 57.461 234.744 57.4006 233.73 57.61C232.724 57.9098 231.841 58.5246 231.211 59.3639C230.581 60.2032 230.237 61.2226 230.23 62.272C229.005 62.5709 227.884 63.195 226.984 64.0784C226.085 64.9618 225.441 66.0718 225.12 67.291C224.794 68.5673 224.783 69.9037 225.088 71.1852C225.393 72.4668 226.004 73.6551 226.87 74.648C227.291 75.1738 227.674 75.7281 228.018 76.307C227.543 76.8958 227.126 77.5287 226.772 78.197C225.169 81.739 229.516 83.097 229.516 83.097C229.516 85.477 231.721 85.463 233.128 85.456C234.535 85.449 235.312 89.208 236.411 89.061L235.298 77.462C235.461 77.5254 235.634 77.5586 235.809 77.56C238.462 77.609 237.769 72.583 236.915 71.26C237.705 70.276 238.373 69.1994 238.903 68.054C239.384 66.303 239.417 64.4594 239.001 62.692C239.89 62.58 243.509 60.487 243.075 60.459Z" fill="#263238"/>
<path d="M235.648 78.078C235.558 77.7094 235.375 77.3698 235.118 77.0907C234.861 76.8116 234.537 76.6022 234.177 76.482C233.817 76.3618 233.433 76.3347 233.06 76.4032C232.686 76.4718 232.337 76.6337 232.043 76.874C231.343 77.476 230.972 78.484 231.392 80.171C232.526 84.679 236.817 82.614 236.789 82.488C236.761 82.362 236.138 79.94 235.648 78.078Z" fill="#FFBE9D"/>
<path d="M234.983 81.123C234.983 81.123 234.92 81.2 234.801 81.291C234.635 81.4179 234.427 81.4756 234.22 81.452C233.702 81.396 233.107 80.752 232.883 79.933C232.776 79.5503 232.755 79.1489 232.82 78.757C232.827 78.6048 232.871 78.4565 232.948 78.3249C233.024 78.1932 233.132 78.0821 233.261 78.001C233.346 77.9552 233.444 77.9406 233.539 77.9598C233.634 77.979 233.718 78.0307 233.779 78.106C233.87 78.211 233.863 78.309 233.891 78.316C233.919 78.323 233.968 78.211 233.891 78.036C233.837 77.9322 233.751 77.8487 233.646 77.798C233.498 77.7381 233.332 77.7381 233.184 77.798C233.008 77.8815 232.856 78.008 232.742 78.1659C232.629 78.3238 232.557 78.5078 232.533 78.701C232.442 79.1418 232.459 79.5981 232.582 80.031C232.66 80.4375 232.856 80.8118 233.147 81.107C233.437 81.4022 233.808 81.605 234.213 81.69C234.345 81.6954 234.476 81.6711 234.597 81.619C234.718 81.5669 234.826 81.4883 234.913 81.389C235.004 81.235 235.004 81.13 234.983 81.123Z" fill="#EB996E"/>
<path d="M259.819 71.785C259.819 71.785 260.232 71.47 260.806 70.77C261.598 69.7614 262.084 68.5466 262.206 67.27C262.299 66.3985 262.213 65.5173 261.954 64.68C261.655 63.7196 261.101 62.8583 260.351 62.188C259.485 61.4318 258.437 60.9151 257.309 60.6891C256.182 60.4632 255.015 60.5359 253.925 60.9C253.715 60.97 253.519 61.075 253.323 61.159C253.127 61.243 252.952 61.369 252.77 61.474L252.49 61.628V61.32C252.484 60.7778 252.283 60.2559 251.923 59.85C251.555 59.4561 251.102 59.15 250.6 58.954C249.649 58.5578 248.596 58.4793 247.597 58.73C245.665 59.171 244.027 60.053 242.48 60.235C241.267 60.4458 240.019 60.1962 238.98 59.535C238.706 59.3464 238.469 59.1092 238.28 58.835C238.168 58.646 238.112 58.541 238.126 58.534C238.38 58.8797 238.69 59.1802 239.043 59.423C240.065 60.013 241.266 60.2143 242.424 59.99C243.23 59.8384 244.018 59.6038 244.776 59.29C245.666 58.9344 246.578 58.6374 247.506 58.401C248.024 58.2758 248.556 58.2216 249.088 58.24C249.65 58.2697 250.202 58.3976 250.719 58.618C251.254 58.8467 251.732 59.1909 252.119 59.626C252.533 60.0999 252.766 60.7049 252.777 61.334L252.497 61.18L253.078 60.844C253.295 60.76 253.498 60.648 253.722 60.571C254.871 60.1774 256.104 60.0951 257.296 60.3324C258.487 60.5697 259.594 61.1181 260.505 61.922C261.292 62.6347 261.869 63.55 262.171 64.568C262.485 65.6469 262.527 66.7868 262.294 67.886C262.061 68.9853 261.559 70.0097 260.834 70.868C260.603 71.1311 260.343 71.3661 260.057 71.568C259.987 71.6497 259.907 71.7226 259.819 71.785Z" fill="#455A64"/>
<path d="M258.909 55.958C258.449 55.7247 257.959 55.5574 257.453 55.461C256.874 55.3819 256.285 55.437 255.731 55.622C255.013 55.8415 254.39 56.295 253.96 56.91L253.785 57.155L253.68 56.875C253.314 56.0145 252.726 55.2671 251.976 54.7097C251.225 54.1523 250.339 53.8051 249.41 53.704C247.95 53.6491 246.512 54.0664 245.308 54.894C244.282 55.5625 243.192 56.1254 242.053 56.574C241.268 56.871 240.422 56.972 239.589 56.868C239.367 56.827 239.149 56.7661 238.938 56.686C238.798 56.623 238.721 56.588 238.728 56.574C238.735 56.56 239.043 56.665 239.61 56.721C240.415 56.7713 241.222 56.6397 241.969 56.336C243.076 55.8534 244.137 55.2724 245.14 54.6C245.759 54.2153 246.416 53.8941 247.1 53.641C247.852 53.3669 248.655 53.264 249.452 53.34C250.445 53.4484 251.39 53.824 252.186 54.4268C252.982 55.0295 253.6 55.8369 253.974 56.763H253.701C254.182 56.1052 254.87 55.6272 255.654 55.405C256.25 55.2323 256.878 55.2011 257.488 55.314C257.874 55.3874 258.244 55.5296 258.58 55.734C258.7 55.7926 258.811 55.8681 258.909 55.958Z" fill="#455A64"/>
<path d="M249.69 80.136C249.526 79.9993 249.336 79.8987 249.131 79.8408C248.926 79.7829 248.711 79.769 248.5 79.8C248.253 79.8526 248.021 79.9565 247.817 80.1048C247.613 80.2531 247.443 80.4426 247.317 80.661C247.317 80.661 247.282 80.696 247.275 80.717C247.179 80.8769 247.134 81.0629 247.149 81.249C247.179 81.4518 247.259 81.644 247.381 81.8087C247.503 81.9735 247.664 82.1058 247.849 82.194C248.145 82.344 248.48 82.3989 248.808 82.3513C249.136 82.3037 249.442 82.1559 249.683 81.928C249.912 81.6862 250.04 81.3663 250.041 81.0334C250.042 80.7005 249.917 80.3796 249.69 80.136Z" fill="#37DB7F"/>
<path d="M250.04 82.313C249.984 82.313 249.921 82.103 249.732 81.816C249.504 81.4312 249.164 81.1256 248.757 80.9403C248.351 80.7551 247.897 80.6991 247.457 80.78C247.114 80.829 246.904 80.927 246.883 80.878C246.862 80.829 247.023 80.661 247.401 80.528C247.896 80.3688 248.432 80.3987 248.906 80.612C249.384 80.825 249.763 81.2133 249.963 81.697C250.11 82.061 250.089 82.306 250.04 82.313Z" fill="#263238"/>
<path d="M235.753 83.181C235.753 83.181 235.956 83.531 235.69 84.063C235.539 84.3813 235.275 84.6313 234.948 84.763C234.744 84.836 234.526 84.8607 234.311 84.8352C234.096 84.8097 233.89 84.7346 233.709 84.616C233.525 84.504 233.369 84.351 233.254 84.1688C233.138 83.9867 233.067 83.7804 233.044 83.566C233.023 83.2202 233.124 82.8781 233.331 82.6C233.695 82.138 234.101 82.124 234.101 82.166C234.101 82.208 233.793 82.327 233.548 82.747C233.406 82.9823 233.347 83.2583 233.38 83.531C233.406 83.6908 233.467 83.843 233.557 83.9771C233.648 84.1112 233.767 84.2241 233.905 84.308C234.042 84.3954 234.195 84.453 234.356 84.4772C234.516 84.5013 234.68 84.4914 234.836 84.448C235.094 84.3555 235.317 84.1841 235.473 83.958C235.746 83.524 235.697 83.181 235.753 83.181Z" fill="#37DB7F"/>
<path d="M233.394 82.908C233.429 82.908 233.394 83.146 233.065 83.3C232.903 83.3672 232.726 83.3867 232.554 83.3562C232.381 83.3257 232.221 83.2465 232.092 83.128C231.963 83.0095 231.871 82.8566 231.827 82.6874C231.782 82.5182 231.787 82.3397 231.84 82.173C231.909 81.9837 232.039 81.8233 232.211 81.718C232.498 81.543 232.715 81.613 232.708 81.655C232.701 81.697 232.54 81.746 232.365 81.921C232.279 82.0286 232.226 82.1592 232.214 82.2964C232.202 82.4337 232.231 82.5715 232.296 82.6926C232.362 82.8137 232.462 82.9127 232.584 82.9771C232.706 83.0416 232.844 83.0687 232.981 83.055C233.219 83.006 233.345 82.88 233.394 82.908Z" fill="#37DB7F"/>
<path d="M241.087 145.075C241.087 145.075 258.419 146.083 268.667 146.174C276.598 146.251 280.14 144.144 281.722 139.041C283.052 134.764 280.196 126.553 280.196 126.553C274.827 126.553 271.516 127.323 268.065 128.94L268.982 132.692L241.038 135.1L241.087 145.075Z" fill="#FFBE9D"/>
<path d="M274.806 136.696C274.054 135.719 273.176 134.845 272.195 134.099C271.142 133.455 270.007 132.956 268.821 132.615C269.195 132.561 269.575 132.595 269.934 132.713C270.815 132.921 271.65 133.289 272.398 133.798C273.147 134.309 273.795 134.954 274.309 135.702C274.701 136.276 274.848 136.675 274.806 136.696Z" fill="#EB996E"/>
<path d="M234.745 128.912C234.745 128.912 229.383 130.2 225.442 132.832L229.642 144.214C231.042 147.952 235.319 149.814 238.742 147.854C244.013 144.837 245.875 136.045 245.875 136.045L251.664 110.929L242.067 104.916L234.78 128.912" fill="#FFBE9D"/>
<path d="M242.032 104.916L242.424 96.656L240.275 88.256C240.156 87.794 240.1 87.213 240.478 86.933C240.665 86.7893 240.897 86.7149 241.133 86.7226C241.369 86.7302 241.595 86.8194 241.773 86.975C242.354 87.577 245.154 94.92 245.154 94.92C245.154 94.92 249.403 92.372 250.159 92.246C250.915 92.12 251.86 94.409 251.923 94.584C251.951 95.097 251.951 95.611 251.923 96.124C251.923 96.124 254.548 96.201 254.786 96.558C254.977 97.2873 255.078 98.0372 255.087 98.791C255.087 98.791 256.2 99.148 256.375 99.988C256.55 100.828 256.914 102.214 256.375 102.522C255.836 102.83 254.744 103.432 254.744 103.432C254.744 103.432 254.303 107.716 254.184 108.108C254.065 108.5 251.608 110.908 251.608 110.908L242.032 104.916Z" fill="#FFBE9D"/>
<path d="M233.1 148.022C233.1 148.022 233.359 148.176 233.905 148.351C234.703 148.602 235.548 148.669 236.376 148.547C237.706 148.357 238.952 147.783 239.96 146.895C241.292 145.686 242.418 144.267 243.292 142.695C243.807 141.771 244.24 140.803 244.587 139.804C244.951 138.704 245.253 137.585 245.49 136.451C246.036 134.092 246.631 131.551 247.261 128.849C248.521 123.452 249.935 117.418 251.461 110.915V110.866H251.496C251.979 110.39 252.462 109.907 252.945 109.403C253.183 109.151 253.421 108.899 253.645 108.64C253.757 108.507 253.876 108.374 253.967 108.241C254.038 108.109 254.079 107.963 254.086 107.814C254.275 106.414 254.422 104.965 254.576 103.502V103.411L254.66 103.369L255.997 102.62C256.095 102.557 256.249 102.487 256.312 102.431C256.379 102.37 256.423 102.289 256.438 102.2C256.471 101.968 256.471 101.732 256.438 101.5C256.37 100.987 256.265 100.479 256.123 99.981C255.885 99.5456 255.485 99.2212 255.01 99.078L254.891 99.036V98.917C254.891 98.511 254.849 98.091 254.8 97.678C254.781 97.4712 254.751 97.2655 254.709 97.062C254.693 96.9723 254.664 96.8852 254.625 96.803C254.625 96.754 254.625 96.803 254.583 96.761C254.545 96.7411 254.505 96.7247 254.464 96.712C253.622 96.5286 252.764 96.4324 251.902 96.425H251.72V96.243C251.72 95.809 251.72 95.326 251.72 94.843C251.691 94.6783 251.634 94.5197 251.552 94.374C251.482 94.206 251.398 94.045 251.314 93.877C251.15 93.5528 250.958 93.2436 250.74 92.953C250.641 92.8176 250.52 92.6994 250.383 92.603C250.332 92.5601 250.27 92.5332 250.204 92.5257C250.138 92.5183 250.071 92.5305 250.012 92.561C249.673 92.6907 249.344 92.8427 249.025 93.016C247.723 93.716 246.449 94.416 245.203 95.172L245.021 95.284L244.944 95.088C244.286 93.429 243.628 91.791 242.984 90.188C242.662 89.383 242.347 88.578 242.025 87.787C241.975 87.6098 241.877 87.4502 241.741 87.3264C241.604 87.2026 241.436 87.1196 241.255 87.087C241.088 87.0315 240.906 87.0345 240.741 87.0956C240.576 87.1566 240.436 87.2721 240.345 87.423C240.258 87.5732 240.221 87.7474 240.24 87.92C240.24 88.074 240.338 88.312 240.38 88.501C240.492 88.907 240.597 89.306 240.702 89.705C240.912 90.51 241.115 91.301 241.325 92.085C241.736 93.6623 242.139 95.2023 242.536 96.705V96.754C242.396 99.6287 242.263 102.382 242.137 105.014V105L235.76 125.748L233.961 131.523C233.751 132.174 233.59 132.685 233.478 133.042C233.366 133.399 233.296 133.553 233.296 133.553C233.296 133.553 233.331 133.371 233.429 133.028L233.87 131.495C234.276 130.144 234.857 128.191 235.592 125.699C237.104 120.687 239.253 113.533 241.85 104.909V104.944C241.971 102.321 242.095 99.568 242.221 96.684V96.733C241.822 95.228 241.409 93.688 240.996 92.12L240.366 89.74C240.261 89.341 240.156 88.935 240.044 88.536C239.984 88.3264 239.935 88.1138 239.897 87.899C239.871 87.656 239.923 87.4111 240.044 87.199C240.174 86.9807 240.373 86.8128 240.611 86.723C240.846 86.6543 241.095 86.6465 241.333 86.7003C241.572 86.7542 241.793 86.868 241.976 87.031C242.152 87.1958 242.282 87.4032 242.354 87.633L243.313 90.034C243.964 91.644 244.615 93.282 245.28 94.934L245.021 94.843C246.274 94.101 247.534 93.359 248.864 92.666C249.2 92.4903 249.546 92.3337 249.9 92.197C250.011 92.151 250.131 92.1341 250.25 92.148C250.37 92.1653 250.484 92.2083 250.586 92.274C250.755 92.395 250.903 92.5414 251.027 92.708C251.261 93.0143 251.465 93.3425 251.636 93.688C251.727 93.863 251.811 94.031 251.888 94.206C251.988 94.3914 252.054 94.5927 252.084 94.801C252.084 95.298 252.084 95.76 252.084 96.201L251.909 96.012C252.809 96.018 253.705 96.1213 254.583 96.32C254.643 96.3411 254.702 96.3668 254.758 96.397C254.835 96.4389 254.898 96.5021 254.94 96.579C254.994 96.6926 255.034 96.8125 255.059 96.936C255.101 97.16 255.129 97.37 255.157 97.587C255.199 98.014 255.227 98.434 255.248 98.854L255.122 98.686C255.408 98.77 255.674 98.9114 255.904 99.1015C256.134 99.2916 256.323 99.5266 256.459 99.792C256.612 100.324 256.725 100.867 256.795 101.416C256.844 101.696 256.844 101.983 256.795 102.263C256.765 102.433 256.675 102.586 256.543 102.697C256.428 102.774 256.309 102.844 256.186 102.907L254.856 103.6L254.947 103.467C254.786 104.93 254.639 106.365 254.443 107.786L254.401 108.059C254.385 108.17 254.339 108.274 254.268 108.36C254.165 108.513 254.05 108.658 253.925 108.794C253.687 109.06 253.449 109.319 253.225 109.571C252.742 110.075 252.259 110.558 251.769 111.034L251.818 110.95C250.278 117.446 248.85 123.48 247.569 128.877C246.932 131.572 246.323 134.113 245.763 136.465C245.523 137.607 245.215 138.734 244.839 139.839C244.479 140.848 244.034 141.824 243.509 142.758C242.615 144.351 241.463 145.784 240.1 147C239.062 147.894 237.784 148.463 236.425 148.638C235.579 148.752 234.718 148.665 233.912 148.386C233.707 148.311 233.508 148.219 233.317 148.113L233.1 148.022Z" fill="#EB996E"/>
<path d="M251.93 96.145C251.93 96.194 251.692 96.222 251.321 96.236C250.85 96.245 250.381 96.3012 249.921 96.404C249.477 96.5131 249.068 96.7321 248.731 97.041C248.479 97.279 248.367 97.482 248.311 97.461C248.255 97.44 248.311 97.188 248.542 96.866C248.868 96.4584 249.322 96.1723 249.83 96.054C250.32 95.9332 250.829 95.9094 251.328 95.984C251.706 96.033 251.93 96.096 251.93 96.145Z" fill="#EB996E"/>
<path d="M249.9 96.222C249.809 96.187 249.802 95.97 249.9 95.739C249.998 95.508 250.138 95.347 250.229 95.382C250.32 95.417 250.334 95.634 250.229 95.865C250.124 96.096 249.97 96.257 249.9 96.222Z" fill="#EB996E"/>
<path d="M255.206 98.763C254.526 98.9732 253.817 99.0702 253.106 99.05C252.882 99.0425 252.66 99.0888 252.458 99.1851C252.256 99.2813 252.079 99.4246 251.944 99.603C251.762 99.89 251.825 100.128 251.769 100.142C251.713 100.156 251.545 99.911 251.72 99.491C251.816 99.2545 251.992 99.059 252.217 98.938C252.476 98.7958 252.762 98.7099 253.057 98.686C253.772 98.5765 254.501 98.6027 255.206 98.763Z" fill="#EB996E"/>
<path d="M254.744 101.283C254.842 101.283 254.898 101.801 254.87 102.438C254.842 103.075 254.737 103.579 254.639 103.579C254.541 103.579 254.478 103.054 254.506 102.417C254.534 101.78 254.639 101.276 254.744 101.283Z" fill="#EB996E"/>
<path d="M257.649 120.134L258.272 117.992C258.301 117.894 258.354 117.805 258.427 117.734C258.501 117.663 258.591 117.612 258.69 117.587C258.789 117.561 258.893 117.562 258.991 117.589C259.09 117.616 259.18 117.668 259.252 117.74L260.071 118.573L260.575 116.55C260.605 116.433 260.67 116.328 260.761 116.249C260.852 116.171 260.965 116.122 261.085 116.11C261.205 116.097 261.326 116.122 261.431 116.181C261.537 116.24 261.621 116.33 261.674 116.438L262.815 118.832L257.649 120.134Z" fill="white"/>
<path d="M262.829 119.749C262.046 120.127 261.214 120.396 260.358 120.547C259.53 120.818 258.667 120.968 257.796 120.995C259.408 120.348 261.102 119.928 262.829 119.749Z" fill="white"/>
<path d="M221.2 107.8C221.2 107.8 220.941 108.066 220.577 108.633C220.088 109.44 219.767 110.338 219.632 111.272C219.433 112.663 219.39 114.072 219.506 115.472C219.583 117.061 219.709 118.797 219.905 120.617C220.237 123.725 220.73 126.814 221.382 129.871C221.627 131.047 221.851 131.971 222.005 132.671C222.075 132.965 222.138 133.21 222.187 133.42C222.236 133.63 222.243 133.686 222.243 133.686C222.243 133.686 222.208 133.602 222.159 133.434C222.11 133.266 222.033 132.972 221.956 132.685C221.781 132.034 221.543 131.096 221.256 129.92C220.576 126.864 220.068 123.772 219.737 120.659C219.541 118.839 219.422 117.096 219.352 115.507C219.246 114.106 219.298 112.697 219.506 111.307C219.656 110.361 219.999 109.455 220.514 108.647C220.704 108.335 220.934 108.05 221.2 107.8Z" fill="white"/>
<path d="M235.935 98.266L235.774 98.35L235.312 98.574C234.913 98.763 234.332 99.043 233.639 99.428C231.832 100.436 230.078 101.534 228.382 102.718C226.38 104.118 224.609 105.392 223.314 106.316L221.781 107.401L221.354 107.688C221.306 107.726 221.255 107.759 221.2 107.786C221.24 107.739 221.287 107.699 221.34 107.667L221.746 107.359L223.251 106.232C224.532 105.287 226.296 103.971 228.298 102.599C229.997 101.41 231.764 100.32 233.59 99.337C234.29 98.966 234.878 98.7 235.291 98.525L235.76 98.329C235.9 98.28 235.9 98.259 235.935 98.266Z" fill="white"/>
<path d="M269.318 102.823C269.274 102.799 269.234 102.768 269.199 102.732L268.884 102.459C268.494 102.13 268.085 101.823 267.659 101.542C266.238 100.636 264.73 99.8738 263.158 99.267C261.591 98.6461 259.99 98.1133 258.363 97.671C257.733 97.496 257.229 97.37 256.872 97.286L256.473 97.181C256.424 97.1709 256.377 97.1545 256.333 97.132H256.48L256.886 97.209C257.243 97.279 257.754 97.391 258.384 97.552C260.026 97.9666 261.64 98.488 263.214 99.113C264.795 99.7197 266.305 100.499 267.715 101.437C268.302 101.834 268.84 102.3 269.318 102.823Z" fill="white"/>
<path d="M236.131 156.254C236.036 156.237 235.944 156.206 235.858 156.163C235.615 156.056 235.381 155.93 235.158 155.785C234.781 155.559 234.452 155.261 234.19 154.908C233.928 154.555 233.739 154.153 233.632 153.727C233.44 152.866 233.536 151.966 233.905 151.165C234.012 150.916 234.148 150.681 234.311 150.465C234.423 150.318 234.5 150.248 234.507 150.255C234.316 150.554 234.145 150.865 233.996 151.186C233.671 151.972 233.595 152.84 233.779 153.671C233.979 154.491 234.479 155.208 235.179 155.68C235.76 156.1 236.145 156.226 236.131 156.254Z" fill="white"/>
<path d="M233.905 148.673C234.054 148.951 234.165 149.248 234.234 149.555C234.344 149.85 234.41 150.158 234.43 150.472C234.271 150.201 234.157 149.905 234.094 149.597C233.979 149.302 233.915 148.989 233.905 148.673Z" fill="white"/>
<path d="M243.369 305.62L264.719 305.515L264.334 231.7L264.131 156.611L235.2 156.24L229.999 166.04C227.871 169.98 226.514 174.29 226.002 178.738C225.652 182.14 228.2 193.2 229.082 196L237.041 221.242L243.369 305.62Z" fill="#263238"/>
<path d="M270.396 156.702L293.86 220.661C295.25 224.782 295.712 229.159 295.212 233.48C294.712 237.8 293.263 241.956 290.969 245.651L263.725 298.851L248.409 279.685L271.201 232.085L251.111 199.5L254.492 156.8L263.956 156.646L270.396 156.702Z" fill="#263238"/>
<path d="M262.185 178.129C262.185 178.129 262.185 178.241 262.185 178.458C262.185 178.675 262.22 179.011 262.248 179.424C262.297 180.285 262.36 181.524 262.444 183.127C262.605 186.368 262.829 191.023 263.144 196.77C263.459 202.517 263.725 209.37 264.075 217C264.243 220.808 264.425 224.805 264.607 228.949C264.74 231.049 264.684 233.149 264.705 235.249C264.726 237.349 264.705 239.561 264.705 241.759C264.705 259.35 264.761 275.275 264.782 286.818C264.782 292.572 264.782 297.234 264.782 300.475C264.782 302.078 264.782 303.324 264.782 304.192C264.782 304.598 264.782 304.892 264.782 305.158C264.782 305.424 264.782 305.487 264.782 305.487C264.782 305.487 264.782 305.375 264.782 305.158V304.192C264.782 303.324 264.782 302.092 264.74 300.475C264.74 297.234 264.684 292.579 264.642 286.825C264.593 275.282 264.53 259.357 264.46 241.766C264.46 239.568 264.46 237.398 264.46 235.256C264.46 233.114 264.502 231 264.369 228.956C264.194 224.819 264.019 220.822 263.858 217.014C263.536 209.398 263.242 202.545 263.004 196.777C262.766 191.009 262.591 186.375 262.458 183.134C262.402 181.538 262.36 180.292 262.332 179.424C262.332 179.011 262.332 178.724 262.332 178.458C262.332 178.192 262.185 178.129 262.185 178.129Z" fill="#455A64"/>
<path d="M261.646 157.962C261.728 158.187 261.777 158.423 261.793 158.662C261.87 159.11 261.954 159.761 262.052 160.573C262.234 162.19 262.43 164.437 262.542 166.922C262.654 169.407 262.661 171.661 262.626 173.292C262.626 174.104 262.577 174.769 262.542 175.224C262.549 175.46 262.521 175.696 262.458 175.924C262.37 175.05 262.339 174.17 262.367 173.292C262.367 171.661 262.29 169.421 262.178 166.936C262.066 164.451 261.912 162.218 261.793 160.636C261.693 159.748 261.644 158.855 261.646 157.962Z" fill="#455A64"/>
<path d="M256.942 159.404C256.977 159.453 256.578 159.635 256.466 160.202C256.435 160.356 256.443 160.515 256.491 160.665C256.539 160.814 256.624 160.949 256.739 161.056C256.877 161.185 257.05 161.271 257.236 161.305C257.422 161.338 257.614 161.317 257.789 161.245C257.957 161.159 258.097 161.027 258.193 160.865C258.29 160.703 258.339 160.517 258.335 160.328C258.329 160.171 258.282 160.019 258.2 159.885C258.118 159.752 258.003 159.641 257.866 159.565C257.581 159.427 257.264 159.371 256.949 159.404C256.949 159.404 257.019 159.313 257.201 159.257C257.463 159.193 257.74 159.22 257.985 159.334C258.18 159.415 258.349 159.549 258.473 159.721C258.597 159.893 258.67 160.096 258.685 160.307C258.713 160.568 258.658 160.83 258.529 161.058C258.399 161.286 258.202 161.468 257.964 161.578C257.726 161.687 257.459 161.72 257.202 161.67C256.944 161.62 256.709 161.491 256.529 161.301C256.38 161.153 256.275 160.967 256.224 160.764C256.173 160.56 256.18 160.346 256.242 160.146C256.312 159.884 256.47 159.654 256.69 159.495C256.83 159.397 256.935 159.383 256.942 159.404Z" fill="#455A64"/>
<path d="M245.742 158.137C245.845 158.358 245.909 158.594 245.931 158.837C246.044 159.465 246.065 160.107 245.994 160.741C245.893 161.686 245.621 162.604 245.189 163.45C244.668 164.503 243.896 165.411 242.942 166.096C241.987 166.781 240.879 167.221 239.715 167.377C238.783 167.516 237.834 167.481 236.915 167.272C236.293 167.137 235.695 166.913 235.137 166.607C234.926 166.507 234.733 166.375 234.563 166.215C235.337 166.563 236.143 166.833 236.971 167.02C237.967 167.227 238.994 167.225 239.989 167.015C240.984 166.805 241.925 166.391 242.752 165.799C243.578 165.207 244.273 164.45 244.793 163.576C245.313 162.702 245.645 161.729 245.77 160.72C245.852 159.86 245.843 158.995 245.742 158.137Z" fill="#455A64"/>
<path d="M273.21 164.269C272.753 164.322 272.291 164.267 271.859 164.108C270.802 163.775 269.852 163.166 269.108 162.344C268.357 161.526 267.842 160.519 267.617 159.432C267.507 158.988 267.507 158.525 267.617 158.081C267.68 158.081 267.687 158.592 267.897 159.376C268.181 160.389 268.697 161.322 269.404 162.101C270.111 162.88 270.99 163.483 271.971 163.863C272.699 164.15 273.217 164.199 273.21 164.269Z" fill="#455A64"/>
<path d="M281.547 233.219C281.196 233.619 280.777 233.953 280.308 234.206C279.817 234.518 279.281 234.754 278.719 234.906C278.012 235.093 277.266 235.074 276.57 234.85C275.347 234.389 274.3 233.557 273.574 232.47C273.241 232.062 272.965 231.609 272.755 231.126C273.133 231.487 273.475 231.883 273.777 232.309C274.52 233.295 275.524 234.053 276.675 234.5C277.263 234.657 277.876 234.692 278.478 234.605C279.079 234.517 279.657 234.307 280.175 233.989C280.617 233.706 281.075 233.449 281.547 233.219Z" fill="#455A64"/>
<path d="M276.199 237.3C275.372 236.443 274.633 235.505 273.994 234.5C273.258 233.564 272.615 232.558 272.076 231.497C272.909 232.351 273.65 233.289 274.288 234.297C275.03 235.227 275.671 236.234 276.199 237.3Z" fill="#455A64"/>
<path d="M240.331 180.6C240.233 180.635 239.988 180.236 239.771 179.697C239.554 179.158 239.463 178.703 239.554 178.661C239.645 178.619 239.897 179.025 240.107 179.564C240.317 180.103 240.422 180.6 240.331 180.6Z" fill="#FAFAFA"/>
<path d="M253.883 182.546C253.778 182.546 253.701 182.203 253.701 181.776C253.701 181.349 253.778 180.999 253.883 180.999C253.988 180.999 254.065 181.349 254.065 181.776C254.065 182.203 253.981 182.546 253.883 182.546Z" fill="#FAFAFA"/>
<path d="M248.311 189.91C248.213 189.91 248.101 189.49 248.066 188.951C248.031 188.412 248.066 187.978 248.178 187.971C248.29 187.964 248.395 188.391 248.43 188.93C248.465 189.469 248.409 189.903 248.311 189.91Z" fill="#FAFAFA"/>
<path d="M238.133 195.3C238.049 195.363 237.762 195.104 237.384 194.838C237.006 194.572 236.684 194.369 236.684 194.271C236.684 194.173 237.146 194.229 237.573 194.537C238 194.845 238.217 195.3 238.133 195.3Z" fill="#FAFAFA"/>
<path d="M256.074 202.167C255.99 202.111 256.074 201.81 256.312 201.467C256.55 201.124 256.767 200.928 256.851 200.984C256.935 201.04 256.851 201.348 256.613 201.684C256.375 202.02 256.158 202.223 256.074 202.167Z" fill="#FAFAFA"/>
<path d="M245 204.106C244.902 204.106 244.818 203.525 244.818 202.818C244.818 202.111 244.902 201.523 245 201.523C245.098 201.523 245.182 202.104 245.182 202.818C245.182 203.532 245.077 204.106 245 204.106Z" fill="#FAFAFA"/>
<path d="M241.374 211.96C241.318 212.037 240.954 211.876 240.562 211.589C240.17 211.302 239.862 211.008 239.953 210.924C240.044 210.84 240.38 211.008 240.772 211.295C241.164 211.582 241.437 211.876 241.374 211.96Z" fill="#FAFAFA"/>
<path d="M252.588 214.69C252.63 214.781 252.406 214.97 252.084 215.117C251.762 215.264 251.468 215.299 251.426 215.208C251.384 215.117 251.615 214.928 251.937 214.781C252.259 214.634 252.553 214.599 252.588 214.69Z" fill="#FAFAFA"/>
<path d="M245 227.5C244.916 227.542 244.552 227.003 244.195 226.289C243.838 225.575 243.621 224.959 243.712 224.889C243.803 224.819 244.167 225.386 244.517 226.1C244.867 226.814 245.063 227.423 245 227.5Z" fill="#FAFAFA"/>
<path d="M257.369 226.31C257.278 226.261 257.439 225.792 257.719 225.253C257.999 224.714 258.314 224.322 258.419 224.371C258.524 224.42 258.349 224.889 258.062 225.428C257.775 225.967 257.453 226.359 257.369 226.31Z" fill="#FAFAFA"/>
<path d="M251.944 237.153C251.839 237.153 251.853 236.586 251.741 235.928C251.629 235.27 251.461 234.745 251.559 234.696C251.657 234.647 251.993 235.144 252.105 235.872C252.217 236.6 252.042 237.174 251.944 237.153Z" fill="#FAFAFA"/>
<path d="M246.134 243.348C246.064 243.418 245.714 243.152 245.357 242.76C245 242.368 244.769 241.997 244.846 241.927C244.923 241.857 245.266 242.123 245.623 242.515C245.98 242.907 246.211 243.278 246.134 243.348Z" fill="#FAFAFA"/>
<path d="M260.232 245.7C260.162 245.63 260.421 245.252 260.813 244.853C261.205 244.454 261.569 244.195 261.646 244.265C261.723 244.335 261.457 244.72 261.072 245.112C260.687 245.504 260.309 245.77 260.232 245.7Z" fill="#FAFAFA"/>
<path d="M252.126 254.975C252.028 254.975 252.028 254.422 252.126 253.778C252.224 253.134 252.378 252.63 252.483 252.644C252.588 252.658 252.581 253.19 252.483 253.834C252.385 254.478 252.224 254.989 252.126 254.975Z" fill="#FAFAFA"/>
<path d="M246.673 259.476C246.582 259.525 246.274 259.161 245.973 258.664C245.672 258.167 245.518 257.726 245.602 257.677C245.686 257.628 245.994 257.985 246.302 258.482C246.61 258.979 246.757 259.42 246.673 259.476Z" fill="#FAFAFA"/>
<path d="M259.812 265.153C259.875 265.237 259.518 265.594 259.014 265.951C258.51 266.308 258.069 266.532 258.006 266.448C257.943 266.364 258.307 266.007 258.804 265.65C259.301 265.293 259.756 265.076 259.812 265.153Z" fill="#FAFAFA"/>
<path d="M248.864 272.524C248.766 272.489 248.864 271.929 248.955 271.229C249.046 270.529 248.99 269.955 249.095 269.941C249.2 269.927 249.382 270.515 249.312 271.264C249.242 272.013 248.955 272.566 248.864 272.524Z" fill="#FAFAFA"/>
<path d="M253.239 283.108C253.155 283.171 252.861 282.933 252.574 282.576C252.287 282.219 252.126 281.876 252.203 281.813C252.28 281.75 252.574 281.988 252.861 282.345C253.148 282.702 253.316 283.045 253.239 283.108Z" fill="#FAFAFA"/>
<path d="M248.458 290.206C248.374 290.262 247.989 289.849 247.597 289.275C247.205 288.701 246.96 288.197 247.037 288.141C247.114 288.085 247.506 288.498 247.898 289.072C248.29 289.646 248.542 290.15 248.458 290.206Z" fill="#FAFAFA"/>
<path d="M261.625 281.295C261.534 281.26 261.541 281.001 261.625 280.721C261.709 280.441 261.898 280.231 261.996 280.266C262.094 280.301 262.08 280.56 261.996 280.847C261.912 281.134 261.723 281.337 261.625 281.295Z" fill="#FAFAFA"/>
<path d="M255.815 298.2C255.724 298.151 255.899 297.654 256.039 297.031C256.179 296.408 256.228 295.883 256.333 295.876C256.438 295.869 256.543 296.436 256.396 297.108C256.249 297.78 255.899 298.256 255.815 298.2Z" fill="#FAFAFA"/>
<path d="M259.595 190.022C259.504 190.064 259.28 189.784 259.098 189.392C258.916 189 258.839 188.65 258.93 188.608C259.021 188.566 259.245 188.846 259.427 189.238C259.609 189.63 259.7 189.98 259.595 190.022Z" fill="#FAFAFA"/>
<path d="M249.9 168.224C249.956 168.308 249.466 168.7 248.941 169.26C248.416 169.82 248.059 170.338 247.968 170.289C247.877 170.24 248.115 169.589 248.668 169.015C249.221 168.441 249.83 168.133 249.9 168.224Z" fill="#FAFAFA"/>
<path d="M258.531 168C258.426 168 258.265 167.601 258.02 167.125C257.775 166.649 257.551 166.257 257.628 166.187C257.705 166.117 258.083 166.425 258.328 166.957C258.573 167.489 258.622 167.944 258.531 168Z" fill="#FAFAFA"/>
<path d="M231.581 175.077C231.49 175.035 231.581 174.573 231.798 174.041C232.015 173.509 232.253 173.096 232.351 173.138C232.449 173.18 232.351 173.635 232.134 174.174C231.917 174.713 231.7 175.112 231.581 175.077Z" fill="#FAFAFA"/>
<path d="M232.456 185.647C232.386 185.724 231.987 185.5 231.56 185.143C231.133 184.786 230.86 184.443 230.902 184.359C230.944 184.275 231.371 184.506 231.798 184.863C232.225 185.22 232.519 185.57 232.456 185.647Z" fill="#FAFAFA"/>
<path d="M250.138 159.831C250.047 159.831 249.851 159.607 249.711 159.25C249.571 158.893 249.529 158.55 249.62 158.55C249.711 158.55 249.907 158.774 250.047 159.131C250.187 159.488 250.229 159.796 250.138 159.831Z" fill="#FAFAFA"/>
<path d="M267.071 164.997C266.973 164.997 266.98 164.556 267.071 164.059C267.162 163.562 267.344 163.17 267.442 163.191C267.54 163.212 267.533 163.639 267.442 164.136C267.351 164.633 267.169 165.018 267.071 164.997Z" fill="#FAFAFA"/>
<path d="M271.047 172.998C270.956 172.956 271.082 172.438 271.334 171.829C271.586 171.22 271.859 170.765 271.95 170.8C272.041 170.835 271.95 171.36 271.67 171.969C271.39 172.578 271.145 173.033 271.047 172.998Z" fill="#FAFAFA"/>
<path d="M268.212 179.452C268.121 179.494 267.785 179.011 267.463 178.374C267.141 177.737 266.959 177.17 267.05 177.128C267.141 177.086 267.47 177.569 267.792 178.206C268.114 178.843 268.303 179.403 268.212 179.452Z" fill="#FAFAFA"/>
<path d="M274.274 185.906C274.183 185.871 274.274 185.465 274.428 185.003C274.582 184.541 274.827 184.191 274.925 184.226C275.023 184.261 274.925 184.667 274.771 185.129C274.617 185.591 274.4 185.941 274.274 185.906Z" fill="#FAFAFA"/>
<path d="M268.856 192.227C268.772 192.283 268.555 192.094 268.38 191.814C268.205 191.534 268.121 191.254 268.212 191.198C268.303 191.142 268.506 191.331 268.688 191.618C268.87 191.905 268.94 192.178 268.856 192.227Z" fill="#FAFAFA"/>
<path d="M270.011 205.275C269.941 205.338 269.5 204.995 269.038 204.491C268.576 203.987 268.261 203.532 268.338 203.462C268.415 203.392 268.849 203.742 269.311 204.246C269.773 204.75 270.088 205.205 270.011 205.275Z" fill="#FAFAFA"/>
<path d="M277.116 197.778C277.039 197.841 276.654 197.491 276.262 196.987C275.87 196.483 275.618 196.035 275.695 195.972C275.772 195.909 276.157 196.266 276.549 196.763C276.941 197.26 277.2 197.722 277.116 197.778Z" fill="#FAFAFA"/>
<path d="M281.015 208.117C280.924 208.075 281.085 207.55 281.372 206.948C281.659 206.346 281.96 205.884 282.072 205.926C282.184 205.968 282.009 206.5 281.722 207.102C281.435 207.704 281.106 208.166 281.015 208.117Z" fill="#FAFAFA"/>
<path d="M272.727 216.629C272.636 216.678 272.314 216.293 271.866 215.88C271.418 215.467 271.005 215.18 271.047 215.075C271.089 214.97 271.621 215.159 272.111 215.614C272.601 216.069 272.811 216.58 272.727 216.629Z" fill="#FAFAFA"/>
<path d="M273.245 225.4C273.245 225.498 272.895 225.582 272.468 225.582C272.041 225.582 271.698 225.498 271.698 225.4C271.698 225.302 272.041 225.218 272.468 225.218C272.895 225.218 273.245 225.302 273.245 225.4Z" fill="#FAFAFA"/>
<path d="M281.764 222.95C281.673 222.901 281.855 222.46 281.988 221.914C282.121 221.368 282.177 220.892 282.282 220.885C282.387 220.878 282.499 221.389 282.345 221.998C282.191 222.607 281.841 223.006 281.764 222.95Z" fill="#FAFAFA"/>
<path d="M290.227 225.897C290.136 225.932 289.877 225.435 289.653 224.798C289.429 224.161 289.324 223.615 289.415 223.587C289.506 223.559 289.772 224.042 289.996 224.679C290.22 225.316 290.325 225.862 290.227 225.897Z" fill="#FAFAFA"/>
<path d="M288.876 237.937C288.792 237.888 289.009 237.3 289.359 236.621C289.709 235.942 290.059 235.431 290.164 235.48C290.269 235.529 290.038 236.117 289.681 236.789C289.324 237.461 288.967 238 288.876 237.937Z" fill="#FAFAFA"/>
<path d="M281.155 245C281.064 245.035 280.777 244.552 280.511 243.915C280.245 243.278 280.112 242.732 280.21 242.69C280.308 242.648 280.588 243.138 280.847 243.775C281.106 244.412 281.246 245 281.155 245Z" fill="#FAFAFA"/>
<path d="M272.601 247.737C272.601 247.835 272.307 247.919 271.95 247.919C271.593 247.919 271.306 247.835 271.306 247.737C271.306 247.639 271.6 247.555 271.95 247.555C272.3 247.555 272.601 247.639 272.601 247.737Z" fill="#FAFAFA"/>
<path d="M277.501 259C277.41 259 277.214 258.615 277.067 258.083C276.92 257.551 276.892 257.089 276.99 257.068C277.088 257.047 277.277 257.453 277.424 257.985C277.571 258.517 277.599 258.944 277.501 259Z" fill="#FAFAFA"/>
<path d="M271.306 255.22C271.222 255.171 271.306 254.842 271.537 254.485C271.768 254.128 271.999 253.883 272.083 253.932C272.167 253.981 272.083 254.317 271.852 254.674C271.621 255.031 271.397 255.276 271.306 255.22Z" fill="#FAFAFA"/>
<path d="M271.18 267.617C271.082 267.617 270.942 267.148 270.872 266.539C270.802 265.93 270.823 265.433 270.921 265.419C271.019 265.405 271.159 265.888 271.229 266.497C271.299 267.106 271.278 267.603 271.18 267.617Z" fill="#FAFAFA"/>
</svg>
