<svg width="35" height="40" viewBox="0 0 35 40" fill="none" xmlns="http://www.w3.org/2000/svg">
<path d="M11.5625 22.5H8.4375C7.92188 22.5 7.5 22.0781 7.5 21.5625V18.4375C7.5 17.9219 7.92188 17.5 8.4375 17.5H11.5625C12.0781 17.5 12.5 17.9219 12.5 18.4375V21.5625C12.5 22.0781 12.0781 22.5 11.5625 22.5ZM20 21.5625V18.4375C20 17.9219 19.5781 17.5 19.0625 17.5H15.9375C15.4219 17.5 15 17.9219 15 18.4375V21.5625C15 22.0781 15.4219 22.5 15.9375 22.5H19.0625C19.5781 22.5 20 22.0781 20 21.5625ZM27.5 21.5625V18.4375C27.5 17.9219 27.0781 17.5 26.5625 17.5H23.4375C22.9219 17.5 22.5 17.9219 22.5 18.4375V21.5625C22.5 22.0781 22.9219 22.5 23.4375 22.5H26.5625C27.0781 22.5 27.5 22.0781 27.5 21.5625ZM20 29.0625V25.9375C20 25.4219 19.5781 25 19.0625 25H15.9375C15.4219 25 15 25.4219 15 25.9375V29.0625C15 29.5781 15.4219 30 15.9375 30H19.0625C19.5781 30 20 29.5781 20 29.0625ZM12.5 29.0625V25.9375C12.5 25.4219 12.0781 25 11.5625 25H8.4375C7.92188 25 7.5 25.4219 7.5 25.9375V29.0625C7.5 29.5781 7.92188 30 8.4375 30H11.5625C12.0781 30 12.5 29.5781 12.5 29.0625ZM27.5 29.0625V25.9375C27.5 25.4219 27.0781 25 26.5625 25H23.4375C22.9219 25 22.5 25.4219 22.5 25.9375V29.0625C22.5 29.5781 22.9219 30 23.4375 30H26.5625C27.0781 30 27.5 29.5781 27.5 29.0625ZM35 8.75V36.25C35 38.3203 33.3203 40 31.25 40H3.75C1.67969 40 0 38.3203 0 36.25V8.75C0 6.67969 1.67969 5 3.75 5H7.5V0.9375C7.5 0.421875 7.92188 0 8.4375 0H11.5625C12.0781 0 12.5 0.421875 12.5 0.9375V5H22.5V0.9375C22.5 0.421875 22.9219 0 23.4375 0H26.5625C27.0781 0 27.5 0.421875 27.5 0.9375V5H31.25C33.3203 5 35 6.67969 35 8.75ZM31.25 35.7812V12.5H3.75V35.7812C3.75 36.0391 3.96094 36.25 4.21875 36.25H30.7812C31.0391 36.25 31.25 36.0391 31.25 35.7812Z" fill="black"/>
</svg>
