<svg width="35" height="40" viewBox="0 0 35 40" fill="none" xmlns="http://www.w3.org/2000/svg">
<path d="%3Csvg%20width%3D%2235%22%20height%3D%2240%22%20viewBox%3D%220%200%2035%2040%22%20fill%3D%22none%22%20xmlns%3D%22http%3A%2F%2Fwww.w3.org%2F2000%2Fsvg%22%3E%0A%3Cpath%20d%3D%22M11.5625%2022.5H8.4375C7.92188%2022.5%207.5%2022.0781%207.5%2021.5625V18.4375C7.5%2017.9219%207.92188%2017.5%208.4375%2017.5H11.5625C12.0781%2017.5%2012.5%2017.9219%2012.5%2018.4375V21.5625C12.5%2022.0781%2012.0781%2022.5%2011.5625%2022.5ZM20%2021.5625V18.4375C20%2017.9219%2019.5781%2017.5%2019.0625%2017.5H15.9375C15.4219%2017.5%2015%2017.9219%2015%2018.4375V21.5625C15%2022.0781%2015.4219%2022.5%2015.9375%2022.5H19.0625C19.5781%2022.5%2020%2022.0781%2020%2021.5625ZM27.5%2021.5625V18.4375C27.5%2017.9219%2027.0781%2017.5%2026.5625%2017.5H23.4375C22.9219%2017.5%2022.5%2017.9219%2022.5%2018.4375V21.5625C22.5%2022.0781%2022.9219%2022.5%2023.4375%2022.5H26.5625C27.0781%2022.5%2027.5%2022.0781%2027.5%2021.5625ZM20%2029.0625V25.9375C20%2025.4219%2019.5781%2025%2019.0625%2025H15.9375C15.4219%2025%2015%2025.4219%2015%2025.9375V29.0625C15%2029.5781%2015.4219%2030%2015.9375%2030H19.0625C19.5781%2030%2020%2029.5781%2020%2029.0625ZM12.5%2029.0625V25.9375C12.5%2025.4219%2012.0781%2025%2011.5625%2025H8.4375C7.92188%2025%207.5%2025.4219%207.5%2025.9375V29.0625C7.5%2029.5781%207.92188%2030%208.4375%2030H11.5625C12.0781%2030%2012.5%2029.5781%2012.5%2029.0625ZM27.5%2029.0625V25.9375C27.5%2025.4219%2027.0781%2025%2026.5625%2025H23.4375C22.9219%2025%2022.5%2025.4219%2022.5%2025.9375V29.0625C22.5%2029.5781%2022.9219%2030%2023.4375%2030H26.5625C27.0781%2030%2027.5%2029.5781%2027.5%2029.0625ZM35%208.75V36.25C35%2038.3203%2033.3203%2040%2031.25%2040H3.75C1.67969%2040%200%2038.3203%200%2036.25V8.75C0%206.67969%201.67969%205%203.75%205H7.5V0.9375C7.5%200.421875%207.92188%200%208.4375%200H11.5625C12.0781%200%2012.5%200.421875%2012.5%200.9375V5H22.5V0.9375C22.5%200.421875%2022.9219%200%2023.4375%200H26.5625C27.0781%200%2027.5%200.421875%2027.5%200.9375V5H31.25C33.3203%205%2035%206.67969%2035%208.75ZM31.25%2035.7812V12.5H3.75V35.7812C3.75%2036.0391%203.96094%2036.25%204.21875%2036.25H30.7812C31.0391%2036.25%2031.25%2036.0391%2031.25%2035.7812Z%22%20fill%3D%22black%22%2F%3E%0A%3C%2Fsvg%3E%0A" fill="black"/>
</svg>
