<svg width="300" height="300" viewBox="0 0 300 300" fill="none" xmlns="http://www.w3.org/2000/svg">
<path d="M246.457 18.7812C246.457 18.7812 213.15 -8.7551 169.827 3.45552C126.503 15.6661 108.365 53.4147 83.521 79.4155C70.5073 93.0147 51.2879 98.0253 35.8282 108.495C-13.5992 141.967 -6.26854 217.229 31.8363 245.618C64.8315 270.194 106.057 272.765 159.716 254.64C213.375 236.515 251.763 225.62 285.034 173.699C318.305 121.778 287.487 56.1551 246.457 18.7812Z" fill="#37DB7F"/>
<path opacity="0.7" d="M246.457 18.7812C246.457 18.7812 213.15 -8.7551 169.827 3.45552C126.503 15.6661 108.365 53.4147 83.521 79.4155C70.5073 93.0147 51.2879 98.0253 35.8282 108.495C-13.5992 141.967 -6.26854 217.229 31.8363 245.618C64.8315 270.194 106.057 272.765 159.716 254.64C213.375 236.515 251.763 225.62 285.034 173.699C318.305 121.778 287.487 56.1551 246.457 18.7812Z" fill="#37DB7F"/>
<path d="M252.823 299.265H40.8871L62.0806 268.408H231.629L252.823 299.265Z" fill="#263238" stroke="#263238" stroke-linecap="round" stroke-linejoin="round"/>
<path d="M260.182 257.814C260.182 257.814 238.742 224.716 241.935 217.119C245.129 209.522 256.452 222.549 256.452 222.549C256.452 222.549 239.831 178.055 251.088 168.284C262.345 158.513 266.098 208.442 266.098 208.442C266.098 208.442 276.259 179.679 284.323 190.531C292.386 201.382 271.984 224.172 271.984 224.172C271.984 224.172 285.919 224.716 282.145 233.944C278.371 243.171 268.21 252.935 268.21 252.935L260.182 257.814Z" fill="#37DB7F"/>
<path d="M254.274 250.217C254.274 250.217 241.413 231.769 247.844 227.971C254.274 224.172 257.49 235.567 257.49 235.567C257.49 235.567 258.027 185.652 268.217 189.451C278.407 193.249 274.648 223.629 274.648 223.629C274.648 223.629 287.509 214.952 286.986 227.427C286.464 239.902 269.291 250.776 269.291 250.776" stroke="#263238" stroke-linecap="round" stroke-linejoin="round"/>
<path d="M266.076 251.305L254.819 238.822" stroke="#263238" stroke-linecap="round" stroke-linejoin="round"/>
<path d="M266.613 257.27L266.076 226.347" stroke="#263238" stroke-linecap="round" stroke-linejoin="round"/>
<path d="M267.15 246.962L277.333 233.4" stroke="#263238" stroke-linecap="round" stroke-linejoin="round"/>
<path d="M276.259 248.05H247.851L250.689 273.551H273.421L276.259 248.05Z" fill="#263238" stroke="#263238" stroke-linecap="round" stroke-linejoin="round"/>
<path d="M32.279 257.813C32.279 257.813 10.8387 224.715 14.0322 217.119C17.2258 209.522 28.5484 222.548 28.5484 222.548C28.5484 222.548 11.9056 178.04 23.1629 168.284C34.4202 158.527 38.1726 208.442 38.1726 208.442C38.1726 208.442 48.3339 179.679 56.3976 190.53C64.4613 201.382 44.0589 224.172 44.0589 224.172C44.0589 224.172 57.9944 224.715 54.2202 233.943C50.446 243.171 40.2847 252.935 40.2847 252.935L32.279 257.813Z" fill="#37DB7F"/>
<path d="M27.9314 250.629C27.9314 250.629 14.6056 237.955 14.1992 232.261C13.7927 226.567 22.6839 233.488 26.3129 235.935C29.9419 238.381 17.0298 219.992 17.429 206.503C17.8282 193.014 25.1008 198.333 27.525 204.056C29.9492 209.78 31.154 215.077 32.3734 216.318C33.5927 217.56 35.6032 206.914 40.8508 209.772C49.2411 214.349 35.6032 229.8 38.4266 232.665C41.25 235.531 47.7169 220.403 50.9468 228.58C54.1766 236.758 40.4443 251.466 40.4443 251.466" stroke="#263238" stroke-linecap="round" stroke-linejoin="round"/>
<path d="M36.4089 249.806L26.3129 219.154" stroke="#263238" stroke-linecap="round" stroke-linejoin="round"/>
<path d="M31.1613 234.274L35.1968 224.878" stroke="#263238" stroke-linecap="round" stroke-linejoin="round"/>
<path d="M23.083 240.409L34.3911 243.267L40.0451 239.182" stroke="#263238" stroke-linecap="round" stroke-linejoin="round"/>
<path d="M48.3556 248.05H19.9476L22.7855 273.551H45.5177L48.3556 248.05Z" fill="#263238" stroke="#263238" stroke-linecap="round" stroke-linejoin="round"/>
<path d="M129.922 178.041C129.922 178.041 119.274 179.018 115.406 172.163C111.537 165.309 118.309 156.977 111.051 154.038C103.793 151.1 95.0831 160.9 80.5669 152.569C66.0508 144.238 73.7879 133.467 77.6637 125.143C81.5395 116.819 83.4702 112.895 74.2742 107.51C65.0782 102.125 54.9169 86.4465 61.2097 71.2677C67.5024 56.089 83.4702 62.9363 91.6935 55.1045C99.9169 47.2726 92.6589 37.9567 92.1798 25.2245C91.7008 12.4922 108.627 2.69143 125.081 5.1453C141.535 7.59918 144.917 25.2245 144.917 36.4873C144.917 47.7502 162.336 50.6963 170.567 37.9567C178.798 25.2171 185.562 22.2857 197.661 27.671C209.76 33.0563 199.599 51.1812 205.406 54.12C211.212 57.0588 216.046 42.8571 233.465 51.1812C250.885 59.5053 241.21 81.5461 232.5 86.9388C219.827 94.7926 234.772 110.023 237.174 119.346C240.694 132.975 229.858 143.878 216.532 143.268C195.244 142.283 189.917 138.86 185.562 145.222C181.207 151.584 194.758 153.061 192.82 163.347C190.882 173.633 187.014 177.549 178.304 177.549C169.594 177.549 164.274 169.717 155.078 173.633C145.882 177.549 134.277 180.487 129.922 178.041Z" fill="#263238" stroke="#263238" stroke-linecap="round" stroke-linejoin="round"/>
<path d="M113.105 248.204C111.544 254.065 110.992 260.154 111.472 266.204C112.379 275.571 117.097 280.531 137.601 283.653C158.105 286.775 172.258 284.204 183.69 278.694C195.121 273.184 192.53 253.413 189.561 248.88C186.593 244.347 175.161 243.429 156.653 245.082C138.145 246.735 126.714 243.796 120 244.898C113.286 246 113.105 248.204 113.105 248.204Z" fill="#696969" stroke="#263238" stroke-linecap="round" stroke-linejoin="round"/>
<path opacity="0.3" d="M178.427 251.143C178.427 251.143 168.629 253.714 161.734 255.551C154.839 257.388 154.113 258.122 160.282 258.857C166.452 259.592 178.065 258.857 178.065 258.857C178.065 258.857 161.734 266.571 153.024 268.408C144.315 270.245 128.347 264.367 126.532 262.898C124.718 261.429 134.153 261.429 136.694 260.327C139.234 259.224 137.782 257.755 128.71 256.286C119.637 254.816 121.452 263.265 129.436 269.143C137.419 275.02 142.137 276.857 152.48 275.02C162.823 273.184 176.976 268.775 181.694 259.959C186.411 251.143 178.427 251.143 178.427 251.143Z" fill="black"/>
<path d="M108.481 192.331L107.277 216.869C107.277 216.869 105.099 222.571 109.019 226.229C112.938 229.888 117.989 228.808 120.631 224.062C123.273 219.316 122.91 208.332 123.578 203.99C124.246 199.648 119.027 195.174 114.738 193.55C110.448 191.926 108.481 192.331 108.481 192.331Z" fill="white" stroke="#263238" stroke-linecap="round" stroke-linejoin="round"/>
<path d="M193.357 192.331L194.562 216.869C194.562 216.869 196.703 222.571 192.82 226.229C188.937 229.888 183.842 228.808 181.164 224.062C178.485 219.316 178.885 208.332 178.217 203.99C177.549 199.648 182.775 195.174 187.057 193.55C191.34 191.926 193.357 192.331 193.357 192.331Z" fill="white" stroke="#263238" stroke-linecap="round" stroke-linejoin="round"/>
<path d="M141.281 155.765C141.281 155.765 141.738 165.977 139.292 170.304C136.846 174.632 129.051 174.367 124.014 174.367C118.977 174.367 111.479 178.54 109.033 182.721C107.188 186.149 105.606 189.715 104.301 193.389L121.11 202.513C121.11 202.513 119.274 206.077 121.11 211.33C122.947 216.583 125.69 218.603 124.928 221.233C124.166 223.864 114.23 242.576 113.315 245.515C112.853 246.876 112.496 248.271 112.248 249.688C112.248 249.688 133.485 253.869 151.972 253.251C170.458 252.634 189.561 248.917 189.561 248.917C189.561 248.917 183.907 238.866 180.852 233.143C177.796 227.42 175.045 221.542 175.655 219.529C176.265 217.516 179.785 212.109 179.632 202.668C179.632 202.668 193.227 199.112 198.271 193.389C198.271 193.389 192.312 178.386 186.201 175.91C180.09 173.434 173.064 175.91 168.056 174.522C163.048 173.133 160.413 170.65 159.651 168.798C158.889 166.947 158.119 158.278 158.424 156.272L141.281 155.765Z" fill="#37DB7F" stroke="#263238" stroke-linecap="round" stroke-linejoin="round"/>
<path opacity="0.3" d="M125.806 215.51C125.806 215.51 120.726 210 126.532 209.265C132.339 208.531 140.685 214.408 149.758 216.612C158.831 218.816 169.718 208.898 174.435 210.367C179.153 211.837 176.25 219.184 171.169 222.49C166.089 225.796 151.935 225.429 143.952 225.061C135.968 224.694 131.976 222.49 125.806 215.51Z" fill="black"/>
<path d="M132.339 218.919C132.339 218.919 135.104 221.16 142.5 221.16C149.896 221.16 155.565 217.802 160.747 218.735" stroke="#263238" stroke-linecap="round" stroke-linejoin="round"/>
<path d="M129.203 219.478C129.203 219.478 132.331 222.093 138.784 222.277" stroke="#263238" stroke-linecap="round" stroke-linejoin="round"/>
<path d="M121.111 202.477C121.111 202.477 121.64 199.707 125.146 197.091" stroke="#263238" stroke-linecap="round" stroke-linejoin="round"/>
<path d="M179.632 202.631C179.632 202.631 178.406 197.282 175.089 196.158" stroke="#263238" stroke-linecap="round" stroke-linejoin="round"/>
<path d="M151.057 193.352C163.011 192.874 166.764 181.229 167.939 174.463C162.953 173.067 160.377 170.606 159.614 168.762C158.852 166.918 158.083 158.241 158.388 156.235L141.281 155.765C141.281 155.765 141.738 165.977 139.292 170.304C138.044 172.509 135.387 173.522 132.419 173.978C133.551 178.834 138.145 193.873 151.057 193.352Z" fill="white"/>
<path opacity="0.3" d="M158.686 163.391C158.381 161.019 158.281 158.625 158.388 156.235L141.281 155.765C141.37 158.396 141.281 161.03 141.012 163.648C144.017 165.639 150.106 168.02 158.686 163.391Z" fill="black"/>
<path d="M151.057 193.352C163.011 192.874 166.764 181.229 167.939 174.463C162.953 173.067 160.377 170.606 159.614 168.762C158.852 166.918 158.083 158.241 158.388 156.235L141.281 155.765C141.281 155.765 141.738 165.977 139.292 170.304C138.044 172.509 135.387 173.522 132.419 173.978C133.551 178.834 138.145 193.873 151.057 193.352Z" stroke="#263238" stroke-linecap="round" stroke-linejoin="round"/>
<path d="M134.023 134.694C134.023 134.694 131.845 131.101 129.704 133.291C127.563 135.48 129.704 139.844 131.09 141.872C132.477 143.9 135.097 145.457 135.714 144.678C136.331 143.9 134.023 134.694 134.023 134.694Z" fill="white" stroke="#263238" stroke-linecap="round" stroke-linejoin="round"/>
<path d="M167.468 134.371C167.468 134.371 170.552 130.315 172.251 134.216C173.949 138.118 169.348 144.047 167.17 145.141C164.993 146.236 166.089 142.643 166.241 141.394C166.394 140.145 167.468 134.371 167.468 134.371Z" fill="white" stroke="#263238" stroke-linecap="round" stroke-linejoin="round"/>
<path d="M132.339 120.955C132.339 120.955 133.42 135.781 134.189 143.268C134.959 150.754 137.717 157.469 146.194 159.673C154.672 161.877 161.436 158.895 163.926 153.899C166.415 148.903 167.78 139.389 167.78 131.586V119.096C167.78 119.096 145.889 112.844 132.339 120.955Z" fill="white" stroke="#263238" stroke-linecap="round" stroke-linejoin="round"/>
<path d="M148.662 142.173C149.446 142.7 150.346 143.023 151.282 143.113C152.264 143.01 153.21 142.689 154.055 142.173" stroke="#263238" stroke-linecap="round" stroke-linejoin="round"/>
<path d="M146.659 147.015C146.659 147.015 150.513 149.513 156.094 146.699" stroke="#263238" stroke-linecap="round" stroke-linejoin="round"/>
<path d="M140.497 134.371C140.497 134.371 143.734 133.908 145.577 135.157" stroke="#263238" stroke-width="2" stroke-linecap="round" stroke-linejoin="round"/>
<path d="M155.601 134.995C155.601 134.995 158.685 133.438 161.61 134.841" stroke="#263238" stroke-width="2" stroke-linecap="round" stroke-linejoin="round"/>
<path d="M133.253 132.953C134.31 131.148 135.137 129.215 135.714 127.2C136.651 124.562 136.942 121.734 136.563 118.957C135.098 119.491 133.684 120.16 132.339 120.955C132.339 120.955 132.745 126.767 133.253 132.953Z" fill="#263238" stroke="#263238" stroke-linecap="round" stroke-linejoin="round"/>
<path d="M167.773 131.711C167.773 131.66 167.773 131.615 167.773 131.564V119.074C167.773 119.074 166.263 118.648 163.802 118.163C163.962 120.588 164.681 127.898 167.773 131.711Z" fill="#263238" stroke="#263238" stroke-linecap="round" stroke-linejoin="round"/>
<path d="M139.263 128.912C139.263 128.912 141.883 125.327 147.428 126.414" stroke="#263238" stroke-linecap="round" stroke-linejoin="round"/>
<path d="M155.289 126.884C156.554 126.415 157.92 126.299 159.245 126.545C160.57 126.792 161.805 127.394 162.823 128.287" stroke="#263238" stroke-linecap="round" stroke-linejoin="round"/>
<path d="M152.48 275.02C152.48 275.02 145.403 275.02 132.702 262.347C120 249.673 112.016 239.02 102.218 234.612C92.4194 230.204 82.9839 239.939 83.5282 250.408C84.0726 260.878 91.6936 275.571 114.375 284.02C137.056 292.469 156.472 288.98 158.468 288.98C160.464 288.98 170.262 293.939 176.069 294.49C179.265 294.836 182.489 294.836 185.685 294.49C185.685 294.49 187.319 294.673 188.226 294.673C189.133 294.673 190.222 293.571 190.222 293.571C190.222 293.571 192.058 294.056 192.784 292.771C193.51 291.485 192.944 291 192.944 291C192.944 291 196.05 291.272 197.139 289.251C198.227 287.231 196.674 287.312 196.674 287.312C196.674 287.312 198.801 286.893 198.75 285.159C198.79 284.513 198.665 283.868 198.387 283.286C198.387 283.286 199.657 281.265 199.113 279.612C198.569 277.959 196.573 277.408 194.577 278.326C192.581 279.245 182.964 278.878 175.161 278.326C167.359 277.775 152.48 275.02 152.48 275.02Z" fill="white" stroke="#263238" stroke-linecap="round" stroke-linejoin="round"/>
<path d="M149.323 274.286C146.085 273.103 140.439 270.091 132.702 262.369C120 249.673 112.016 239.02 102.218 234.612C92.4194 230.204 82.9839 239.939 83.5282 250.408C84.0726 260.878 91.6936 275.571 114.375 284.02C122.834 287.148 131.701 289.002 140.693 289.523C148.938 286.041 149.707 278.694 149.323 274.286Z" fill="#696969"/>
<path opacity="0.3" d="M146.238 285.556C142.66 284.182 138.479 282.713 133.79 281.265C117.097 276.122 104.758 269.878 96.4112 260.327C88.0645 250.775 90.9677 238.653 90.9677 238.653L89.0443 236.89C87.1975 238.592 85.7453 240.687 84.7917 243.024C83.8381 245.361 83.4066 247.883 83.5282 250.408C84.0725 260.878 91.6935 275.571 114.375 284.02C122.834 287.148 131.701 289.002 140.693 289.523C142.826 288.666 144.727 287.306 146.238 285.556Z" fill="black"/>
<path d="M149.323 274.286C146.085 273.103 140.439 270.091 132.702 262.369C120 249.673 112.016 239.02 102.218 234.612C92.4194 230.204 82.9839 239.939 83.5282 250.408C84.0726 260.878 91.6936 275.571 114.375 284.02C122.834 287.148 131.701 289.002 140.693 289.523C148.938 286.041 149.707 278.694 149.323 274.286Z" stroke="#263238" stroke-linecap="round" stroke-linejoin="round"/>
<path d="M198.387 283.286C197.83 283.032 197.224 282.908 196.613 282.924C196.003 282.939 195.404 283.093 194.86 283.374" fill="white"/>
<path d="M198.387 283.286C197.83 283.032 197.224 282.908 196.613 282.924C196.003 282.939 195.404 283.093 194.86 283.374" stroke="#263238" stroke-linecap="round" stroke-linejoin="round"/>
<path d="M196.674 287.312C195.736 286.968 194.709 286.968 193.771 287.312H196.674Z" fill="white"/>
<path d="M196.674 287.312C195.736 286.968 194.709 286.968 193.771 287.312" stroke="#263238" stroke-linecap="round" stroke-linejoin="round"/>
<path d="M192.944 291C192.273 290.489 191.443 290.242 190.606 290.302L192.944 291Z" fill="white"/>
<path d="M192.944 291C192.273 290.489 191.443 290.242 190.606 290.302" stroke="#263238" stroke-linecap="round" stroke-linejoin="round"/>
<path d="M190.033 293.388C190.033 293.388 189.256 291.97 188.117 291.97L190.033 293.388Z" fill="white"/>
<path d="M190.033 293.388C190.033 293.388 189.256 291.97 188.117 291.97" stroke="#263238" stroke-linecap="round" stroke-linejoin="round"/>
<path d="M144.431 275.02C144.431 275.02 151.507 275.02 164.209 262.347C176.91 249.673 184.894 239.02 194.693 234.612C204.491 230.204 213.927 239.939 213.382 250.408C212.838 260.878 205.217 275.571 182.535 284.02C159.854 292.469 140.439 288.98 138.443 288.98C136.447 288.98 126.648 293.939 120.842 294.49C117.645 294.836 114.422 294.836 111.225 294.49C111.225 294.49 109.592 294.673 108.685 294.673C107.777 294.673 106.689 293.571 106.689 293.571C106.689 293.571 104.852 294.056 104.127 292.771C103.401 291.485 103.967 291 103.967 291C103.967 291 100.853 291.272 99.7645 289.251C98.6758 287.231 100.229 287.312 100.229 287.312C100.229 287.312 98.1024 286.893 98.1532 285.159C98.1112 284.513 98.2389 283.866 98.5234 283.286C98.5234 283.286 97.2532 281.265 97.7976 279.612C98.3419 277.959 100.338 277.408 102.334 278.326C104.33 279.245 113.947 278.878 121.749 278.326C129.552 277.775 144.431 275.02 144.431 275.02Z" fill="white" stroke="#263238" stroke-linecap="round" stroke-linejoin="round"/>
<path d="M147.581 274.286C150.81 273.103 156.457 270.091 164.202 262.369C176.903 249.695 184.887 239.042 194.685 234.634C204.484 230.226 213.919 239.961 213.375 250.43C212.831 260.9 205.21 275.593 182.528 284.042C174.067 287.171 165.197 289.025 156.203 289.545C147.965 286.041 147.203 278.694 147.581 274.286Z" fill="#696969"/>
<path opacity="0.3" d="M213.382 250.408C213.76 243.113 209.289 236.184 203.221 234.135L200.565 236.082C200.565 236.082 209.637 241.592 207.46 252.245C205.282 262.898 187.5 273.918 173.347 279.796C166.3 282.592 159.068 284.882 151.703 286.651C153.026 287.87 154.552 288.843 156.21 289.523C165.204 289.003 174.074 287.149 182.535 284.02C205.217 275.571 212.838 260.878 213.382 250.408Z" fill="black"/>
<path d="M147.581 274.286C150.81 273.103 156.457 270.091 164.202 262.369C176.903 249.695 184.887 239.042 194.685 234.634C204.484 230.226 213.919 239.961 213.375 250.43C212.831 260.9 205.21 275.593 182.528 284.042C174.067 287.171 165.197 289.025 156.203 289.545C147.965 286.041 147.203 278.694 147.581 274.286Z" stroke="#263238" stroke-linecap="round" stroke-linejoin="round"/>
<path d="M98.5234 283.286C99.0804 283.032 99.6865 282.908 100.297 282.924C100.908 282.939 101.507 283.093 102.051 283.374" fill="white"/>
<path d="M98.5234 283.286C99.0804 283.032 99.6865 282.908 100.297 282.924C100.908 282.939 101.507 283.093 102.051 283.374" stroke="#263238" stroke-linecap="round" stroke-linejoin="round"/>
<path d="M100.229 287.312C101.167 286.968 102.194 286.968 103.132 287.312H100.229Z" fill="white"/>
<path d="M100.229 287.312C101.167 286.968 102.194 286.968 103.132 287.312" stroke="#263238" stroke-linecap="round" stroke-linejoin="round"/>
<path d="M103.967 291C104.637 290.489 105.467 290.242 106.304 290.302L103.967 291Z" fill="white"/>
<path d="M103.967 291C104.637 290.489 105.467 290.242 106.304 290.302" stroke="#263238" stroke-linecap="round" stroke-linejoin="round"/>
<path d="M106.877 293.388C106.877 293.388 107.661 291.918 108.794 291.918L106.877 293.388Z" fill="white"/>
<path d="M106.877 293.388C106.877 293.388 107.661 291.918 108.794 291.918" stroke="#263238" stroke-linecap="round" stroke-linejoin="round"/>
<path d="M111.559 218.5C111.559 218.5 108.881 217.957 104.061 220.396C99.2419 222.835 94.8145 227.177 92.2669 228.669C89.7193 230.16 87.9847 231.115 85.7347 228.808C83.4847 226.501 78.6363 220.124 74.0782 220.264C69.5201 220.403 67.9161 226.773 68.7218 228.125C69.5274 229.477 70.7322 229.756 71.6685 228.669C72.6048 227.581 73.8097 225.414 75.0145 226.229C76.2193 227.045 75.5516 230.843 73.679 231.519C71.8064 232.195 66.7113 235.45 67.9161 237.353C69.121 239.255 75.958 241.827 81.046 242.231C86.1339 242.635 92.4339 239.116 96.5855 238.433C100.737 237.749 111.994 236.963 117.213 232.606C118.716 231.369 119.868 229.75 120.551 227.914C121.234 226.079 121.425 224.093 121.103 222.159" fill="white"/>
<path d="M111.559 218.5C111.559 218.5 108.881 217.957 104.061 220.396C99.2419 222.835 94.8145 227.177 92.2669 228.669C89.7193 230.16 87.9847 231.115 85.7347 228.808C83.4847 226.501 78.6363 220.124 74.0782 220.264C69.5201 220.403 67.9161 226.773 68.7218 228.125C69.5274 229.477 70.7322 229.756 71.6685 228.669C72.6048 227.581 73.8097 225.414 75.0145 226.229C76.2193 227.045 75.5516 230.843 73.679 231.519C71.8064 232.195 66.7113 235.45 67.9161 237.353C69.121 239.255 75.9581 241.827 81.046 242.231C86.1339 242.635 92.4339 239.116 96.5855 238.433C100.737 237.749 111.994 236.963 117.213 232.606C118.716 231.369 119.868 229.75 120.551 227.914C121.234 226.079 121.425 224.093 121.103 222.159" stroke="#263238" stroke-linecap="round" stroke-linejoin="round"/>
<path d="M68.5548 234.502C68.5548 234.502 68.025 228.536 66.2831 228.125C64.5411 227.713 64.2726 231.798 64.5411 235.722C64.8097 239.645 66.9508 240.74 68.2863 239.652C69.6218 238.565 68.5548 234.502 68.5548 234.502Z" fill="white" stroke="#263238" stroke-linecap="round" stroke-linejoin="round"/>
<path d="M72.7427 236.184C72.7427 236.184 73.2508 230.211 71.6105 229.499C69.9702 228.786 68.9976 232.746 68.5694 236.662C68.1411 240.578 70.0718 242.033 71.5814 241.21C73.0911 240.387 72.7427 236.184 72.7427 236.184Z" fill="white" stroke="#263238" stroke-linecap="round" stroke-linejoin="round"/>
<path d="M76.3573 237.551C76.3573 237.551 76.8726 231.585 75.225 230.873C73.5774 230.16 72.6121 234.12 72.1911 238.036C71.7702 241.952 73.6863 243.407 75.196 242.576C76.7057 241.746 76.3573 237.551 76.3573 237.551Z" fill="white" stroke="#263238" stroke-linecap="round" stroke-linejoin="round"/>
<path d="M85.8363 241.959C83.4041 243.095 80.7478 243.652 78.0702 243.59C77.915 242.465 77.8254 241.332 77.8016 240.196C77.8016 238.727 80.879 232.606 85.4371 233.011" fill="white"/>
<path d="M85.8363 241.959C83.4041 243.095 80.7478 243.652 78.0702 243.59C77.915 242.465 77.8254 241.332 77.8016 240.196C77.8016 238.727 80.879 232.606 85.4371 233.011" stroke="#263238" stroke-linecap="round" stroke-linejoin="round"/>
<path d="M80.1968 239.88C80.1968 239.88 81.9024 235.207 80.4944 234.12C79.0863 233.033 77.3516 235.927 76.1395 238.969C74.9274 242.011 76.4589 243.789 78.0556 243.59C79.6524 243.392 80.1968 239.88 80.1968 239.88Z" fill="white" stroke="#263238" stroke-linecap="round" stroke-linejoin="round"/>
<path d="M190.273 218.5C190.273 218.5 192.951 217.957 197.777 220.396C202.604 222.835 207.017 227.177 209.564 228.669C212.112 230.16 213.854 231.115 216.133 228.808C218.412 226.501 223.231 220.124 227.782 220.264C232.333 220.403 233.944 226.773 233.146 228.125C232.348 229.477 231.135 229.756 230.199 228.669C229.263 227.581 228.022 225.414 226.846 226.229C225.67 227.045 226.309 230.843 228.189 231.519C230.069 232.195 235.156 235.45 233.944 237.353C232.732 239.255 225.91 241.827 220.822 242.231C215.734 242.635 209.434 239.116 205.275 238.433C201.116 237.749 189.873 236.963 184.648 232.606C183.145 231.369 181.993 229.749 181.311 227.914C180.629 226.079 180.44 224.093 180.764 222.159" fill="white"/>
<path d="M190.273 218.5C190.273 218.5 192.951 217.957 197.777 220.396C202.604 222.835 207.017 227.177 209.564 228.669C212.112 230.16 213.854 231.115 216.133 228.808C218.412 226.501 223.231 220.124 227.782 220.264C232.333 220.403 233.944 226.773 233.146 228.125C232.348 229.477 231.135 229.756 230.199 228.669C229.263 227.581 228.022 225.414 226.846 226.229C225.67 227.045 226.309 230.843 228.189 231.519C230.069 232.195 235.156 235.45 233.944 237.353C232.732 239.255 225.91 241.827 220.822 242.231C215.734 242.635 209.434 239.116 205.275 238.433C201.116 237.749 189.873 236.963 184.648 232.606C183.145 231.369 181.993 229.749 181.311 227.914C180.629 226.079 180.44 224.093 180.764 222.159" stroke="#263238" stroke-linecap="round" stroke-linejoin="round"/>
<path d="M233.277 234.502C233.277 234.502 233.814 228.536 235.556 228.125C237.298 227.713 237.566 231.798 237.298 235.722C237.029 239.645 234.888 240.74 233.545 239.652C232.202 238.565 233.277 234.502 233.277 234.502Z" fill="white" stroke="#263238" stroke-linecap="round" stroke-linejoin="round"/>
<path d="M229.096 236.184C229.096 236.184 228.581 230.211 230.221 229.499C231.861 228.786 232.841 232.746 233.262 236.662C233.683 240.578 231.774 242.033 230.257 241.224C228.74 240.416 229.096 236.184 229.096 236.184Z" fill="white" stroke="#263238" stroke-linecap="round" stroke-linejoin="round"/>
<path d="M225.474 237.551C225.474 237.551 224.966 231.585 226.606 230.873C228.247 230.16 229.227 234.12 229.648 238.036C230.068 241.952 228.145 243.407 226.643 242.576C225.14 241.746 225.474 237.551 225.474 237.551Z" fill="white" stroke="#263238" stroke-linecap="round" stroke-linejoin="round"/>
<path d="M215.995 241.959C218.436 243.098 221.103 243.656 223.79 243.59C223.945 242.465 224.035 241.332 224.059 240.196C224.059 238.727 220.974 232.606 216.416 233.011" fill="white"/>
<path d="M215.995 241.959C218.436 243.098 221.103 243.656 223.79 243.59C223.945 242.465 224.035 241.332 224.059 240.196C224.059 238.727 220.974 232.606 216.416 233.011" stroke="#263238" stroke-linecap="round" stroke-linejoin="round"/>
<path d="M221.613 239.88C221.613 239.88 219.907 235.207 221.315 234.12C222.723 233.033 224.451 235.927 225.67 238.969C226.89 242.011 225.351 243.789 223.754 243.59C222.157 243.392 221.613 239.88 221.613 239.88Z" fill="white" stroke="#263238" stroke-linecap="round" stroke-linejoin="round"/>
<path d="M164.274 111.918C162.568 109.413 159.919 111.852 159.237 112.602C158.511 111.867 155.906 109.413 154.207 111.918C152.356 114.644 159.179 120.323 159.237 120.294C159.295 120.264 166.103 114.644 164.274 111.918Z" stroke="#37DB7F" stroke-linecap="round" stroke-linejoin="round"/>
<path d="M147.327 114.167C145.196 111.263 142.326 109.001 139.023 107.62C133.71 105.519 137.173 101.317 139.481 102.478C140.97 103.218 142.513 103.842 144.097 104.344C144.097 104.344 138.094 99.4359 137.869 95.2335C137.644 91.031 144.097 96.4016 144.097 96.4016C144.097 96.4016 136.251 85.4694 138.791 83.5592C141.331 81.649 143.632 85.1975 145.251 88.2318C146.4 90.4995 147.401 92.8408 148.248 95.2408C148.248 95.2408 147.791 87.5339 150.331 89.8702C152.872 92.2065 151.253 103.888 151.253 103.888C151.253 103.888 154.715 94.3371 156.334 99.48C157.952 104.623 148.023 113.461 147.327 114.167Z" stroke="#37DB7F" stroke-linecap="round" stroke-linejoin="round"/>
<path d="M147.327 114.167C147.327 114.167 151.021 102.948 143.407 88.4522" stroke="#37DB7F" stroke-linecap="round" stroke-linejoin="round"/>
<path d="M134.661 39.6906C132.015 39.6703 129.413 40.3788 127.135 41.7404C123.506 43.9445 122.635 40.0286 124.348 39.169C125.443 38.6069 126.496 37.9635 127.498 37.2441C127.498 37.2441 121.952 38.64 119.398 36.8988C116.843 35.1575 122.86 33.6955 122.86 33.6955C122.86 33.6955 112.952 33.4898 112.996 31.1388C113.039 28.7878 116.11 28.9347 118.606 29.3608C120.442 29.6862 122.256 30.1304 124.035 30.6906C124.035 30.6906 119.332 27.5241 121.822 27.0171C124.311 26.5102 130.415 32.7184 130.415 32.7184C130.415 32.7184 126.373 26.378 130.089 27.7004C133.805 29.0229 134.56 38.9633 134.661 39.6906Z" stroke="#37DB7F" stroke-linecap="round" stroke-linejoin="round"/>
<path d="M134.661 39.6906C134.661 39.6906 129.769 32.4759 117.917 30.5657" stroke="#37DB7F" stroke-linecap="round" stroke-linejoin="round"/>
<path d="M180.503 86.1086C180.298 86.1128 180.093 86.1399 179.894 86.1894C180.201 85.893 180.433 85.5264 180.571 85.1203C180.709 84.7142 180.748 84.2805 180.686 83.8558C180.624 83.431 180.462 83.0275 180.213 82.6793C179.965 82.3311 179.638 82.0484 179.259 81.8548C178.881 81.6613 178.462 81.5627 178.037 81.5672C177.613 81.5717 177.196 81.6793 176.822 81.8809C176.447 82.0825 176.126 82.3721 175.885 82.7256C175.644 83.079 175.49 83.4858 175.437 83.9118C175.267 83.5489 175.019 83.2292 174.71 82.9765C174.402 82.7237 174.041 82.5443 173.655 82.4516C173.269 82.3588 172.867 82.3551 172.479 82.4406C172.092 82.5261 171.728 82.6987 171.415 82.9456C171.102 83.1926 170.848 83.5075 170.671 83.8672C170.494 84.2269 170.4 84.6222 170.394 85.0239C170.389 85.4256 170.473 85.8233 170.64 86.1878C170.806 86.5523 171.052 86.8742 171.358 87.1298C171.016 87.3034 170.714 87.5502 170.475 87.8531C170.236 88.1559 170.065 88.5077 169.973 88.8841C169.881 89.2605 169.871 89.6526 169.943 90.0333C170.015 90.4141 170.168 90.7745 170.391 91.0896C170.614 91.4047 170.902 91.6671 171.235 91.8587C171.568 92.0503 171.939 92.1666 172.32 92.1994C172.702 92.2322 173.086 92.1809 173.446 92.049C173.806 91.917 174.134 91.7076 174.406 91.4351C174.466 92.1083 174.776 92.7337 175.273 93.1852C175.77 93.6368 176.417 93.8811 177.085 93.869C177.753 93.8569 178.391 93.5893 178.872 93.12C179.352 92.6507 179.64 92.0146 179.676 91.3396C179.943 91.43 180.222 91.4795 180.503 91.4865C181.208 91.4865 181.883 91.2032 182.382 90.6989C182.88 90.1947 183.16 89.5107 183.16 88.7975C183.16 88.0844 182.88 87.4004 182.382 86.8961C181.883 86.3919 181.208 86.1086 180.503 86.1086V86.1086Z" stroke="#37DB7F" stroke-linecap="round" stroke-linejoin="round"/>
<path d="M175.981 90.0833C176.996 90.0833 177.818 89.251 177.818 88.2245C177.818 87.1979 176.996 86.3657 175.981 86.3657C174.967 86.3657 174.145 87.1979 174.145 88.2245C174.145 89.251 174.967 90.0833 175.981 90.0833Z" stroke="#37DB7F" stroke-linecap="round" stroke-linejoin="round"/>
<path d="M127.389 107.26C127.181 107.264 126.974 107.291 126.772 107.341C127.081 107.046 127.315 106.679 127.454 106.273C127.594 105.866 127.635 105.432 127.573 105.006C127.512 104.581 127.351 104.176 127.102 103.827C126.854 103.477 126.527 103.194 126.147 103C125.768 102.805 125.348 102.707 124.923 102.711C124.498 102.716 124.08 102.824 123.705 103.026C123.33 103.229 123.009 103.519 122.768 103.874C122.528 104.229 122.375 104.637 122.323 105.064C122.062 104.515 121.626 104.073 121.084 103.809C120.543 103.545 119.929 103.475 119.343 103.611C118.757 103.747 118.235 104.08 117.861 104.557C117.487 105.033 117.284 105.624 117.285 106.232C117.286 106.624 117.372 107.011 117.538 107.365C117.704 107.72 117.944 108.033 118.244 108.282C117.901 108.455 117.6 108.702 117.361 109.005C117.122 109.308 116.95 109.66 116.858 110.036C116.766 110.412 116.756 110.804 116.828 111.185C116.901 111.566 117.054 111.926 117.277 112.241C117.5 112.557 117.788 112.819 118.121 113.011C118.454 113.202 118.824 113.318 119.206 113.351C119.587 113.384 119.971 113.333 120.332 113.201C120.692 113.069 121.019 112.859 121.292 112.587C121.362 113.251 121.676 113.865 122.171 114.307C122.666 114.749 123.306 114.987 123.966 114.975C124.626 114.963 125.258 114.702 125.737 114.242C126.216 113.782 126.507 113.158 126.554 112.491C126.823 112.586 127.104 112.636 127.389 112.638C128.093 112.638 128.769 112.355 129.267 111.851C129.765 111.347 130.045 110.663 130.045 109.949C130.045 109.236 129.765 108.552 129.267 108.048C128.769 107.544 128.093 107.26 127.389 107.26V107.26Z" stroke="#37DB7F" stroke-linecap="round" stroke-linejoin="round"/>
<path d="M122.86 111.235C123.874 111.235 124.696 110.403 124.696 109.376C124.696 108.35 123.874 107.518 122.86 107.518C121.845 107.518 121.023 108.35 121.023 109.376C121.023 110.403 121.845 111.235 122.86 111.235Z" stroke="#37DB7F" stroke-linecap="round" stroke-linejoin="round"/>
<path d="M125.937 73.8465C125.807 73.8486 125.678 73.8659 125.552 73.8979C125.716 73.7439 125.846 73.5574 125.934 73.35C126.023 73.1427 126.069 72.919 126.068 72.693C126.088 72.2563 125.937 71.8292 125.649 71.5036C125.361 71.178 124.958 70.9799 124.527 70.9519C124.096 70.924 123.672 71.0685 123.345 71.3543C123.018 71.64 122.815 72.0443 122.78 72.48C122.674 72.2543 122.519 72.0557 122.327 71.8988C122.135 71.7418 121.91 71.6306 121.67 71.5733C121.43 71.516 121.18 71.5141 120.939 71.5677C120.698 71.6213 120.471 71.729 120.277 71.883C120.083 72.0369 119.925 72.2332 119.815 72.4571C119.706 72.6811 119.647 72.9271 119.645 73.177C119.642 73.4269 119.694 73.6742 119.799 73.9007C119.903 74.1272 120.056 74.3271 120.247 74.4857C119.974 74.6199 119.744 74.8287 119.582 75.0883C119.421 75.348 119.334 75.6482 119.332 75.9551C119.322 76.293 119.414 76.626 119.594 76.9104C119.775 77.1948 120.036 77.4171 120.344 77.5483C120.652 77.6794 120.992 77.7132 121.319 77.6452C121.646 77.5773 121.945 77.4106 122.177 77.1673C122.223 77.5806 122.42 77.9616 122.729 78.2357C123.038 78.5098 123.437 78.6572 123.847 78.6489C124.258 78.6406 124.651 78.4773 124.949 78.191C125.247 77.9046 125.429 77.516 125.458 77.1012C125.623 77.1632 125.797 77.1955 125.973 77.1967C126.412 77.1967 126.833 77.0202 127.143 76.7061C127.454 76.3919 127.628 75.9659 127.628 75.5216C127.628 75.0773 127.454 74.6513 127.143 74.3371C126.833 74.023 126.412 73.8465 125.973 73.8465H125.937Z" stroke="#37DB7F" stroke-linecap="round" stroke-linejoin="round"/>
<path d="M123.121 76.3225C123.754 76.3225 124.268 75.8027 124.268 75.1616C124.268 74.5205 123.754 74.0008 123.121 74.0008C122.488 74.0008 121.974 74.5205 121.974 75.1616C121.974 75.8027 122.488 76.3225 123.121 76.3225Z" stroke="#37DB7F" stroke-linecap="round" stroke-linejoin="round"/>
<path d="M110.978 125.143C110.851 125.145 110.724 125.162 110.601 125.194C110.762 125.039 110.89 124.852 110.977 124.645C111.065 124.438 111.109 124.215 111.109 123.989C111.107 123.567 110.947 123.161 110.66 122.853C110.374 122.546 109.983 122.36 109.567 122.333C109.15 122.306 108.739 122.44 108.416 122.708C108.094 122.976 107.883 123.358 107.828 123.776C107.721 123.552 107.566 123.356 107.374 123.2C107.182 123.045 106.958 122.935 106.719 122.879C106.48 122.822 106.231 122.821 105.991 122.874C105.751 122.928 105.526 123.035 105.332 123.188C105.138 123.341 104.981 123.536 104.871 123.759C104.761 123.981 104.702 124.226 104.698 124.474C104.694 124.723 104.745 124.97 104.847 125.196C104.949 125.422 105.099 125.622 105.288 125.782C105.076 125.891 104.89 126.044 104.742 126.232C104.594 126.421 104.488 126.639 104.431 126.872C104.375 127.106 104.368 127.349 104.413 127.585C104.458 127.821 104.553 128.045 104.691 128.241C104.829 128.436 105.007 128.599 105.214 128.718C105.42 128.838 105.649 128.911 105.886 128.932C106.123 128.953 106.361 128.922 106.585 128.841C106.808 128.76 107.012 128.632 107.182 128.464C107.228 128.877 107.425 129.258 107.734 129.532C108.043 129.806 108.442 129.954 108.852 129.945C109.263 129.937 109.656 129.774 109.954 129.487C110.252 129.201 110.433 128.812 110.463 128.398C110.628 128.459 110.802 128.491 110.978 128.493C111.417 128.493 111.838 128.317 112.148 128.002C112.459 127.688 112.633 127.262 112.633 126.818C112.633 126.374 112.459 125.948 112.148 125.634C111.838 125.319 111.417 125.143 110.978 125.143V125.143Z" stroke="#37DB7F" stroke-linecap="round" stroke-linejoin="round"/>
<path d="M108.162 127.619C108.795 127.619 109.309 127.099 109.309 126.458C109.309 125.817 108.795 125.297 108.162 125.297C107.529 125.297 107.015 125.817 107.015 126.458C107.015 127.099 107.529 127.619 108.162 127.619Z" stroke="#37DB7F" stroke-linecap="round" stroke-linejoin="round"/>
<path d="M143.102 46.009C142.975 46.0112 142.848 46.0284 142.725 46.0604C142.915 45.8762 143.059 45.6485 143.144 45.3964C143.229 45.1444 143.254 44.8753 143.215 44.6117C143.177 44.3482 143.076 44.0978 142.923 43.8816C142.769 43.6653 142.566 43.4895 142.331 43.3689C142.097 43.2482 141.837 43.1863 141.574 43.1882C141.311 43.19 141.052 43.2557 140.819 43.3797C140.586 43.5037 140.385 43.6824 140.235 43.9008C140.084 44.1192 139.987 44.371 139.952 44.6351C139.791 44.2918 139.519 44.0145 139.181 43.8493C138.842 43.684 138.459 43.6406 138.093 43.7263C137.727 43.8121 137.401 44.0218 137.169 44.3206C136.937 44.6195 136.813 44.9897 136.817 45.3698C136.817 45.6131 136.87 45.8534 136.973 46.0733C137.076 46.2931 137.226 46.487 137.412 46.6408C137.077 46.8063 136.807 47.0819 136.647 47.4226C136.487 47.7633 136.445 48.149 136.53 48.5165C136.614 48.8841 136.819 49.2119 137.111 49.4464C137.403 49.6808 137.765 49.8081 138.138 49.8074C138.352 49.8076 138.565 49.7648 138.763 49.6816C138.961 49.5984 139.141 49.4763 139.292 49.3225C139.337 49.7357 139.533 50.117 139.841 50.3916C140.149 50.6662 140.548 50.8144 140.959 50.807C141.369 50.7997 141.762 50.6373 142.061 50.3518C142.359 50.0663 142.542 49.6783 142.573 49.2637C142.739 49.3215 142.912 49.3537 143.088 49.3592C143.527 49.3592 143.948 49.1827 144.258 48.8686C144.568 48.5544 144.743 48.1284 144.743 47.6841C144.743 47.2398 144.568 46.8138 144.258 46.4996C143.948 46.1855 143.527 46.009 143.088 46.009H143.102Z" stroke="#37DB7F" stroke-linecap="round" stroke-linejoin="round"/>
<path d="M140.286 48.4849C140.92 48.4849 141.433 47.9651 141.433 47.3241C141.433 46.683 140.92 46.1632 140.286 46.1632C139.653 46.1632 139.14 46.683 139.14 47.3241C139.14 47.9651 139.653 48.4849 140.286 48.4849Z" stroke="#37DB7F" stroke-linecap="round" stroke-linejoin="round"/>
<path d="M178.558 56.5812C178.428 56.5834 178.299 56.6006 178.173 56.6327C178.337 56.4787 178.467 56.2921 178.555 56.0848C178.644 55.8774 178.69 55.6537 178.689 55.4278C178.709 54.9911 178.558 54.564 178.27 54.2383C177.982 53.9127 177.579 53.7146 177.148 53.6867C176.717 53.6587 176.293 53.8032 175.966 54.089C175.639 54.3748 175.436 54.779 175.401 55.2147C175.295 54.9891 175.14 54.7904 174.948 54.6335C174.756 54.4766 174.531 54.3653 174.291 54.308C174.051 54.2507 173.801 54.2488 173.56 54.3024C173.319 54.356 173.092 54.4638 172.898 54.6177C172.704 54.7717 172.546 54.9679 172.436 55.1919C172.327 55.4159 172.268 55.6619 172.266 55.9117C172.263 56.1616 172.315 56.4089 172.42 56.6355C172.524 56.862 172.677 57.0619 172.868 57.2204C172.595 57.3547 172.365 57.5634 172.203 57.8231C172.042 58.0827 171.955 58.3829 171.953 58.6898C171.954 59.0189 172.05 59.3405 172.23 59.6146C172.41 59.8886 172.666 60.1028 172.966 60.2306C173.265 60.3583 173.595 60.3939 173.915 60.3329C174.234 60.2718 174.529 60.1169 174.762 59.8874C174.808 60.3006 175.005 60.6817 175.313 60.9558C175.622 61.2299 176.021 61.3772 176.432 61.3689C176.843 61.3607 177.236 61.1973 177.534 60.911C177.832 60.6247 178.013 60.236 178.043 59.8212C178.208 59.8832 178.382 59.9156 178.558 59.9168C178.997 59.9168 179.418 59.7403 179.728 59.4261C180.039 59.112 180.213 58.6859 180.213 58.2417C180.213 57.7974 180.039 57.3713 179.728 57.0572C179.418 56.743 178.997 56.5666 178.558 56.5666V56.5812Z" stroke="#37DB7F" stroke-linecap="round" stroke-linejoin="round"/>
<path d="M175.742 59.0571C176.375 59.0571 176.889 58.5374 176.889 57.8963C176.889 57.2552 176.375 56.7355 175.742 56.7355C175.109 56.7355 174.595 57.2552 174.595 57.8963C174.595 58.5374 175.109 59.0571 175.742 59.0571Z" stroke="#37DB7F" stroke-linecap="round" stroke-linejoin="round"/>
<path d="M157.016 78.1225C157.94 75.5814 159.074 73.1237 160.406 70.7755C162.097 68.0792 168.143 67.5943 168.143 67.5943C168.143 67.5943 165 72.7371 163.548 75.1837C162.097 77.6302 157.016 78.1225 157.016 78.1225Z" stroke="#37DB7F" stroke-linecap="round" stroke-linejoin="round"/>
<path d="M157.016 78.1225C157.016 78.1225 161.61 71.5102 166.938 68.329" stroke="#37DB7F" stroke-linecap="round" stroke-linejoin="round"/>
<path d="M87.2443 101.956C89.853 101.358 92.5067 100.982 95.1774 100.832C98.3274 100.832 102.036 105.666 102.036 105.666C102.036 105.666 96.0556 105.798 93.2395 105.901C90.4234 106.004 87.2443 101.956 87.2443 101.956Z" stroke="#37DB7F" stroke-linecap="round" stroke-linejoin="round"/>
<path d="M87.2443 101.956C87.2443 101.956 95.2282 102.257 100.766 105.034" stroke="#37DB7F" stroke-linecap="round" stroke-linejoin="round"/>
<path d="M194.925 96.3649C194.925 96.3649 193.749 90.8327 191.187 91.1559C188.625 91.4792 190.694 97.9886 190.694 97.9886C190.694 97.9886 187.326 98.9584 187.485 100.42C187.645 101.882 190.04 100.663 192.116 100.34C192.116 100.34 191.281 104.138 193.524 104.748C195.767 105.358 195.339 99.7372 195.339 99.7372C195.339 99.7372 200.347 100.773 201.755 98.5029C203.388 95.8947 197.008 96.0343 194.925 96.3649Z" stroke="#37DB7F" stroke-linecap="round" stroke-linejoin="round"/>
<path d="M194.925 94.6604C194.925 94.6604 190.251 101.853 190.527 102.61C190.802 103.367 195.861 96.3649 196.703 95.5126C197.545 94.6604 196.05 93.4261 194.925 94.6604Z" fill="#263238" stroke="#37DB7F" stroke-linecap="round" stroke-linejoin="round"/>
<path d="M196.703 95.5126C196.703 95.5126 199.788 92.6693 201.283 93.8081C202.778 94.9469 201.007 95.1306 200.819 94.7559" stroke="#37DB7F" stroke-linecap="round" stroke-linejoin="round"/>
<path d="M195.208 94.0873C195.208 94.0873 196.05 89.9216 195.114 89.0694C194.177 88.2171 193.8 89.3559 194.46 90.0171" stroke="#37DB7F" stroke-linecap="round" stroke-linejoin="round"/>
<path d="M150.484 61.6359C147.987 57.9625 144.126 61.5404 143.088 62.6351C142.043 61.5404 138.181 57.9478 135.685 61.6359C132.963 65.64 142.994 73.9861 143.088 73.9494C143.182 73.9127 153.191 65.6327 150.484 61.6359Z" stroke="#37DB7F" stroke-linecap="round" stroke-linejoin="round"/>
<path d="M115.841 47.3094C113.257 45.7518 111.885 49.08 111.544 50.0498C110.593 49.6751 107.189 48.5804 106.689 51.5632C106.137 54.8179 114.673 57.0955 114.723 57.0441C114.774 56.9926 118.643 48.9992 115.841 47.3094Z" stroke="#37DB7F" stroke-linecap="round" stroke-linejoin="round"/>
<path d="M91.7516 77.6082C88.754 77.3804 88.9863 80.9804 89.1169 82.0163C88.1008 82.1118 84.5734 82.6482 85.4371 85.5575C86.3734 88.7241 95.025 86.902 95.0395 86.8359C95.054 86.7698 95.0032 77.858 91.7516 77.6082Z" stroke="#37DB7F" stroke-linecap="round" stroke-linejoin="round"/>
<path d="M186.898 125.202C189.278 123.343 186.731 120.793 185.961 120.147C186.687 119.412 188.93 116.606 186.368 115.004C183.581 113.278 178.34 120.478 178.384 120.536C178.427 120.595 184.314 127.215 186.898 125.202Z" stroke="#37DB7F" stroke-linecap="round" stroke-linejoin="round"/>
<path d="M173.02 75.7568C174.646 74.229 176.465 72.9247 178.427 71.8776" stroke="#37DB7F" stroke-linecap="round" stroke-linejoin="round"/>
<path d="M159.556 105.306C159.556 105.306 161.255 90.6783 169.21 80.0253" stroke="#37DB7F" stroke-linecap="round" stroke-linejoin="round"/>
<path d="M138.102 111.514C138.788 112.589 139.408 113.706 139.96 114.857" stroke="#37DB7F" stroke-linecap="round" stroke-linejoin="round"/>
<path d="M111.08 94.1534C112.124 94.9981 113.299 95.6633 114.556 96.1224C120.298 98.3265 128.31 100.531 134.545 107.011" stroke="#37DB7F" stroke-linecap="round" stroke-linejoin="round"/>
<path d="M108.387 87.3061C108.105 88.8471 108.361 90.4395 109.113 91.8098" stroke="#37DB7F" stroke-linecap="round" stroke-linejoin="round"/>
<path d="M175.459 49.1461C177.283 47.4678 178.782 45.4595 179.879 43.2245" stroke="#37DB7F" stroke-linecap="round" stroke-linejoin="round"/>
<path d="M153.953 70.6139C155.135 67.6076 156.782 64.8103 158.831 62.3265C162.96 57.3526 167.41 54.9796 171.365 52.2979" stroke="#37DB7F" stroke-linecap="round" stroke-linejoin="round"/>
<path d="M151.573 82.5306C151.572 80.8052 151.73 79.0836 152.044 77.3878" stroke="#37DB7F" stroke-linecap="round" stroke-linejoin="round"/>
<path d="M174.203 112.344C177.223 110.802 181.461 109.641 187.137 110.082C201.29 111.184 207.823 115.592 213.992 107.143" stroke="#37DB7F" stroke-linecap="round" stroke-linejoin="round"/>
<path d="M167.903 117.796C168.555 116.776 169.347 115.856 170.255 115.063" stroke="#37DB7F" stroke-linecap="round" stroke-linejoin="round"/>
<path d="M197.995 79.1143H196.057C194.889 79.1143 192.755 77.7404 193.727 76.5576C194.7 75.3747 197.995 78.1298 197.995 78.1298L195.092 68.8947L201.305 65.9559L203.831 74.6033C203.831 74.6033 199.948 73.031 199.556 74.7943C199.164 76.5576 202.081 76.3665 203.831 75.5804" stroke="#37DB7F" stroke-linecap="round" stroke-linejoin="round"/>
<path d="M195.665 70.8563L201.682 67.9102" stroke="#37DB7F" stroke-linecap="round" stroke-linejoin="round"/>
<path d="M211.343 76.1755H210.065C209.289 76.1755 207.888 75.2645 208.519 74.4857C209.151 73.7069 211.343 75.5216 211.343 75.5216L209.419 69.4163L213.527 67.4694L215.197 73.1853C215.197 73.1853 212.627 72.1494 212.373 73.3175C212.119 74.4857 214.043 74.3534 215.197 73.8318" stroke="#37DB7F" stroke-linecap="round" stroke-linejoin="round"/>
<path d="M209.804 70.7167L213.781 68.7698" stroke="#37DB7F" stroke-linecap="round" stroke-linejoin="round"/>
<path d="M98.4798 69.5633H97.2024C96.4258 69.5633 95.025 68.6522 95.6564 67.8735C96.2879 67.0947 98.4798 68.9094 98.4798 68.9094L96.5564 62.8041L100.664 60.8571L102.334 66.573C102.334 66.573 99.7645 65.5371 99.5105 66.7053C99.2564 67.8735 101.18 67.7412 102.334 67.2196" stroke="#37DB7F" stroke-linecap="round" stroke-linejoin="round"/>
<path d="M96.9411 64.1045L100.919 62.1575" stroke="#37DB7F" stroke-linecap="round" stroke-linejoin="round"/>
<path d="M220.161 90.2155C220.161 90.2155 225.416 88.6139 224.581 85.4694C223.856 82.8098 221.402 85.4694 221.402 85.4694C221.402 85.4694 222.927 82.9714 220.677 81.7959C218.427 80.6204 217.773 83.8383 217.773 83.8383C217.773 83.8383 217.323 80.8555 215.277 82.2294C213.23 83.6032 217.548 90.9649 217.548 90.9649L220.161 90.2155Z" stroke="#37DB7F" stroke-linecap="round" stroke-linejoin="round"/>
<path d="M213.426 101.567C215.481 98.3561 216.871 94.757 217.512 90.987L219.748 83.9927" stroke="#37DB7F" stroke-linecap="round" stroke-linejoin="round"/>
<path d="M216.148 96.0489C216.366 94.6015 216.042 93.1239 215.24 91.9053C214.439 90.5427 213.446 89.3053 212.294 88.2318C212.294 88.2318 211.611 90.7592 212.061 92.3681C212.511 93.9771 216.148 96.0489 216.148 96.0489Z" stroke="#37DB7F" stroke-linecap="round" stroke-linejoin="round"/>
<path d="M215.473 97.8857C216.355 97.1181 217.488 96.7097 218.652 96.7396H222.963C222.963 96.7396 217.512 101.104 215.473 97.8857Z" stroke="#37DB7F" stroke-linecap="round" stroke-linejoin="round"/>
<path d="M216.815 85.1755L217.498 90.6122L221.308 87.7469" stroke="#37DB7F" stroke-linecap="round" stroke-linejoin="round"/>
<path d="M97.8411 113.924C97.8411 113.924 94.4008 109.604 91.8387 111.566C89.6612 113.233 93.0363 114.549 93.0363 114.549C93.0363 114.549 90.1693 114.064 89.9733 116.628C89.7774 119.192 92.9274 118.531 92.9274 118.531C92.9274 118.531 90.3653 120.081 92.3975 121.469C94.4298 122.858 99.5395 116.047 99.5395 116.047L97.8411 113.924Z" stroke="#37DB7F" stroke-linecap="round" stroke-linejoin="round"/>
<path d="M110.753 115.944C107.044 115.223 103.229 115.273 99.5395 116.091L92.2814 116.635" stroke="#37DB7F" stroke-linecap="round" stroke-linejoin="round"/>
<path d="M104.678 115.467C103.273 115.808 102.044 116.667 101.231 117.877C100.286 119.143 99.5276 120.541 98.9806 122.028C98.9806 122.028 101.55 121.719 102.849 120.683C104.148 119.647 104.678 115.467 104.678 115.467Z" stroke="#37DB7F" stroke-linecap="round" stroke-linejoin="round"/>
<path d="M106.616 115.415C105.58 114.878 104.778 113.969 104.366 112.866C103.604 110.949 102.748 108.818 102.748 108.818C102.748 108.818 108.794 112.286 106.616 115.415Z" stroke="#37DB7F" stroke-linecap="round" stroke-linejoin="round"/>
<path d="M94.4806 118.935L99.1983 116.246L95.1411 113.755" stroke="#37DB7F" stroke-linecap="round" stroke-linejoin="round"/>
<path d="M132.948 95.4539C132.731 94.9519 132.489 94.4614 132.223 93.9845C130.923 91.5673 129.014 89.4441 126.017 89.8775C120.936 90.6122 130.372 98.6939 132.07 98.9363C134.16 99.2376 133.623 97.0849 132.948 95.4539Z" fill="#37DB7F"/>
<path d="M129.08 65.0889C128.819 64.4645 128.543 63.9208 128.354 63.6196C127.048 61.1951 125.146 59.0792 122.148 59.5126C117.068 60.2473 126.503 68.3289 128.202 68.5714C130.292 68.8726 129.755 66.7126 129.08 65.0889Z" fill="#37DB7F"/>
<path d="M180.148 98.4367C179.502 98.6277 178.935 98.8481 178.623 98.973C176.098 100.002 173.797 101.677 173.877 104.74C174.014 109.935 183.029 101.375 183.464 99.693C183.994 97.6579 181.817 97.9591 180.148 98.4367Z" fill="#37DB7F"/>
<path d="M186.68 71.0106C186.163 71.1624 185.654 71.3415 185.156 71.5469C182.63 72.5755 180.329 74.2433 180.409 77.3069C180.547 82.5012 189.561 73.942 189.997 72.2669C190.527 70.2245 188.349 70.5184 186.68 71.0106Z" fill="#37DB7F"/>
<path d="M223.877 69.3061C223.362 69.4555 222.856 69.6346 222.36 69.8424C219.835 70.871 217.534 72.5388 217.614 75.6025C217.752 80.7968 226.766 72.2375 227.202 70.5624C227.731 68.4979 225.554 68.7918 223.877 69.3061Z" fill="#37DB7F"/>
<path d="M121.88 94.2857C121.779 94.0349 121.665 93.7897 121.539 93.551C120.907 92.3755 119.978 91.3469 118.512 91.5453C116.03 91.9053 120.639 95.8506 121.466 95.9535C122.475 96.1298 122.214 95.0792 121.88 94.2857Z" fill="#37DB7F"/>
<path d="M104.163 75.2277C103.916 75.0147 103.669 74.8384 103.539 74.7428C102.443 73.9714 101.158 73.4718 99.9459 74.3241C97.8846 75.7935 103.749 77.2041 104.54 76.9396C105.484 76.609 104.809 75.7935 104.163 75.2277Z" fill="#37DB7F"/>
<path d="M130.35 84.2424C130.25 83.9914 130.136 83.7461 130.009 83.5077C129.37 82.3249 128.441 81.3037 126.982 81.502C124.5 81.862 129.109 85.8 129.936 85.9102C130.938 86.0939 130.677 85.0359 130.35 84.2424Z" fill="#37DB7F"/>
<path d="M87.6217 67.6971C87.5224 67.4457 87.4085 67.2003 87.2806 66.9624C86.6491 65.7796 85.7201 64.7584 84.254 64.9567C81.7717 65.3167 86.3806 69.262 87.208 69.3649C88.2169 69.5412 87.9556 68.4906 87.6217 67.6971Z" fill="#37DB7F"/>
<path d="M99.1693 93.4335C98.935 93.2896 98.6927 93.1596 98.4435 93.0441C97.2532 92.4563 95.9032 92.1625 94.8145 93.191C93 94.9469 99.0169 95.4465 99.7572 95.0571C100.715 94.5869 99.8952 93.8816 99.1693 93.4335Z" fill="#37DB7F"/>
<path d="M128.173 55.3469C128.072 55.0961 127.958 54.8509 127.831 54.6122C127.193 53.4367 126.264 52.4081 124.805 52.6065C122.323 52.9665 126.931 56.9118 127.759 57.0147C128.76 57.191 128.499 56.1404 128.173 55.3469Z" fill="#37DB7F"/>
<path d="M155.47 85.2049C155.274 85.462 155.107 85.7118 155.02 85.8514C154.294 86.9829 153.852 88.3127 154.744 89.5249C156.254 91.5527 157.444 85.5649 157.147 84.7714C156.784 83.7869 156 84.529 155.47 85.2049Z" fill="#37DB7F"/>
<path d="M167.083 100.633C166.887 100.891 166.72 101.14 166.633 101.28C165.907 102.411 165.464 103.741 166.357 104.953C167.867 106.981 169.057 100.993 168.76 100.2C168.397 99.2155 167.613 99.9575 167.083 100.633Z" fill="#37DB7F"/>
<path d="M183.254 60.4898C183.008 60.5575 182.766 60.6384 182.528 60.7322C181.287 61.2098 180.148 62.0032 180.155 63.4947C180.155 66.0294 184.655 61.9518 184.887 61.1363C185.141 60.1077 184.081 60.2253 183.254 60.4898Z" fill="#37DB7F"/>
<path d="M155.223 51.2547C154.991 51.4825 154.788 51.7029 154.679 51.8278C153.801 52.8343 153.155 54.0759 153.859 55.391C155.042 57.5951 157.118 51.8939 156.951 51.071C156.74 50.0571 155.848 50.6669 155.223 51.2547Z" fill="#37DB7F"/>
<path d="M105.179 103.102C105.368 103.285 105.566 103.456 105.774 103.616C106.827 104.447 108.09 105.012 109.345 104.226C111.472 102.896 105.716 101.148 104.889 101.375C103.909 101.633 104.562 102.492 105.179 103.102Z" fill="#37DB7F"/>
<path d="M195.861 60.7616C195.542 60.7616 195.244 60.7616 195.077 60.7616C193.749 60.8424 192.428 61.2539 191.993 62.6792C191.267 65.1037 196.747 62.569 197.204 61.8637C197.763 61.0041 196.718 60.7984 195.861 60.7616Z" fill="#37DB7F"/>
</svg>
