<svg width="400" height="400" viewBox="0 0 400 400" fill="none" xmlns="http://www.w3.org/2000/svg">
<path d="M327.304 82.4C307.4 37.016 259.624 19.928 221.928 50.4C207.208 62.288 198.024 81.208 180 88.8C163.088 95.92 141.664 93.824 123.376 97.68C84.432 105.84 32 136.8 36 184.504C37.752 205.4 51.848 228.608 58.816 248.16C66.816 270.656 71.616 298.8 92.792 312.248C129.096 335.336 172.888 316.464 205.592 297.848C223.192 287.84 232.88 281.688 251.832 285.12C269.376 288.32 285.176 299.52 302.32 286.232C315.192 276.256 316.256 256.04 327.064 244.168C339.24 230.792 351.584 229.824 357.912 209.72C365.584 185.328 354.28 170.088 346.64 148.296C339 126.504 336.68 103.752 327.304 82.4Z" fill="#008FFF"/>
<g opacity="0.7">
<path opacity="0.7" d="M327.304 82.4C307.4 37.016 259.624 19.928 221.928 50.4C207.208 62.288 198.024 81.208 180 88.8C163.088 95.92 141.664 93.824 123.376 97.68C84.432 105.84 32 136.8 36 184.504C37.752 205.4 51.848 228.608 58.816 248.16C66.816 270.656 71.616 298.8 92.792 312.248C129.096 335.336 172.888 316.464 205.592 297.848C223.192 287.84 232.88 281.688 251.832 285.12C269.376 288.32 285.176 299.52 302.32 286.232C315.192 276.256 316.256 256.04 327.064 244.168C339.24 230.792 351.584 229.824 357.912 209.72C365.584 185.328 354.28 170.088 346.64 148.296C339 126.504 336.68 103.752 327.304 82.4Z" fill="white"/>
</g>
<path d="M175.848 350.144C244.146 350.144 299.512 346.695 299.512 342.44C299.512 338.185 244.146 334.736 175.848 334.736C107.55 334.736 52.184 338.185 52.184 342.44C52.184 346.695 107.55 350.144 175.848 350.144Z" fill="#008FFF"/>
<path opacity="0.8" d="M175.848 350.144C244.146 350.144 299.512 346.695 299.512 342.44C299.512 338.185 244.146 334.736 175.848 334.736C107.55 334.736 52.184 338.185 52.184 342.44C52.184 346.695 107.55 350.144 175.848 350.144Z" fill="white"/>
<path d="M268.776 49.488H144.432C135.847 49.488 128.888 56.4473 128.888 65.032V327.544C128.888 336.129 135.847 343.088 144.432 343.088H268.776C277.361 343.088 284.32 336.129 284.32 327.544V65.032C284.32 56.4473 277.361 49.488 268.776 49.488Z" fill="#263238"/>
<path d="M277.408 81.728H135.792V310.848H277.408V81.728Z" fill="white" stroke="#263238" stroke-width="1.33739" stroke-miterlimit="10"/>
<path d="M228.309 174.505C240.297 162.518 240.297 143.082 228.309 131.095C216.322 119.107 196.886 119.107 184.899 131.095C172.911 143.082 172.911 162.518 184.899 174.505C196.886 186.493 216.322 186.493 228.309 174.505Z" fill="#008FFF"/>
<path d="M246.904 296.44H166.312C166.131 296.441 165.951 296.406 165.783 296.338C165.615 296.269 165.462 296.168 165.334 296.04C165.205 295.912 165.103 295.76 165.033 295.592C164.964 295.425 164.928 295.245 164.928 295.064C164.927 294.882 164.962 294.701 165.031 294.533C165.1 294.365 165.202 294.212 165.331 294.083C165.46 293.954 165.613 293.852 165.781 293.783C165.95 293.714 166.13 293.679 166.312 293.68H246.904C247.085 293.68 247.265 293.716 247.432 293.785C247.6 293.855 247.752 293.957 247.88 294.086C248.008 294.214 248.109 294.367 248.178 294.535C248.246 294.703 248.281 294.883 248.28 295.064C248.28 295.429 248.135 295.779 247.877 296.037C247.619 296.295 247.269 296.44 246.904 296.44Z" fill="#008FFF"/>
<path d="M249.528 200.752H163.68C161.908 200.752 160.472 202.188 160.472 203.96V214.08C160.472 215.852 161.908 217.288 163.68 217.288H249.528C251.3 217.288 252.736 215.852 252.736 214.08V203.96C252.736 202.188 251.3 200.752 249.528 200.752Z" fill="#008FFF"/>
<path d="M249.528 231.68H163.68C161.908 231.68 160.472 233.116 160.472 234.888V245.008C160.472 246.78 161.908 248.216 163.68 248.216H249.528C251.3 248.216 252.736 246.78 252.736 245.008V234.888C252.736 233.116 251.3 231.68 249.528 231.68Z" fill="#008FFF"/>
<path d="M221.888 168.112L212.856 162.912V158.616C214.164 157.034 215.111 155.186 215.632 153.2C215.943 153.31 216.27 153.367 216.6 153.368C217.72 153.368 218.432 149.896 218.552 147.416C219.856 144.656 218.08 143.04 218.08 143.04C218.08 143.04 218.816 142.304 219.304 139.352C219.792 136.4 217.584 137.632 215.864 134.928C214.144 132.224 212.912 129.28 207.264 129.28C205.708 129.229 204.172 129.647 202.857 130.48C201.541 131.313 200.507 132.523 199.888 133.952C198.482 133.957 197.081 134.121 195.712 134.44C193.984 134.928 193.496 140.584 194.968 142.8C195.627 144.011 195.979 145.365 195.992 146.744C195.6 146.264 195.192 146.136 194.968 147.224C194.48 149.68 196.448 153.12 196.448 153.12L197.464 152.832C197.976 154.954 198.963 156.932 200.352 158.616V162.912L191.32 168.112C190.265 168.721 189.389 169.597 188.78 170.651C188.17 171.706 187.849 172.902 187.848 174.12V177.096C193.22 181.246 199.816 183.497 206.604 183.497C213.392 183.497 219.988 181.246 225.36 177.096V174.12C225.361 172.902 225.04 171.705 224.43 170.65C223.821 169.595 222.944 168.72 221.888 168.112Z" fill="#263238"/>
<path d="M172.16 244.104C171.953 244.101 171.755 244.018 171.608 243.872C171.529 243.802 171.466 243.715 171.424 243.619C171.381 243.522 171.359 243.418 171.36 243.312C171.362 243.168 171.404 243.027 171.48 242.904L172.92 240.6L170.112 240.688C170.006 240.695 169.9 240.679 169.801 240.642C169.702 240.604 169.611 240.547 169.536 240.472C169.406 240.326 169.333 240.136 169.333 239.94C169.333 239.744 169.406 239.555 169.536 239.408C169.61 239.331 169.7 239.271 169.799 239.232C169.899 239.193 170.005 239.177 170.112 239.184L172.88 239.288L171.456 236.992C171.379 236.867 171.337 236.723 171.336 236.576C171.335 236.47 171.357 236.366 171.4 236.269C171.442 236.173 171.505 236.086 171.584 236.016C171.731 235.87 171.929 235.787 172.136 235.784C172.272 235.785 172.406 235.824 172.52 235.898C172.635 235.972 172.726 236.076 172.784 236.2L174.152 238.672L175.504 236.216C175.568 236.085 175.667 235.974 175.79 235.895C175.912 235.816 176.054 235.772 176.2 235.768C176.301 235.769 176.401 235.79 176.493 235.832C176.586 235.873 176.668 235.933 176.736 236.008C176.883 236.16 176.963 236.365 176.96 236.576C176.96 236.713 176.924 236.848 176.856 236.968L175.408 239.288L178.216 239.184C178.323 239.177 178.429 239.193 178.529 239.232C178.629 239.271 178.718 239.331 178.792 239.408C178.928 239.55 179.003 239.739 179 239.936C178.999 240.134 178.925 240.325 178.792 240.472C178.717 240.547 178.626 240.604 178.527 240.642C178.428 240.679 178.322 240.695 178.216 240.688L175.392 240.6L176.8 242.88C176.879 243.007 176.92 243.154 176.92 243.304C176.92 243.516 176.836 243.72 176.686 243.87C176.536 244.02 176.332 244.104 176.12 244.104C175.983 244.102 175.849 244.06 175.736 243.984C175.622 243.907 175.533 243.799 175.48 243.672L174.144 241.272L172.816 243.672C172.757 243.798 172.665 243.904 172.549 243.981C172.433 244.057 172.299 244.1 172.16 244.104Z" fill="#263238"/>
<path d="M185.136 244.104C184.929 244.101 184.731 244.018 184.584 243.872C184.505 243.802 184.442 243.715 184.4 243.619C184.357 243.522 184.335 243.418 184.336 243.312C184.338 243.168 184.38 243.027 184.456 242.904L185.896 240.6L183.096 240.688C182.989 240.693 182.882 240.676 182.782 240.639C182.682 240.602 182.59 240.545 182.512 240.472C182.406 240.362 182.335 240.224 182.309 240.073C182.283 239.923 182.303 239.768 182.366 239.629C182.429 239.49 182.532 239.373 182.662 239.294C182.792 239.215 182.944 239.176 183.096 239.184L185.856 239.288L184.432 236.992C184.355 236.867 184.313 236.723 184.312 236.576C184.311 236.47 184.333 236.366 184.376 236.269C184.418 236.173 184.481 236.086 184.56 236.016C184.707 235.87 184.905 235.787 185.112 235.784C185.248 235.785 185.382 235.824 185.496 235.898C185.611 235.972 185.702 236.076 185.76 236.2L187.128 238.672L188.48 236.216C188.544 236.085 188.643 235.974 188.766 235.895C188.888 235.816 189.03 235.772 189.176 235.768C189.277 235.768 189.377 235.789 189.47 235.83C189.562 235.872 189.645 235.932 189.712 236.008C189.786 236.083 189.845 236.171 189.885 236.269C189.924 236.366 189.945 236.471 189.944 236.576C189.941 236.714 189.903 236.849 189.832 236.968L188.384 239.288L191.2 239.2C191.305 239.193 191.411 239.209 191.509 239.248C191.607 239.287 191.696 239.347 191.768 239.424C191.904 239.566 191.979 239.755 191.976 239.952C191.975 240.15 191.901 240.341 191.768 240.488C191.694 240.562 191.605 240.62 191.507 240.657C191.409 240.695 191.305 240.711 191.2 240.704L188.368 240.616L189.776 242.896C189.855 243.023 189.896 243.17 189.896 243.32C189.896 243.532 189.812 243.736 189.662 243.886C189.512 244.036 189.308 244.12 189.096 244.12C188.959 244.118 188.825 244.076 188.712 244C188.598 243.923 188.509 243.815 188.456 243.688L187.12 241.288L185.792 243.688C185.731 243.81 185.637 243.914 185.522 243.987C185.406 244.061 185.273 244.101 185.136 244.104Z" fill="#263238"/>
<path d="M198.12 244.104C197.91 244.103 197.709 244.02 197.56 243.872C197.481 243.802 197.418 243.715 197.376 243.619C197.333 243.522 197.311 243.418 197.312 243.312C197.314 243.168 197.356 243.027 197.432 242.904L198.872 240.6L196.072 240.688C195.921 240.694 195.772 240.655 195.644 240.576C195.515 240.497 195.413 240.381 195.35 240.244C195.288 240.107 195.267 239.954 195.292 239.805C195.316 239.656 195.385 239.518 195.488 239.408C195.564 239.331 195.655 239.271 195.756 239.232C195.856 239.194 195.964 239.177 196.072 239.184L198.832 239.288L197.408 236.992C197.331 236.867 197.289 236.723 197.288 236.576C197.291 236.471 197.314 236.367 197.356 236.271C197.399 236.175 197.46 236.088 197.536 236.016C197.685 235.868 197.886 235.785 198.096 235.784C198.231 235.786 198.362 235.827 198.476 235.9C198.589 235.974 198.679 236.078 198.736 236.2L200.104 238.672L201.456 236.216C201.52 236.085 201.619 235.974 201.742 235.895C201.864 235.816 202.006 235.772 202.152 235.768C202.253 235.768 202.353 235.789 202.446 235.83C202.538 235.872 202.621 235.932 202.688 236.008C202.762 236.083 202.821 236.171 202.861 236.269C202.9 236.366 202.921 236.471 202.92 236.576C202.917 236.714 202.879 236.849 202.808 236.968L201.36 239.288L204.176 239.184C204.28 239.174 204.384 239.186 204.483 239.219C204.581 239.253 204.671 239.307 204.747 239.378C204.823 239.449 204.883 239.536 204.922 239.632C204.962 239.728 204.98 239.832 204.976 239.936C204.978 240.133 204.906 240.324 204.776 240.472C204.701 240.547 204.61 240.604 204.511 240.642C204.412 240.679 204.306 240.695 204.2 240.688L201.376 240.6L202.776 242.88C202.855 243.007 202.896 243.154 202.896 243.304C202.893 243.409 202.87 243.513 202.828 243.609C202.785 243.705 202.724 243.792 202.648 243.864C202.578 243.939 202.494 243.999 202.401 244.04C202.307 244.081 202.206 244.103 202.104 244.104C201.968 244.102 201.836 244.06 201.723 243.983C201.611 243.906 201.524 243.798 201.472 243.672L200.128 241.272L198.8 243.672C198.74 243.802 198.644 243.911 198.524 243.988C198.403 244.065 198.263 244.105 198.12 244.104Z" fill="#263238"/>
<path d="M211.096 244.104C210.886 244.103 210.685 244.02 210.536 243.872C210.385 243.724 210.299 243.523 210.296 243.312C210.294 243.168 210.332 243.027 210.408 242.904L211.848 240.6L209.048 240.688C208.941 240.693 208.834 240.676 208.734 240.639C208.634 240.602 208.542 240.545 208.464 240.472C208.334 240.326 208.261 240.136 208.261 239.94C208.261 239.744 208.334 239.555 208.464 239.408C208.541 239.333 208.633 239.275 208.733 239.237C208.834 239.198 208.941 239.18 209.048 239.184L211.816 239.288L210.4 236.992C210.323 236.867 210.281 236.723 210.28 236.576C210.283 236.471 210.306 236.367 210.348 236.271C210.391 236.175 210.452 236.088 210.528 236.016C210.677 235.868 210.878 235.785 211.088 235.784C211.224 235.785 211.358 235.824 211.472 235.898C211.587 235.972 211.678 236.076 211.736 236.2L213.096 238.672L214.448 236.216C214.512 236.085 214.611 235.974 214.734 235.895C214.856 235.816 214.998 235.772 215.144 235.768C215.245 235.768 215.345 235.789 215.438 235.83C215.53 235.872 215.613 235.932 215.68 236.008C215.754 236.083 215.813 236.171 215.853 236.269C215.892 236.366 215.913 236.471 215.912 236.576C215.909 236.714 215.871 236.849 215.8 236.968L214.352 239.288L217.168 239.184C217.272 239.174 217.376 239.186 217.475 239.219C217.573 239.253 217.663 239.307 217.739 239.378C217.815 239.449 217.875 239.536 217.914 239.632C217.954 239.728 217.972 239.832 217.968 239.936C217.97 240.133 217.898 240.324 217.768 240.472C217.693 240.547 217.602 240.604 217.503 240.642C217.404 240.679 217.298 240.695 217.192 240.688L214.368 240.6L215.768 242.88C215.847 243.007 215.888 243.154 215.888 243.304C215.889 243.41 215.867 243.514 215.824 243.611C215.782 243.707 215.719 243.794 215.64 243.864C215.57 243.939 215.486 243.999 215.393 244.04C215.299 244.081 215.198 244.103 215.096 244.104C214.96 244.102 214.828 244.059 214.715 243.983C214.603 243.906 214.516 243.798 214.464 243.672L213.12 241.272L211.792 243.672C211.731 243.804 211.633 243.916 211.509 243.992C211.385 244.069 211.242 244.108 211.096 244.104Z" fill="#263238"/>
<path d="M224.072 244.104C223.862 244.103 223.661 244.02 223.512 243.872C223.388 243.747 223.309 243.584 223.287 243.408C223.266 243.233 223.302 243.056 223.392 242.904L224.824 240.6L222.024 240.688C221.917 240.693 221.81 240.676 221.71 240.639C221.61 240.602 221.518 240.545 221.44 240.472C221.31 240.326 221.237 240.136 221.237 239.94C221.237 239.744 221.31 239.555 221.44 239.408C221.517 239.333 221.609 239.275 221.709 239.237C221.81 239.198 221.917 239.18 222.024 239.184L224.792 239.288L223.368 236.992C223.291 236.867 223.249 236.723 223.248 236.576C223.251 236.365 223.337 236.164 223.488 236.016C223.637 235.868 223.838 235.785 224.048 235.784C224.184 235.785 224.318 235.824 224.432 235.898C224.547 235.972 224.638 236.076 224.696 236.2L226.056 238.672L227.408 236.216C227.472 236.085 227.571 235.974 227.694 235.895C227.816 235.816 227.958 235.772 228.104 235.768C228.206 235.767 228.308 235.789 228.402 235.83C228.495 235.871 228.579 235.932 228.648 236.008C228.795 236.16 228.875 236.365 228.872 236.576C228.869 236.714 228.831 236.849 228.76 236.968L227.312 239.288L230.128 239.184C230.232 239.174 230.336 239.186 230.435 239.219C230.533 239.253 230.623 239.307 230.699 239.378C230.775 239.449 230.835 239.536 230.874 239.632C230.914 239.728 230.932 239.832 230.928 239.936C230.93 240.133 230.858 240.324 230.728 240.472C230.653 240.547 230.562 240.604 230.463 240.642C230.364 240.679 230.258 240.695 230.152 240.688L227.328 240.6L228.728 242.88C228.807 243.007 228.848 243.154 228.848 243.304C228.849 243.41 228.827 243.514 228.784 243.611C228.742 243.707 228.679 243.794 228.6 243.864C228.53 243.939 228.446 243.999 228.353 244.04C228.259 244.081 228.158 244.103 228.056 244.104C227.92 244.102 227.788 244.06 227.675 243.983C227.563 243.906 227.476 243.798 227.424 243.672L226.08 241.272L224.752 243.672C224.692 243.802 224.596 243.911 224.476 243.988C224.355 244.065 224.215 244.105 224.072 244.104Z" fill="#263238"/>
<path d="M237.048 244.104C236.841 244.101 236.643 244.018 236.496 243.872C236.417 243.802 236.354 243.715 236.312 243.619C236.269 243.522 236.247 243.418 236.248 243.312C236.25 243.168 236.292 243.027 236.368 242.904L237.8 240.6L235 240.688C234.897 240.696 234.794 240.682 234.696 240.648C234.599 240.613 234.51 240.559 234.434 240.488C234.359 240.418 234.299 240.332 234.259 240.237C234.219 240.142 234.199 240.039 234.2 239.936C234.2 239.838 234.218 239.741 234.255 239.651C234.292 239.56 234.347 239.478 234.416 239.408C234.49 239.331 234.58 239.271 234.679 239.232C234.779 239.193 234.885 239.177 234.992 239.184L237.76 239.288L236.336 236.992C236.259 236.867 236.217 236.723 236.216 236.576C236.219 236.365 236.305 236.164 236.456 236.016C236.605 235.868 236.806 235.785 237.016 235.784C237.152 235.785 237.286 235.824 237.4 235.898C237.515 235.972 237.606 236.076 237.664 236.2L239.024 238.672L240.384 236.216C240.448 236.086 240.545 235.976 240.666 235.897C240.787 235.818 240.928 235.774 241.072 235.768C241.174 235.767 241.276 235.789 241.37 235.83C241.463 235.871 241.547 235.932 241.616 236.008C241.763 236.16 241.843 236.365 241.84 236.576C241.84 236.713 241.804 236.848 241.736 236.968L240.288 239.288L243.096 239.184C243.203 239.177 243.309 239.193 243.409 239.232C243.509 239.271 243.598 239.331 243.672 239.408C243.808 239.55 243.883 239.739 243.88 239.936C243.879 240.134 243.805 240.325 243.672 240.472C243.597 240.547 243.506 240.604 243.407 240.642C243.308 240.679 243.202 240.695 243.096 240.688L240.272 240.6L241.672 242.88C241.751 243.007 241.792 243.154 241.792 243.304C241.789 243.515 241.703 243.716 241.552 243.864C241.406 244.013 241.208 244.099 241 244.104C240.864 244.102 240.732 244.06 240.619 243.983C240.507 243.906 240.42 243.798 240.368 243.672L239.024 241.272L237.696 243.672C237.638 243.797 237.547 243.903 237.433 243.98C237.319 244.056 237.185 244.099 237.048 244.104Z" fill="#263238"/>
<g style="mix-blend-mode:multiply">
<path d="M277.408 82.032H135.792V90.904H277.408V82.032Z" fill="#008FFF"/>
</g>
<path d="M222 65.688H191.2C190.644 65.688 190.111 65.4672 189.718 65.0741C189.325 64.681 189.104 64.1479 189.104 63.592C189.104 63.0361 189.325 62.503 189.718 62.1099C190.111 61.7168 190.644 61.496 191.2 61.496H222C222.556 61.496 223.089 61.7168 223.482 62.1099C223.875 62.503 224.096 63.0361 224.096 63.592C224.096 64.1479 223.875 64.681 223.482 65.0741C223.089 65.4672 222.556 65.688 222 65.688Z" fill="#008FFF" stroke="#263238" stroke-width="1.33739" stroke-linecap="round" stroke-linejoin="round"/>
<path d="M215 323.792C215.002 322.13 214.51 320.505 213.588 319.122C212.665 317.74 211.353 316.662 209.818 316.025C208.283 315.388 206.593 315.221 204.963 315.545C203.333 315.869 201.836 316.669 200.66 317.844C199.485 319.02 198.685 320.517 198.361 322.147C198.037 323.777 198.204 325.467 198.841 327.002C199.478 328.537 200.556 329.849 201.938 330.772C203.321 331.694 204.946 332.186 206.608 332.184C208.833 332.182 210.966 331.297 212.54 329.724C214.113 328.15 214.998 326.017 215 323.792Z" fill="#008FFF"/>
<path d="M210.864 319.536H202.352V328.048H210.864V319.536Z" fill="#008FFF" stroke="#263238" stroke-width="1.33739" stroke-linecap="round" stroke-linejoin="round"/>
<path d="M308 227.2C308 227.2 296.848 198.864 306.776 195.496C317.112 191.984 316.656 210.696 316.256 219.816C315.416 239.304 313.264 242.928 311.656 238.168L308 227.2ZM304.648 249.304C307.712 253.304 308.576 249.16 303.048 230.448C300.456 221.648 294.824 203.848 286.184 210.528C277.888 216.928 297.632 240.128 297.632 240.128L304.648 249.304ZM298.728 265.544C301.648 268.136 301.704 264.864 294.768 251.352C291.512 245.024 284.624 232.216 278.984 238.552C273.568 244.664 292.024 259.52 292.024 259.52L298.728 265.544ZM292.328 284.856C295.248 287.456 295.304 284.176 288.368 270.672C285.112 264.344 278.224 251.528 272.584 257.872C267.2 264 285.6 278.856 285.6 278.856L292.328 284.856ZM310.808 245.544C306.136 247.368 309.848 249.352 329.36 249.296C338.512 249.296 357.2 248.88 353.216 238.712C349.4 228.944 321.608 241.384 321.608 241.384L310.808 245.544ZM305.488 258.536C300.544 259.392 303.792 262.08 322.928 265.904C331.896 267.704 350.288 271.024 348.408 260.304C346.608 249.968 316.896 256.64 316.896 256.64L305.488 258.536ZM299.536 274.4C295.328 275.008 298.016 277.352 314.104 281.032C321.648 282.76 337.128 286 335.784 276.856C334.504 268.056 309.224 273.032 309.224 273.032L299.536 274.4ZM295.016 289.096C290.896 290.144 293.816 292.192 310.216 294.144C317.896 295.056 333.632 296.64 331.336 287.688C329.12 279.096 304.512 286.704 304.512 286.704L295.016 289.096ZM319.128 229.6C316.728 234.976 321.712 234.16 338.656 219.376C346.592 212.44 362.512 197.928 349.904 190.704C337.8 183.76 324.784 217.264 324.784 217.264L319.128 229.6ZM295.64 308.24C293.104 309.72 295.592 310.296 307.224 307.976C312.68 306.896 323.776 304.496 320.024 299.76C316.392 295.2 301.512 304.8 301.512 304.8L295.64 308.24Z" fill="#008FFF"/>
<path opacity="0.3" d="M308 227.2C308 227.2 296.848 198.864 306.776 195.496C317.112 191.984 316.656 210.696 316.256 219.816C315.416 239.304 313.264 242.928 311.656 238.168L308 227.2ZM304.648 249.304C307.712 253.304 308.576 249.16 303.048 230.448C300.456 221.648 294.824 203.848 286.184 210.528C277.888 216.928 297.632 240.128 297.632 240.128L304.648 249.304ZM298.728 265.544C301.648 268.136 301.704 264.864 294.768 251.352C291.512 245.024 284.624 232.216 278.984 238.552C273.568 244.664 292.024 259.52 292.024 259.52L298.728 265.544ZM292.328 284.856C295.248 287.456 295.304 284.176 288.368 270.672C285.112 264.344 278.224 251.528 272.584 257.872C267.2 264 285.6 278.856 285.6 278.856L292.328 284.856ZM310.808 245.544C306.136 247.368 309.848 249.352 329.36 249.296C338.512 249.296 357.2 248.88 353.216 238.712C349.4 228.944 321.608 241.384 321.608 241.384L310.808 245.544ZM305.488 258.536C300.544 259.392 303.792 262.08 322.928 265.904C331.896 267.704 350.288 271.024 348.408 260.304C346.608 249.968 316.896 256.64 316.896 256.64L305.488 258.536ZM299.536 274.4C295.328 275.008 298.016 277.352 314.104 281.032C321.648 282.76 337.128 286 335.784 276.856C334.504 268.056 309.224 273.032 309.224 273.032L299.536 274.4ZM295.016 289.096C290.896 290.144 293.816 292.192 310.216 294.144C317.896 295.056 333.632 296.64 331.336 287.688C329.12 279.096 304.512 286.704 304.512 286.704L295.016 289.096ZM319.128 229.6C316.728 234.976 321.712 234.16 338.656 219.376C346.592 212.44 362.512 197.928 349.904 190.704C337.8 183.76 324.784 217.264 324.784 217.264L319.128 229.6ZM295.64 308.24C293.104 309.72 295.592 310.296 307.224 307.976C312.68 306.896 323.776 304.496 320.024 299.76C316.392 295.2 301.512 304.8 301.512 304.8L295.64 308.24Z" fill="white"/>
<path d="M312.92 240.392L310.976 208.048L312.92 240.392ZM306.768 251.064L294.48 223.248L306.768 251.064ZM338.48 242.976L309.032 247.2L338.48 242.976ZM300.4 266.056L284.456 245.6L300.4 266.056ZM303.2 259.784L325.168 260.888L303.2 259.784ZM298 275.472L314.8 277.136L298 275.472ZM293.944 285.44L285.6 272.888L293.944 285.44ZM292.984 289.872L312.736 290.056L292.984 289.872ZM288.984 326.928C289.116 326.918 289.239 326.856 289.326 326.755C289.413 326.655 289.457 326.524 289.448 326.392C288.192 307.528 295.488 276.632 307.192 251.272C314.672 235.064 343.992 203.208 344.304 202.888C344.398 202.794 344.451 202.665 344.451 202.532C344.451 202.399 344.398 202.271 344.304 202.176C344.258 202.13 344.203 202.093 344.143 202.068C344.082 202.042 344.017 202.029 343.952 202.029C343.887 202.029 343.822 202.042 343.761 202.068C343.701 202.093 343.646 202.13 343.6 202.176C343.304 202.496 313.864 234.472 306.32 250.824C294.4 276.8 287.2 307.136 288.48 326.456C288.49 326.583 288.547 326.702 288.64 326.79C288.734 326.877 288.856 326.926 288.984 326.928ZM312.912 240.888C313.044 240.88 313.168 240.82 313.256 240.721C313.345 240.622 313.391 240.492 313.384 240.36L311.472 208C311.469 207.934 311.453 207.87 311.424 207.81C311.396 207.75 311.356 207.697 311.307 207.653C311.258 207.609 311.2 207.576 311.138 207.554C311.076 207.533 311.01 207.524 310.944 207.528C310.812 207.536 310.688 207.596 310.6 207.695C310.511 207.794 310.465 207.924 310.472 208.056L312.416 240.4C312.422 240.527 312.477 240.647 312.569 240.735C312.662 240.823 312.785 240.872 312.912 240.872V240.888ZM306.944 251.52C307.064 251.466 307.158 251.367 307.206 251.244C307.253 251.122 307.251 250.985 307.2 250.864L294.904 223.048C294.851 222.927 294.752 222.832 294.629 222.784C294.506 222.736 294.369 222.739 294.248 222.792C294.127 222.845 294.032 222.944 293.984 223.067C293.936 223.19 293.939 223.327 293.992 223.448L306.28 251.264C306.319 251.353 306.382 251.429 306.463 251.483C306.544 251.537 306.639 251.567 306.736 251.568C306.819 251.572 306.901 251.556 306.976 251.52H306.944ZM309.072 247.68L338.504 243.472C338.575 243.471 338.645 243.454 338.709 243.424C338.774 243.393 338.831 243.35 338.877 243.295C338.923 243.241 338.957 243.178 338.977 243.11C338.997 243.042 339.003 242.97 338.993 242.9C338.983 242.829 338.959 242.762 338.921 242.701C338.884 242.641 338.834 242.589 338.775 242.55C338.716 242.51 338.649 242.483 338.579 242.471C338.509 242.459 338.437 242.462 338.368 242.48L308.936 246.688C308.804 246.696 308.682 246.757 308.595 246.856C308.508 246.955 308.463 247.084 308.472 247.216C308.48 247.348 308.541 247.47 308.64 247.557C308.739 247.644 308.868 247.689 309 247.68H309.072ZM300.68 266.456C300.784 266.374 300.852 266.254 300.869 266.122C300.885 265.99 300.849 265.857 300.768 265.752L284.816 245.256C284.734 245.15 284.614 245.081 284.481 245.063C284.348 245.046 284.214 245.082 284.108 245.164C284.002 245.246 283.933 245.366 283.915 245.499C283.898 245.632 283.934 245.766 284.016 245.872L300 266.4C300.046 266.46 300.106 266.508 300.174 266.541C300.242 266.575 300.316 266.592 300.392 266.592C300.511 266.586 300.625 266.538 300.712 266.456H300.68ZM325.608 260.912C325.612 260.78 325.564 260.651 325.475 260.554C325.385 260.456 325.26 260.398 325.128 260.392L303.2 259.28C303.077 259.289 302.961 259.342 302.875 259.43C302.788 259.518 302.737 259.635 302.731 259.759C302.725 259.882 302.765 260.003 302.842 260.099C302.92 260.196 303.03 260.26 303.152 260.28L325.12 261.392C325.252 261.396 325.381 261.348 325.478 261.259C325.576 261.169 325.634 261.044 325.64 260.912H325.608ZM315.264 277.184C315.272 277.118 315.266 277.052 315.248 276.988C315.229 276.924 315.198 276.865 315.157 276.813C315.115 276.762 315.063 276.719 315.005 276.688C314.946 276.657 314.882 276.638 314.816 276.632L298.016 274.976C297.951 274.969 297.885 274.976 297.822 274.995C297.76 275.014 297.701 275.045 297.651 275.087C297.6 275.128 297.558 275.18 297.528 275.237C297.497 275.295 297.478 275.359 297.472 275.424C297.461 275.555 297.501 275.686 297.585 275.787C297.669 275.889 297.789 275.954 297.92 275.968L314.72 277.632H314.768C314.897 277.641 315.024 277.599 315.123 277.515C315.222 277.432 315.284 277.313 315.296 277.184H315.264ZM294.184 285.856C294.295 285.783 294.373 285.668 294.4 285.538C294.427 285.407 294.401 285.272 294.328 285.16L286.024 272.608C285.948 272.5 285.833 272.425 285.703 272.4C285.574 272.375 285.439 272.4 285.328 272.472C285.217 272.545 285.139 272.66 285.112 272.79C285.085 272.921 285.111 273.057 285.184 273.168L293.488 285.72C293.535 285.789 293.599 285.845 293.673 285.884C293.746 285.923 293.829 285.943 293.912 285.944C294.02 285.95 294.128 285.919 294.216 285.856H294.184ZM313.24 290.056C313.238 289.924 313.185 289.799 313.093 289.705C313.001 289.611 312.876 289.556 312.744 289.552L292.992 289.368C292.86 289.368 292.734 289.42 292.641 289.513C292.548 289.606 292.496 289.732 292.496 289.864C292.494 289.93 292.505 289.996 292.529 290.058C292.553 290.119 292.59 290.175 292.636 290.222C292.682 290.27 292.738 290.307 292.799 290.332C292.86 290.357 292.926 290.369 292.992 290.368L312.744 290.552C312.811 290.555 312.879 290.545 312.942 290.521C313.006 290.498 313.064 290.462 313.113 290.416C313.162 290.37 313.202 290.314 313.229 290.252C313.256 290.19 313.271 290.124 313.272 290.056H313.24ZM286.736 319.592C286.776 319.504 290.144 310.224 300.272 308.008C300.402 307.979 300.516 307.9 300.588 307.787C300.66 307.675 300.685 307.539 300.656 307.408C300.624 307.28 300.543 307.17 300.431 307.1C300.32 307.03 300.185 307.005 300.056 307.032C289.376 309.368 285.832 319.168 285.792 319.264C285.751 319.39 285.76 319.528 285.819 319.647C285.877 319.767 285.979 319.859 286.104 319.904H286.264C286.37 319.913 286.477 319.888 286.568 319.832C286.659 319.775 286.729 319.691 286.768 319.592H286.736ZM288.984 326.928C289.116 326.918 289.239 326.856 289.326 326.755C289.413 326.655 289.457 326.524 289.448 326.392C288.192 307.528 295.488 276.632 307.192 251.272C314.672 235.064 343.992 203.208 344.304 202.888C344.398 202.794 344.451 202.665 344.451 202.532C344.451 202.399 344.398 202.271 344.304 202.176C344.258 202.13 344.203 202.093 344.143 202.068C344.082 202.042 344.017 202.029 343.952 202.029C343.887 202.029 343.822 202.042 343.761 202.068C343.701 202.093 343.646 202.13 343.6 202.176C343.304 202.496 313.864 234.472 306.32 250.824C294.4 276.8 287.2 307.136 288.48 326.456C288.49 326.583 288.547 326.702 288.64 326.79C288.734 326.877 288.856 326.926 288.984 326.928ZM312.912 240.888C313.044 240.88 313.168 240.82 313.256 240.721C313.345 240.622 313.391 240.492 313.384 240.36L311.472 208C311.469 207.934 311.453 207.87 311.424 207.81C311.396 207.75 311.356 207.697 311.307 207.653C311.258 207.609 311.2 207.576 311.138 207.554C311.076 207.533 311.01 207.524 310.944 207.528C310.812 207.536 310.688 207.596 310.6 207.695C310.511 207.794 310.465 207.924 310.472 208.056L312.416 240.4C312.422 240.527 312.477 240.647 312.569 240.735C312.662 240.823 312.785 240.872 312.912 240.872V240.888ZM306.944 251.52C307.064 251.466 307.158 251.367 307.206 251.244C307.253 251.122 307.251 250.985 307.2 250.864L294.904 223.048C294.851 222.927 294.752 222.832 294.629 222.784C294.506 222.736 294.369 222.739 294.248 222.792C294.127 222.845 294.032 222.944 293.984 223.067C293.936 223.19 293.939 223.327 293.992 223.448L306.28 251.264C306.319 251.353 306.382 251.429 306.463 251.483C306.544 251.537 306.639 251.567 306.736 251.568C306.819 251.572 306.901 251.556 306.976 251.52H306.944ZM309.072 247.68L338.504 243.472C338.575 243.471 338.645 243.454 338.709 243.424C338.774 243.393 338.831 243.35 338.877 243.295C338.923 243.241 338.957 243.178 338.977 243.11C338.997 243.042 339.003 242.97 338.993 242.9C338.983 242.829 338.959 242.762 338.921 242.701C338.884 242.641 338.834 242.589 338.775 242.55C338.716 242.51 338.649 242.483 338.579 242.471C338.509 242.459 338.437 242.462 338.368 242.48L308.936 246.688C308.804 246.696 308.682 246.757 308.595 246.856C308.508 246.955 308.463 247.084 308.472 247.216C308.48 247.348 308.541 247.47 308.64 247.557C308.739 247.644 308.868 247.689 309 247.68H309.072ZM300.68 266.456C300.784 266.374 300.852 266.254 300.869 266.122C300.885 265.99 300.849 265.857 300.768 265.752L284.816 245.256C284.776 245.203 284.725 245.159 284.668 245.126C284.61 245.093 284.547 245.072 284.481 245.063C284.415 245.055 284.349 245.059 284.285 245.077C284.22 245.094 284.161 245.124 284.108 245.164C284.055 245.204 284.011 245.255 283.978 245.312C283.945 245.37 283.924 245.433 283.915 245.499C283.907 245.565 283.911 245.631 283.929 245.696C283.946 245.76 283.976 245.819 284.016 245.872L300 266.4C300.046 266.46 300.106 266.508 300.174 266.541C300.242 266.575 300.316 266.592 300.392 266.592C300.511 266.586 300.625 266.538 300.712 266.456H300.68ZM325.608 260.912C325.612 260.78 325.564 260.651 325.475 260.554C325.385 260.456 325.26 260.398 325.128 260.392L303.2 259.28C303.077 259.289 302.961 259.342 302.875 259.43C302.788 259.518 302.737 259.635 302.731 259.759C302.725 259.882 302.765 260.003 302.842 260.099C302.92 260.196 303.03 260.26 303.152 260.28L325.12 261.392C325.252 261.396 325.381 261.348 325.478 261.259C325.576 261.169 325.634 261.044 325.64 260.912H325.608ZM315.264 277.184C315.272 277.118 315.266 277.052 315.248 276.988C315.229 276.924 315.198 276.865 315.157 276.813C315.115 276.762 315.063 276.719 315.005 276.688C314.946 276.657 314.882 276.638 314.816 276.632L298.016 274.976C297.951 274.969 297.885 274.976 297.822 274.995C297.76 275.014 297.701 275.045 297.651 275.087C297.6 275.128 297.558 275.18 297.528 275.237C297.497 275.295 297.478 275.359 297.472 275.424C297.461 275.555 297.501 275.686 297.585 275.787C297.669 275.889 297.789 275.954 297.92 275.968L314.72 277.632H314.768C314.897 277.641 315.024 277.599 315.123 277.515C315.222 277.432 315.284 277.313 315.296 277.184H315.264ZM294.184 285.856C294.295 285.783 294.373 285.668 294.4 285.538C294.427 285.407 294.401 285.272 294.328 285.16L286.024 272.608C285.948 272.5 285.833 272.425 285.703 272.4C285.574 272.375 285.439 272.4 285.328 272.472C285.217 272.545 285.139 272.66 285.112 272.79C285.085 272.921 285.111 273.057 285.184 273.168L293.488 285.72C293.535 285.789 293.599 285.845 293.673 285.884C293.746 285.923 293.829 285.943 293.912 285.944C294.02 285.95 294.128 285.919 294.216 285.856H294.184ZM313.24 290.056C313.238 289.924 313.185 289.799 313.093 289.705C313.001 289.611 312.876 289.556 312.744 289.552L292.992 289.368C292.86 289.368 292.734 289.42 292.641 289.513C292.548 289.606 292.496 289.732 292.496 289.864C292.494 289.93 292.505 289.996 292.529 290.058C292.553 290.119 292.59 290.175 292.636 290.222C292.682 290.27 292.738 290.307 292.799 290.332C292.86 290.357 292.926 290.369 292.992 290.368L312.744 290.552C312.811 290.555 312.879 290.545 312.942 290.521C313.006 290.498 313.064 290.462 313.113 290.416C313.162 290.37 313.202 290.314 313.229 290.252C313.256 290.19 313.271 290.124 313.272 290.056H313.24ZM286.736 319.592C286.776 319.504 290.144 310.224 300.272 308.008C300.402 307.979 300.516 307.9 300.588 307.787C300.66 307.675 300.685 307.539 300.656 307.408C300.624 307.28 300.543 307.17 300.431 307.1C300.32 307.03 300.185 307.005 300.056 307.032C289.376 309.368 285.832 319.168 285.792 319.264C285.751 319.39 285.76 319.528 285.819 319.647C285.877 319.767 285.979 319.859 286.104 319.904H286.264C286.37 319.913 286.477 319.888 286.568 319.832C286.659 319.775 286.729 319.691 286.768 319.592H286.736Z" fill="#008FFF"/>
<path opacity="0.2" d="M312.92 240.392L310.976 208.048L312.92 240.392ZM306.768 251.064L294.48 223.248L306.768 251.064ZM338.48 242.976L309.032 247.2L338.48 242.976ZM300.4 266.056L284.456 245.6L300.4 266.056ZM303.2 259.784L325.168 260.888L303.2 259.784ZM298 275.472L314.8 277.136L298 275.472ZM293.944 285.44L285.6 272.888L293.944 285.44ZM292.984 289.872L312.736 290.056L292.984 289.872ZM288.984 326.928C289.116 326.918 289.239 326.856 289.326 326.755C289.413 326.655 289.457 326.524 289.448 326.392C288.192 307.528 295.488 276.632 307.192 251.272C314.672 235.064 343.992 203.208 344.304 202.888C344.398 202.794 344.451 202.665 344.451 202.532C344.451 202.399 344.398 202.271 344.304 202.176C344.258 202.13 344.203 202.093 344.143 202.068C344.082 202.042 344.017 202.029 343.952 202.029C343.887 202.029 343.822 202.042 343.761 202.068C343.701 202.093 343.646 202.13 343.6 202.176C343.304 202.496 313.864 234.472 306.32 250.824C294.4 276.8 287.2 307.136 288.48 326.456C288.49 326.583 288.547 326.702 288.64 326.79C288.734 326.877 288.856 326.926 288.984 326.928ZM312.912 240.888C313.044 240.88 313.168 240.82 313.256 240.721C313.345 240.622 313.391 240.492 313.384 240.36L311.472 208C311.469 207.934 311.453 207.87 311.424 207.81C311.396 207.75 311.356 207.697 311.307 207.653C311.258 207.609 311.2 207.576 311.138 207.554C311.076 207.533 311.01 207.524 310.944 207.528C310.812 207.536 310.688 207.596 310.6 207.695C310.511 207.794 310.465 207.924 310.472 208.056L312.416 240.4C312.422 240.527 312.477 240.647 312.569 240.735C312.662 240.823 312.785 240.872 312.912 240.872V240.888ZM306.944 251.52C307.064 251.466 307.158 251.367 307.206 251.244C307.253 251.122 307.251 250.985 307.2 250.864L294.904 223.048C294.851 222.927 294.752 222.832 294.629 222.784C294.506 222.736 294.369 222.739 294.248 222.792C294.127 222.845 294.032 222.944 293.984 223.067C293.936 223.19 293.939 223.327 293.992 223.448L306.28 251.264C306.319 251.353 306.382 251.429 306.463 251.483C306.544 251.537 306.639 251.567 306.736 251.568C306.819 251.572 306.901 251.556 306.976 251.52H306.944ZM309.072 247.68L338.504 243.472C338.575 243.471 338.645 243.454 338.709 243.424C338.774 243.393 338.831 243.35 338.877 243.295C338.923 243.241 338.957 243.178 338.977 243.11C338.997 243.042 339.003 242.97 338.993 242.9C338.983 242.829 338.959 242.762 338.921 242.701C338.884 242.641 338.834 242.589 338.775 242.55C338.716 242.51 338.649 242.483 338.579 242.471C338.509 242.459 338.437 242.462 338.368 242.48L308.936 246.688C308.804 246.696 308.682 246.757 308.595 246.856C308.508 246.955 308.463 247.084 308.472 247.216C308.48 247.348 308.541 247.47 308.64 247.557C308.739 247.644 308.868 247.689 309 247.68H309.072ZM300.68 266.456C300.784 266.374 300.852 266.254 300.869 266.122C300.885 265.99 300.849 265.857 300.768 265.752L284.816 245.256C284.734 245.15 284.614 245.081 284.481 245.063C284.348 245.046 284.214 245.082 284.108 245.164C284.002 245.246 283.933 245.366 283.915 245.499C283.898 245.632 283.934 245.766 284.016 245.872L300 266.4C300.046 266.46 300.106 266.508 300.174 266.541C300.242 266.575 300.316 266.592 300.392 266.592C300.511 266.586 300.625 266.538 300.712 266.456H300.68ZM325.608 260.912C325.612 260.78 325.564 260.651 325.475 260.554C325.385 260.456 325.26 260.398 325.128 260.392L303.2 259.28C303.077 259.289 302.961 259.342 302.875 259.43C302.788 259.518 302.737 259.635 302.731 259.759C302.725 259.882 302.765 260.003 302.842 260.099C302.92 260.196 303.03 260.26 303.152 260.28L325.12 261.392C325.252 261.396 325.381 261.348 325.478 261.259C325.576 261.169 325.634 261.044 325.64 260.912H325.608ZM315.264 277.184C315.272 277.118 315.266 277.052 315.248 276.988C315.229 276.924 315.198 276.865 315.157 276.813C315.115 276.762 315.063 276.719 315.005 276.688C314.946 276.657 314.882 276.638 314.816 276.632L298.016 274.976C297.951 274.969 297.885 274.976 297.822 274.995C297.76 275.014 297.701 275.045 297.651 275.087C297.6 275.128 297.558 275.18 297.528 275.237C297.497 275.295 297.478 275.359 297.472 275.424C297.461 275.555 297.501 275.686 297.585 275.787C297.669 275.889 297.789 275.954 297.92 275.968L314.72 277.632H314.768C314.897 277.641 315.024 277.599 315.123 277.515C315.222 277.432 315.284 277.313 315.296 277.184H315.264ZM294.184 285.856C294.295 285.783 294.373 285.668 294.4 285.538C294.427 285.407 294.401 285.272 294.328 285.16L286.024 272.608C285.948 272.5 285.833 272.425 285.703 272.4C285.574 272.375 285.439 272.4 285.328 272.472C285.217 272.545 285.139 272.66 285.112 272.79C285.085 272.921 285.111 273.057 285.184 273.168L293.488 285.72C293.535 285.789 293.599 285.845 293.673 285.884C293.746 285.923 293.829 285.943 293.912 285.944C294.02 285.95 294.128 285.919 294.216 285.856H294.184ZM313.24 290.056C313.238 289.924 313.185 289.799 313.093 289.705C313.001 289.611 312.876 289.556 312.744 289.552L292.992 289.368C292.86 289.368 292.734 289.42 292.641 289.513C292.548 289.606 292.496 289.732 292.496 289.864C292.494 289.93 292.505 289.996 292.529 290.058C292.553 290.119 292.59 290.175 292.636 290.222C292.682 290.27 292.738 290.307 292.799 290.332C292.86 290.357 292.926 290.369 292.992 290.368L312.744 290.552C312.811 290.555 312.879 290.545 312.942 290.521C313.006 290.498 313.064 290.462 313.113 290.416C313.162 290.37 313.202 290.314 313.229 290.252C313.256 290.19 313.271 290.124 313.272 290.056H313.24ZM286.736 319.592C286.776 319.504 290.144 310.224 300.272 308.008C300.402 307.979 300.516 307.9 300.588 307.787C300.66 307.675 300.685 307.539 300.656 307.408C300.624 307.28 300.543 307.17 300.431 307.1C300.32 307.03 300.185 307.005 300.056 307.032C289.376 309.368 285.832 319.168 285.792 319.264C285.751 319.39 285.76 319.528 285.819 319.647C285.877 319.767 285.979 319.859 286.104 319.904H286.264C286.37 319.913 286.477 319.888 286.568 319.832C286.659 319.775 286.729 319.691 286.768 319.592H286.736ZM288.984 326.928C289.116 326.918 289.239 326.856 289.326 326.755C289.413 326.655 289.457 326.524 289.448 326.392C288.192 307.528 295.488 276.632 307.192 251.272C314.672 235.064 343.992 203.208 344.304 202.888C344.398 202.794 344.451 202.665 344.451 202.532C344.451 202.399 344.398 202.271 344.304 202.176C344.258 202.13 344.203 202.093 344.143 202.068C344.082 202.042 344.017 202.029 343.952 202.029C343.887 202.029 343.822 202.042 343.761 202.068C343.701 202.093 343.646 202.13 343.6 202.176C343.304 202.496 313.864 234.472 306.32 250.824C294.4 276.8 287.2 307.136 288.48 326.456C288.49 326.583 288.547 326.702 288.64 326.79C288.734 326.877 288.856 326.926 288.984 326.928ZM312.912 240.888C313.044 240.88 313.168 240.82 313.256 240.721C313.345 240.622 313.391 240.492 313.384 240.36L311.472 208C311.469 207.934 311.453 207.87 311.424 207.81C311.396 207.75 311.356 207.697 311.307 207.653C311.258 207.609 311.2 207.576 311.138 207.554C311.076 207.533 311.01 207.524 310.944 207.528C310.812 207.536 310.688 207.596 310.6 207.695C310.511 207.794 310.465 207.924 310.472 208.056L312.416 240.4C312.422 240.527 312.477 240.647 312.569 240.735C312.662 240.823 312.785 240.872 312.912 240.872V240.888ZM306.944 251.52C307.064 251.466 307.158 251.367 307.206 251.244C307.253 251.122 307.251 250.985 307.2 250.864L294.904 223.048C294.851 222.927 294.752 222.832 294.629 222.784C294.506 222.736 294.369 222.739 294.248 222.792C294.127 222.845 294.032 222.944 293.984 223.067C293.936 223.19 293.939 223.327 293.992 223.448L306.28 251.264C306.319 251.353 306.382 251.429 306.463 251.483C306.544 251.537 306.639 251.567 306.736 251.568C306.819 251.572 306.901 251.556 306.976 251.52H306.944ZM309.072 247.68L338.504 243.472C338.575 243.471 338.645 243.454 338.709 243.424C338.774 243.393 338.831 243.35 338.877 243.295C338.923 243.241 338.957 243.178 338.977 243.11C338.997 243.042 339.003 242.97 338.993 242.9C338.983 242.829 338.959 242.762 338.921 242.701C338.884 242.641 338.834 242.589 338.775 242.55C338.716 242.51 338.649 242.483 338.579 242.471C338.509 242.459 338.437 242.462 338.368 242.48L308.936 246.688C308.804 246.696 308.682 246.757 308.595 246.856C308.508 246.955 308.463 247.084 308.472 247.216C308.48 247.348 308.541 247.47 308.64 247.557C308.739 247.644 308.868 247.689 309 247.68H309.072ZM300.68 266.456C300.784 266.374 300.852 266.254 300.869 266.122C300.885 265.99 300.849 265.857 300.768 265.752L284.816 245.256C284.776 245.203 284.725 245.159 284.668 245.126C284.61 245.093 284.547 245.072 284.481 245.063C284.415 245.055 284.349 245.059 284.285 245.077C284.22 245.094 284.161 245.124 284.108 245.164C284.055 245.204 284.011 245.255 283.978 245.312C283.945 245.37 283.924 245.433 283.915 245.499C283.907 245.565 283.911 245.631 283.929 245.696C283.946 245.76 283.976 245.819 284.016 245.872L300 266.4C300.046 266.46 300.106 266.508 300.174 266.541C300.242 266.575 300.316 266.592 300.392 266.592C300.511 266.586 300.625 266.538 300.712 266.456H300.68ZM325.608 260.912C325.612 260.78 325.564 260.651 325.475 260.554C325.385 260.456 325.26 260.398 325.128 260.392L303.2 259.28C303.077 259.289 302.961 259.342 302.875 259.43C302.788 259.518 302.737 259.635 302.731 259.759C302.725 259.882 302.765 260.003 302.842 260.099C302.92 260.196 303.03 260.26 303.152 260.28L325.12 261.392C325.252 261.396 325.381 261.348 325.478 261.259C325.576 261.169 325.634 261.044 325.64 260.912H325.608ZM315.264 277.184C315.272 277.118 315.266 277.052 315.248 276.988C315.229 276.924 315.198 276.865 315.157 276.813C315.115 276.762 315.063 276.719 315.005 276.688C314.946 276.657 314.882 276.638 314.816 276.632L298.016 274.976C297.951 274.969 297.885 274.976 297.822 274.995C297.76 275.014 297.701 275.045 297.651 275.087C297.6 275.128 297.558 275.18 297.528 275.237C297.497 275.295 297.478 275.359 297.472 275.424C297.461 275.555 297.501 275.686 297.585 275.787C297.669 275.889 297.789 275.954 297.92 275.968L314.72 277.632H314.768C314.897 277.641 315.024 277.599 315.123 277.515C315.222 277.432 315.284 277.313 315.296 277.184H315.264ZM294.184 285.856C294.295 285.783 294.373 285.668 294.4 285.538C294.427 285.407 294.401 285.272 294.328 285.16L286.024 272.608C285.948 272.5 285.833 272.425 285.703 272.4C285.574 272.375 285.439 272.4 285.328 272.472C285.217 272.545 285.139 272.66 285.112 272.79C285.085 272.921 285.111 273.057 285.184 273.168L293.488 285.72C293.535 285.789 293.599 285.845 293.673 285.884C293.746 285.923 293.829 285.943 293.912 285.944C294.02 285.95 294.128 285.919 294.216 285.856H294.184ZM313.24 290.056C313.238 289.924 313.185 289.799 313.093 289.705C313.001 289.611 312.876 289.556 312.744 289.552L292.992 289.368C292.86 289.368 292.734 289.42 292.641 289.513C292.548 289.606 292.496 289.732 292.496 289.864C292.494 289.93 292.505 289.996 292.529 290.058C292.553 290.119 292.59 290.175 292.636 290.222C292.682 290.27 292.738 290.307 292.799 290.332C292.86 290.357 292.926 290.369 292.992 290.368L312.744 290.552C312.811 290.555 312.879 290.545 312.942 290.521C313.006 290.498 313.064 290.462 313.113 290.416C313.162 290.37 313.202 290.314 313.229 290.252C313.256 290.19 313.271 290.124 313.272 290.056H313.24ZM286.736 319.592C286.776 319.504 290.144 310.224 300.272 308.008C300.402 307.979 300.516 307.9 300.588 307.787C300.66 307.675 300.685 307.539 300.656 307.408C300.624 307.28 300.543 307.17 300.431 307.1C300.32 307.03 300.185 307.005 300.056 307.032C289.376 309.368 285.832 319.168 285.792 319.264C285.751 319.39 285.76 319.528 285.819 319.647C285.877 319.767 285.979 319.859 286.104 319.904H286.264C286.37 319.913 286.477 319.888 286.568 319.832C286.659 319.775 286.729 319.691 286.768 319.592H286.736Z" fill="black"/>
<path d="M302.048 312.824H279.4V317.512H281.376L285.464 343.088H295.984L300.072 317.512H302.048V312.824Z" fill="#008FFF"/>
<path opacity="0.3" d="M302.048 312.824H279.4V317.512H281.376L285.464 343.088H295.984L300.072 317.512H302.048V312.824Z" fill="white"/>
<path d="M98.144 171.064L71.8 162.464L69.456 156.272L64.104 156.104L54.392 154.264L55.56 156.272L67.784 165.144L70.8 166.648L98.352 181.04L98.144 171.064Z" fill="white" stroke="#263238" stroke-width="1.00396" stroke-miterlimit="10"/>
<path d="M69.456 156.272L66.944 154.768L61.928 156.608L62.76 157.608L69.456 156.272Z" fill="white" stroke="#263238" stroke-width="1.00396" stroke-linejoin="round"/>
<path d="M98.144 171.064L71.8 162.464L69.456 156.272L64.104 156.104L54.392 154.264L55.56 156.272L67.784 165.144L70.8 166.648L98.352 181.04L98.144 171.064Z" fill="white"/>
<path opacity="0.5" d="M98.144 171.064L71.8 162.464L69.456 156.272L64.104 156.104L54.392 154.264L55.56 156.272L67.784 165.144L70.8 166.648L98.352 181.04L98.144 171.064Z" fill="#008FFF" stroke="#263238" stroke-width="1.00396" stroke-miterlimit="10"/>
<path d="M98.144 171.064L71.8 162.464L69.456 156.272L64.104 156.104L54.392 154.264L55.56 156.272L67.784 165.144L70.8 166.648L98.352 181.04L98.144 171.064Z" stroke="#263238" stroke-width="1.00396" stroke-miterlimit="10"/>
<path d="M69.456 156.272L66.944 154.768L61.928 156.608L62.76 157.608L69.456 156.272Z" fill="white"/>
<path opacity="0.5" d="M69.456 156.272L66.944 154.768L61.928 156.608L62.76 157.608L69.456 156.272Z" fill="#008FFF" stroke="#263238" stroke-width="1.00396" stroke-linejoin="round"/>
<path d="M69.456 156.272L66.944 154.768L61.928 156.608L62.76 157.608L69.456 156.272Z" stroke="#263238" stroke-width="1.00396" stroke-linejoin="round"/>
<path d="M103.736 115.248C103.736 115.248 103.328 118.848 104.344 121.16C105.36 123.472 111 131.304 111 131.304L100.472 139.744C100.472 139.744 96.104 130.944 95.272 129.52C94.44 128.096 93.44 121.968 96.152 117.576C98.864 113.184 102.768 112 103.736 115.248Z" fill="white"/>
<g style="mix-blend-mode:multiply" opacity="0.5">
<path d="M98.328 126.816L102.896 136.288L100.464 139.752L95.872 131.552L98.328 126.816Z" fill="#008FFF"/>
</g>
<path d="M103.736 115.248C103.736 115.248 103.328 118.848 104.344 121.16C105.36 123.472 111 131.304 111 131.304L100.472 139.744C100.472 139.744 96.104 130.944 95.272 129.52C94.44 128.096 93.44 121.968 96.152 117.576C98.864 113.184 102.768 112 103.736 115.248Z" stroke="#263238" stroke-width="1.00396" stroke-miterlimit="10"/>
<path d="M107 108.656C106.352 104.656 101.768 96.52 94.496 96.832C89.776 97.04 87.568 97.992 85.52 99.152C83.8506 100.136 82.2946 101.3 80.88 102.624C77.328 106.888 76.08 108.056 76.768 111.32C76.7116 112.622 76.9156 113.922 77.368 115.144C78.456 118.048 79.2 119.944 80.144 121.328C79.856 122.68 79.104 126.248 79.064 127.064C79.024 127.88 81.464 127.312 82.696 127C84.984 132.12 89.176 135.672 90.48 136.08C92.752 136.792 96.344 133.056 98.248 130.16C100.152 127.264 98.712 124.008 98.72 122.712C98.728 121.416 103 118.568 104.584 117.664C106.168 116.76 107.64 112.648 107 108.656Z" fill="white"/>
<g style="mix-blend-mode:multiply" opacity="0.5">
<path d="M76.8 111.32C76.7436 112.622 76.9476 113.922 77.4 115.144C78.488 118.048 79.232 119.944 80.176 121.328C79.888 122.68 79.136 126.248 79.096 127.064C79.056 127.88 81.496 127.312 82.728 127C85.016 132.12 89.208 135.672 90.512 136.08C92.784 136.792 96.376 133.056 98.28 130.16C98.7557 129.437 99.0645 128.617 99.184 127.76C99.08 127.384 99.008 127.152 99.008 127.152C99.008 127.152 97.936 131.272 95.808 130.736C93.68 130.2 90.424 125.936 88.608 124.464C86.792 122.992 87.536 121.056 87.176 118.864C86.816 116.672 81.44 114.744 81.08 113.488C80.72 112.232 81.976 107.032 81.976 107.032C81.976 107.032 84.016 104.312 83.576 105.432C83.265 106.403 83.1522 107.427 83.2443 108.442C83.3364 109.458 83.6315 110.445 84.112 111.344C84.4493 112.054 84.9842 112.651 85.6526 113.064C86.321 113.477 87.0945 113.688 87.88 113.672L89.832 104L85.712 100.592L80.912 102.592C77.328 106.888 76.104 108.056 76.8 111.32Z" fill="#008FFF"/>
</g>
<path d="M107 108.656C106.352 104.656 101.768 96.52 94.496 96.832C89.776 97.04 87.568 97.992 85.52 99.152C83.8506 100.136 82.2946 101.3 80.88 102.624C77.328 106.888 76.08 108.056 76.768 111.32C76.7116 112.622 76.9156 113.922 77.368 115.144C78.456 118.048 79.2 119.944 80.144 121.328C79.856 122.68 79.104 126.248 79.064 127.064C79.024 127.88 81.464 127.312 82.696 127C84.984 132.12 89.176 135.672 90.48 136.08C92.752 136.792 96.344 133.056 98.248 130.16C100.152 127.264 98.712 124.008 98.72 122.712C98.728 121.416 103 118.568 104.584 117.664C106.168 116.76 107.64 112.648 107 108.656Z" stroke="#263238" stroke-miterlimit="10"/>
<path d="M81.136 118.912L81.936 121.2C81.936 121.2 83.656 121.768 85.752 119.48" stroke="#263238" stroke-miterlimit="10" stroke-linecap="round"/>
<path d="M87.048 129.6C87.048 129.6 88.952 129.408 89.72 126.736" stroke="#263238" stroke-miterlimit="10" stroke-linecap="round"/>
<path d="M79.8 117C79.8 117 80.368 115.28 83.8001 115.28" stroke="#263238" stroke-miterlimit="10" stroke-linecap="round"/>
<path d="M97.3921 93.648C94.8983 93.2894 92.3834 93.097 89.8641 93.072C89.8641 93.072 82.3281 88.728 75.0881 93.36C67.848 97.992 71.3281 106.104 71.3281 108.128C71.3281 110.152 69.008 110.16 70.456 112.768C71.904 115.376 76.8001 113.936 76.8001 113.936C76.8518 112.952 77.1117 111.991 77.5627 111.115C78.0137 110.239 78.6454 109.469 79.416 108.856C82.024 106.832 84.1041 106.392 84.9681 106.976C84.9681 106.976 84.3921 111.32 85.2561 113.056C85.2561 113.056 88.1521 114.504 89.0241 114.504C89.8961 114.504 88.4561 115.728 91.3441 116.816C91.8702 117.005 92.433 117.069 92.9883 117.004C93.5435 116.939 94.076 116.746 94.5441 116.44C94.9681 114.68 95.8961 112.032 97.6241 112.648C100.16 113.552 102.472 119.792 99.0401 121.92C103.168 122.672 108.168 115.368 108.464 108.712C108.76 102.056 101.68 94.4 97.3921 93.648Z" fill="#263238"/>
<path d="M85.096 104.12C85.096 104.12 87.224 102.976 89.832 105.424C92.44 107.872 97.512 111.144 104.232 109.344" stroke="white" stroke-width="0.5" stroke-linecap="round" stroke-linejoin="round"/>
<path d="M84.8 102.16C84.8 102.16 86.264 99.872 88.712 99.872C91.16 99.872 96.88 103.304 101.448 103.304" stroke="white" stroke-width="0.5" stroke-linecap="round" stroke-linejoin="round"/>
<path d="M83.1361 106.568C83.1361 106.568 80.3601 103.144 77.7521 105.92C75.1441 108.696 76.8001 111.32 76.8001 111.32" stroke="white" stroke-width="0.5" stroke-linecap="round" stroke-linejoin="round"/>
<path d="M72.04 108.856C73.6308 107.421 74.6197 105.438 74.808 103.304C75.136 99.712 80.04 96.608 83.136 99.552" stroke="white" stroke-width="0.5" stroke-linecap="round" stroke-linejoin="round"/>
<path d="M77.096 95.792C77.096 95.792 82 91.056 86.08 97.096" stroke="white" stroke-width="0.5" stroke-linecap="round" stroke-linejoin="round"/>
<path d="M117.008 328.648C117.008 328.648 120.024 333.336 119.688 336.352L119.36 339.368C119.36 339.368 108.296 342.4 105.952 342.4C103.608 342.4 91.2 341.224 91.2 341.224L90.664 339.096C90.6265 338.939 90.6442 338.774 90.7141 338.628C90.784 338.482 90.9019 338.365 91.048 338.296L102.112 333.136L105.6 329.32L117.008 328.648Z" fill="white" stroke="#263238" stroke-width="1.00396" stroke-miterlimit="10"/>
<path d="M107.632 340.04C110.632 340.272 116.328 338.44 119.632 337.272L119.4 339.368C119.4 339.368 108.296 342.4 105.952 342.4C103.608 342.4 91.2 341.224 91.2 341.224L90.816 339.704C92.8 339.712 103.664 339.736 107.632 340.04Z" fill="#008FFF" stroke="#263238" stroke-width="1.00396" stroke-miterlimit="10"/>
<path d="M102.128 333.136L86.024 340.144C86.024 340.144 84.648 343.592 86.024 344.28C87.4 344.968 117.4 344.28 117.4 344.28C117.4 344.28 119.472 338.832 116.2 335.176C112.928 331.52 102.128 333.136 102.128 333.136Z" fill="white" stroke="#263238" stroke-width="1.00396" stroke-miterlimit="10"/>
<path d="M117.4 344.28C117.4 344.28 87.4001 344.968 86.0241 344.28C85.3601 343.944 85.3361 342.976 85.4881 342.056H117.928C117.822 342.812 117.645 343.557 117.4 344.28Z" fill="#008FFF" stroke="#263238" stroke-width="1.00396" stroke-miterlimit="10"/>
<path d="M94.512 211.368C94.512 211.368 90.304 230.016 88.712 241.68C87.12 253.344 86.184 276.712 86.52 279.392C86.856 282.072 103.608 326.976 103.608 326.976L105.28 330.976L117.008 328.632C117.008 328.632 111.648 311.544 109.64 302.16C107.632 292.776 103.24 277.36 103.24 274.68C103.24 272 113.64 220.816 114.384 217.456C115.128 214.096 118.504 208.936 118.504 208.936L96.048 208.48L94.512 211.368Z" fill="#008FFF" stroke="#263238" stroke-width="1.00396" stroke-miterlimit="10"/>
<path d="M94.512 211.368C94.512 211.368 92.048 228.4 93.064 240.24C94.08 252.08 96.264 277.288 96.264 281.04C96.264 284.792 102.32 307.2 102.664 314.24C103.2 324.408 102.448 329.44 102.448 329.44L102.088 333.128C102.088 333.128 109.152 334.136 110.696 334.576C112.479 335.035 114.32 335.235 116.16 335.168C116.16 335.168 118.728 323.864 118.728 314.232C118.728 304.6 116.592 284.776 115.528 276.744C114.464 268.712 117.816 237.728 119.72 231.944C121.624 226.16 125.784 213.912 122.984 207.656C120.184 201.4 94.512 211.368 94.512 211.368Z" fill="#008FFF" stroke="#263238" stroke-width="1.00396" stroke-miterlimit="10"/>
<path d="M126.096 204.52L125.84 212.136C125.84 212.136 121.28 213.04 115.136 214.104C110.064 214.984 97.328 213.872 93.04 213.456C92.6493 213.421 92.288 213.234 92.0348 212.934C91.7816 212.635 91.657 212.247 91.688 211.856L92.104 204.976L126.096 204.52Z" fill="#263238"/>
<path d="M108.272 128.6C108.272 128.6 101.072 136.384 98.3601 141.224C95.6481 146.064 94.5761 153.48 93.5601 159.32C92.5441 165.16 95.2961 178.872 94.5201 185.168L92.0641 205C92.0641 205 91.5361 206.344 93.3041 207.816C95.0721 209.288 103.704 209.824 111.504 210.216C114.352 210.36 122.856 208.528 124.248 208.44C125.928 208.336 125.984 206.2 126.056 204.52C126.392 196.624 127.816 175.576 128.752 166.408C130.68 147.712 120.128 129.664 108.272 128.6Z" fill="white" stroke="#263238" stroke-width="1.00396" stroke-miterlimit="10"/>
<g style="mix-blend-mode:multiply">
<path d="M127.872 177.04C128.192 172.888 128.512 169.12 128.792 166.408C128.872 165.608 128.92 164.808 128.96 164.008L109.832 167.208L93.4 161.608C93.4018 165.008 93.5941 168.405 93.976 171.784L110.096 176.296L127.872 177.04Z" fill="#008FFF"/>
</g>
<g style="mix-blend-mode:multiply">
<path d="M107.56 129.384C106.472 130.592 104.312 133.048 102.256 135.656L114.4 148L118.4 146.4L107.56 129.384Z" fill="#008FFF"/>
</g>
<path d="M108.272 128.6C108.272 128.6 101.072 136.384 98.36 141.224C97.5559 142.695 96.9045 144.244 96.416 145.848L110.896 129.12C110.041 128.861 109.162 128.687 108.272 128.6Z" fill="#263238"/>
<g style="mix-blend-mode:multiply">
<path d="M94.1201 156.168L109.832 161.336L128.912 159.144C128.613 154.391 127.557 149.716 125.784 145.296L110.4 151.464L96.6481 145.232C95.5236 148.806 94.6784 152.463 94.1201 156.168Z" fill="#008FFF"/>
</g>
<g style="mix-blend-mode:multiply">
<path d="M121.168 196.624C113.199 197.962 105.022 197.294 97.3761 194.68L93.544 193.368L92.3521 202.968L96.7201 204.192C105.024 206.514 113.703 207.182 122.264 206.16L125.792 205.736C125.976 205.347 126.079 204.926 126.096 204.496C126.192 202.36 126.36 199.256 126.576 195.696L121.168 196.624Z" fill="#008FFF"/>
</g>
<g style="mix-blend-mode:multiply">
<path d="M123.304 183.552C115.335 184.895 107.156 184.224 99.512 181.6L94.632 179.928C94.7531 181.671 94.729 183.421 94.56 185.16L93.992 189.776L98.856 191.136C107.157 193.46 115.833 194.131 124.392 193.112L126.792 192.824C126.992 189.624 127.224 186.216 127.472 182.848L123.304 183.552Z" fill="#008FFF"/>
</g>
<path d="M48.249 149.722L63.7173 162.158L64.384 161.329L48.9157 148.892L48.249 149.722Z" fill="#263238"/>
<path d="M115.72 137.232C115.72 137.232 121.392 141.096 121.52 150.224C121.576 154.224 121.16 157.96 120.24 164.512C119.32 171.064 113.608 192.4 109.16 194.992C104.712 197.584 97.808 192.688 97.808 192.688L64.416 170.52L56.344 164L52.344 156.448L53.6 154.048L63.448 161.6L58.144 156.696L59.184 155.376L61.104 156.712L66.704 158.808L67.928 166.808L69.656 167.992L101.6 179.664C101.6 179.664 101.2 162.472 101.496 159.184C101.792 155.896 102.2 147.632 105.72 141.64" fill="white"/>
<g style="mix-blend-mode:multiply" opacity="0.5">
<path d="M101.376 166.672C101.376 172.608 101.576 179.664 101.576 179.664L69.664 168.04L67.936 166.856L66.712 158.856L61.112 156.76L59.2 155.4L58.16 156.72L63.448 161.6L53.6 154.048L52.408 156.408L56.408 163.96L64.48 170.52L66.512 171.872L110.632 186.088L101.376 166.672Z" fill="#008FFF"/>
</g>
<path d="M115.72 137.232C115.72 137.232 121.392 141.096 121.52 150.224C121.576 154.224 121.16 157.96 120.24 164.512C119.32 171.064 113.608 192.4 109.16 194.992C104.712 197.584 97.808 192.688 97.808 192.688L64.416 170.52L56.344 164L52.344 156.448L53.6 154.048L63.448 161.6L58.144 156.696L59.184 155.376L61.104 156.712L66.704 158.808L67.928 166.808L69.656 167.992L101.6 179.664C101.6 179.664 101.2 162.472 101.496 159.184C101.792 155.896 102.2 147.632 105.72 141.64" stroke="#263238" stroke-width="1.00396" stroke-miterlimit="10"/>
<path d="M101.6 179.664L113.792 188.464L116.952 182.864C116.952 182.864 119.136 181.144 119.456 179.848C119.776 178.552 119.368 176.448 119.696 175.152C120.024 173.856 121.656 172.64 121.808 169.504C121.96 166.368 121.808 163.752 121.808 163.752C121.808 163.752 124.448 152.896 124.16 148.176C123.872 143.456 119.32 135.112 115.672 134.928C112.024 134.744 107.28 135.296 103.6 140.864C99.9201 146.432 100.672 162.688 100.096 163.704C99.5201 164.72 100.32 169.736 100.32 169.736C100 169.974 99.7351 170.278 99.542 170.627C99.3488 170.976 99.2323 171.362 99.2001 171.76C99.1361 173.064 100.544 176.272 100.544 176.272L101.6 179.664Z" fill="white" stroke="#263238" stroke-width="1.00396" stroke-miterlimit="10"/>
<g style="mix-blend-mode:multiply">
<path d="M100.416 159.528C100.441 160.924 100.337 162.319 100.104 163.696C99.592 164.608 100.176 168.728 100.304 169.568C107.161 171.698 114.413 172.245 121.512 171.168C121.665 170.612 121.756 170.04 121.784 169.464C121.944 166.336 121.784 163.712 121.784 163.712C121.784 163.712 122.016 162.744 122.336 161.272C114.984 161.739 107.602 161.152 100.416 159.528Z" fill="#008FFF"/>
</g>
<g style="mix-blend-mode:multiply">
<path d="M103.104 141.752C101.96 144.048 101.32 147.496 100.952 150.992C108.215 153.764 116.045 154.717 123.76 153.768C124.068 151.918 124.204 150.043 124.168 148.168C124.029 146.686 123.679 145.231 123.128 143.848C116.391 144.005 109.662 143.301 103.104 141.752Z" fill="#008FFF"/>
</g>
<path d="M100.544 176.36L101.576 179.664L113.768 188.464L116.928 182.864C116.928 182.864 119.112 181.144 119.432 179.848C119.489 179.623 119.524 179.392 119.536 179.16C113.111 179.049 106.728 178.108 100.544 176.36Z" fill="#263238"/>
<path d="M109.368 334.472C109.368 334.472 109.64 327.544 110.968 317.416C112.296 307.288 109.104 292.904 108.568 290.504C108.032 288.104 108.84 282.776 108.304 280.904C107.768 279.032 105.176 271.048 106.704 261.784C108.232 252.52 109.472 228.032 109.472 228.032C109.472 228.032 105.624 224.904 104.496 220.832C103.368 216.76 104.232 215.48 104.232 215.48" stroke="#263238" stroke-width="1.00396" stroke-miterlimit="10"/>
<path d="M111.152 215.856L109.672 224.048" stroke="#263238" stroke-width="1.00396" stroke-miterlimit="10"/>
</svg>
