<svg width="350" height="350" viewBox="0 0 350 350" fill="none" xmlns="http://www.w3.org/2000/svg">
<path d="M350 267.68H0V267.855H350V267.68Z" fill="#E6E6E6"/>
<path d="M87.3741 278.271H64.1901V278.446H87.3741V278.271Z" fill="#E6E6E6"/>
<path d="M56.854 278.271H43.421V278.446H56.854V278.271Z" fill="#E6E6E6"/>
<path d="M147.385 280.847H133.952V281.022H147.385V280.847Z" fill="#E6E6E6"/>
<path d="M217.427 284.753H187.194V284.928H217.427V284.753Z" fill="#E6E6E6"/>
<path d="M180.964 284.753H176.533V284.928H180.964V284.753Z" fill="#E6E6E6"/>
<path d="M317.345 280.847H251.769V281.022H317.345V280.847Z" fill="#E6E6E6"/>
<path d="M165.9 236.46H30.7371C29.6782 236.458 28.6634 236.036 27.9153 235.287C27.1672 234.537 26.7471 233.522 26.7471 232.463V42.462C26.7563 41.4092 27.1805 40.4026 27.9276 39.6608C28.6747 38.9189 29.6842 38.5018 30.7371 38.5H165.9C166.96 38.5 167.977 38.9211 168.726 39.6707C169.476 40.4203 169.897 41.4369 169.897 42.497V232.463C169.897 233.523 169.476 234.54 168.726 235.289C167.977 236.039 166.96 236.46 165.9 236.46ZM30.7371 38.64C29.7246 38.6419 28.7543 39.0453 28.039 39.7619C27.3238 40.4785 26.9221 41.4496 26.9221 42.462V232.463C26.9221 233.475 27.3238 234.447 28.039 235.163C28.7543 235.88 29.7246 236.283 30.7371 236.285H165.9C166.913 236.283 167.884 235.88 168.601 235.164C169.317 234.447 169.72 233.476 169.722 232.463V42.462C169.72 41.4489 169.317 40.4778 168.601 39.7615C167.884 39.0451 166.913 38.6419 165.9 38.64H30.7371Z" fill="#E6E6E6"/>
<path d="M317.317 236.46H182.147C181.087 236.458 180.072 236.036 179.323 235.287C178.573 234.538 178.152 233.522 178.15 232.463V42.462C178.161 41.4086 178.587 40.402 179.335 39.6603C180.083 38.9187 181.093 38.5018 182.147 38.5H317.317C318.369 38.5036 319.376 38.9216 320.122 39.6632C320.867 40.4048 321.291 41.4104 321.3 42.462V232.463C321.3 233.521 320.881 234.535 320.134 235.284C319.388 236.034 318.375 236.456 317.317 236.46ZM182.147 38.64C181.134 38.6419 180.163 39.0451 179.446 39.7615C178.73 40.4778 178.327 41.4489 178.325 42.462V232.463C178.327 233.476 178.73 234.447 179.446 235.164C180.163 235.88 181.134 236.283 182.147 236.285H317.317C318.33 236.283 319.301 235.88 320.017 235.164C320.734 234.447 321.137 233.476 321.139 232.463V42.462C321.137 41.4489 320.734 40.4778 320.017 39.7615C319.301 39.0451 318.33 38.6419 317.317 38.64H182.147Z" fill="#E6E6E6"/>
<path d="M187.18 207.886H171.787V268.947H187.18V207.886Z" fill="#E0E0E0"/>
<path d="M184.254 268.947H187.18V260.631H181.188L184.254 268.947Z" fill="#FAFAFA"/>
<path d="M119.728 207.886H104.335V268.947H119.728V207.886Z" fill="#E0E0E0"/>
<path d="M187.18 207.886H117.18V263.844H187.18V207.886Z" fill="#FAFAFA"/>
<path d="M184.639 210.637V225.442H119.7V210.637H184.618H184.639ZM184.891 210.364H119.448V225.708H184.912V210.364H184.891Z" fill="#E0E0E0"/>
<path d="M120.099 268.947H117.18V260.631H123.165L120.099 268.947Z" fill="#FAFAFA"/>
<path d="M150.633 218.036C150.633 218.342 150.724 218.641 150.894 218.895C151.064 219.15 151.305 219.348 151.588 219.465C151.871 219.582 152.182 219.613 152.482 219.553C152.782 219.494 153.058 219.346 153.274 219.13C153.49 218.914 153.638 218.638 153.697 218.338C153.757 218.038 153.726 217.727 153.609 217.444C153.492 217.161 153.294 216.92 153.04 216.75C152.785 216.58 152.486 216.489 152.18 216.489C151.77 216.489 151.376 216.652 151.086 216.942C150.796 217.232 150.633 217.626 150.633 218.036Z" fill="#E6E6E6"/>
<path d="M184.639 228.459V243.264H119.7V228.459H184.618H184.639ZM184.891 228.193H119.448V243.537H184.912V228.2L184.891 228.193Z" fill="#E0E0E0"/>
<path d="M150.633 235.9C150.633 236.206 150.724 236.505 150.894 236.76C151.064 237.014 151.305 237.212 151.588 237.329C151.871 237.446 152.182 237.477 152.482 237.417C152.782 237.358 153.058 237.21 153.274 236.994C153.49 236.778 153.638 236.502 153.697 236.202C153.757 235.902 153.726 235.591 153.609 235.308C153.492 235.025 153.294 234.784 153.04 234.614C152.785 234.444 152.486 234.353 152.18 234.353C151.77 234.353 151.376 234.516 151.086 234.806C150.796 235.096 150.633 235.49 150.633 235.9Z" fill="#E6E6E6"/>
<path d="M184.639 246.288V261.1H119.7V246.288H184.618H184.639ZM184.891 246.015H119.448V261.366H184.912V246.015H184.891Z" fill="#E0E0E0"/>
<path d="M150.633 253.694C150.634 254 150.726 254.298 150.897 254.552C151.068 254.805 151.31 255.002 151.593 255.118C151.876 255.234 152.187 255.264 152.486 255.203C152.786 255.143 153.061 254.995 153.276 254.778C153.492 254.562 153.639 254.286 153.698 253.986C153.757 253.686 153.726 253.376 153.609 253.093C153.491 252.811 153.293 252.57 153.039 252.4C152.785 252.231 152.486 252.14 152.18 252.14C151.976 252.14 151.775 252.18 151.586 252.258C151.398 252.337 151.227 252.451 151.084 252.596C150.94 252.74 150.826 252.911 150.749 253.1C150.671 253.288 150.632 253.49 150.633 253.694Z" fill="#E6E6E6"/>
<path d="M110.327 172.424H94.934V268.954H110.327V172.424Z" fill="#E0E0E0"/>
<path d="M107.401 268.947H110.327V260.631H104.342L107.401 268.947Z" fill="#FAFAFA"/>
<path d="M52.801 172.424H37.408V268.954H52.801V172.424Z" fill="#E0E0E0"/>
<path d="M110.327 172.424H50.246V263.851H110.327V172.424Z" fill="#FAFAFA"/>
<path d="M107.737 175V195.699H52.836V175H107.737ZM108.059 174.685H52.5V196H108.045V174.692L108.059 174.685Z" fill="#E0E0E0"/>
<path d="M107.737 198.226V253.127H81.585V198.226H107.737ZM108.059 197.904H81.27V253.449H108.059V197.904Z" fill="#E0E0E0"/>
<path d="M78.988 198.226V253.127H52.836V198.226H78.988ZM79.303 197.904H52.5V253.449H79.289V197.904H79.303Z" fill="#E0E0E0"/>
<path d="M53.172 268.947H50.246V260.631H56.238L53.172 268.947Z" fill="#FAFAFA"/>
<path d="M78.736 185.36C78.7346 185.668 78.8246 185.969 78.9945 186.225C79.1644 186.482 79.4066 186.682 79.6904 186.801C79.9743 186.919 80.2869 186.951 80.5888 186.892C80.8907 186.833 81.1683 186.685 81.3863 186.468C81.6044 186.251 81.7531 185.974 81.8136 185.673C81.8741 185.371 81.8438 185.058 81.7263 184.774C81.6089 184.49 81.4098 184.246 81.1541 184.075C80.8984 183.904 80.5976 183.813 80.29 183.813C79.879 183.813 79.4848 183.976 79.1936 184.266C78.9024 184.556 78.7378 184.949 78.736 185.36Z" fill="#E6E6E6"/>
<path d="M84.2799 224.371C84.2799 224.679 84.3712 224.979 84.5423 225.235C84.7134 225.491 84.9565 225.69 85.2409 225.807C85.5252 225.925 85.838 225.955 86.1397 225.895C86.4413 225.834 86.7182 225.685 86.9352 225.467C87.1523 225.249 87.2997 224.972 87.3589 224.67C87.4181 224.368 87.3863 224.055 87.2676 223.771C87.1489 223.488 86.9487 223.245 86.6922 223.075C86.4357 222.906 86.1346 222.816 85.8269 222.817C85.6232 222.817 85.4214 222.857 85.2333 222.935C85.0451 223.014 84.8743 223.128 84.7305 223.273C84.5868 223.417 84.473 223.588 84.3957 223.777C84.3183 223.965 84.279 224.167 84.2799 224.371Z" fill="#E6E6E6"/>
<path d="M73.199 224.371C73.2004 224.677 73.2923 224.975 73.4631 225.229C73.6339 225.482 73.876 225.679 74.1588 225.795C74.4416 225.911 74.7524 225.941 75.0521 225.88C75.3517 225.82 75.6267 225.672 75.8423 225.455C76.058 225.239 76.2046 224.963 76.2638 224.663C76.3229 224.363 76.2918 224.053 76.1746 223.77C76.0573 223.488 75.859 223.247 75.6047 223.077C75.3505 222.908 75.0517 222.817 74.746 222.817C74.5422 222.817 74.3405 222.857 74.1524 222.935C73.9642 223.014 73.7934 223.128 73.6496 223.273C73.5059 223.417 73.3921 223.588 73.3147 223.777C73.2374 223.965 73.1981 224.167 73.199 224.371Z" fill="#E6E6E6"/>
<path d="M71.449 145.509H64.96C65.558 148.657 65.9345 151.843 66.087 155.043C66.087 158.543 61.145 172.424 68.187 172.424C75.229 172.424 70.287 158.578 70.287 155.043C70.4509 151.842 70.8392 148.656 71.449 145.509Z" fill="#E0E0E0"/>
<path d="M46.76 159.705V163.905C46.7674 166.157 47.6651 168.314 49.2572 169.906C50.8493 171.498 53.0065 172.396 55.258 172.403H59.458C61.7096 172.396 63.8668 171.498 65.4589 169.906C67.0509 168.314 67.9486 166.157 67.956 163.905V159.705H46.76Z" fill="#F5F5F5"/>
<path d="M136.969 198.982C136.969 203.882 142.45 207.886 149.149 207.886H155.197C161.896 207.886 167.377 203.882 167.377 198.982H136.969Z" fill="#E0E0E0"/>
<path d="M297.227 191.8C293.559 194.796 288.491 200.277 283.857 207.991C280.763 213.129 278.901 218.491 278.082 225.617C278.082 217.567 278.131 208.922 278.159 200.76C279.09 198.66 281.218 193.816 282.744 189.994C287.833 177.233 289.744 174.09 294.315 163.086C300.426 148.386 306.684 130.984 304.892 132.377C301.238 135.212 287.238 161.427 285.726 165.179C281.605 175.192 279.057 185.782 278.173 196.574C278.173 188.874 278.229 181.874 278.257 176.442C278.355 158.725 278.656 153.006 278.803 151.242C279.37 150.346 280.035 149.303 280.427 148.743C283.717 143.983 284.984 139.937 288.078 132.839C292.474 122.794 296.254 104.951 295.148 105.847C290.542 109.599 286.916 117.649 282.142 127.918C277.368 138.187 278.733 144.088 277.788 152.852C277.592 154.574 277.438 161.07 277.326 170.065C276.094 160.475 273.77 154.161 269.535 148.421C264.327 141.358 259.287 136.591 255.591 134.099C251.895 131.607 261.975 148.953 266.791 156.499C271.082 163.247 275.037 169.19 277.291 175.049C277.172 187.25 277.116 202.692 277.116 217.049C276.01 210.511 274.204 203.462 271.796 198.009C268.898 191.457 264.446 181.405 260.897 177.996C260.05 177.177 264.607 196.728 267.533 201.922C270.459 207.116 272.608 212.023 274.449 214.97C274.876 215.67 276.304 218.309 277.116 219.835C277.116 237.384 277.214 252.868 277.368 258.139H278.124C278.075 256.781 278.061 247.849 278.082 236.033C279.909 229.621 284.081 222.299 287.525 215.621C291.277 208.39 300.895 188.825 297.227 191.8Z" fill="#E0E0E0"/>
<path d="M288.708 268.947H266.77L265.111 247.443H290.367L288.708 268.947Z" fill="#F0F0F0"/>
<path d="M291.998 249.949H263.473L262.661 242.69H292.817L291.998 249.949Z" fill="#F5F5F5"/>
<path d="M86.9821 52.85H47.7471V95.935H86.9821V52.85Z" fill="#E0E0E0"/>
<path d="M91.231 52.85H50.701V95.935H91.231V52.85Z" fill="#F5F5F5"/>
<path d="M87.8359 92.54V56.245H54.096V92.54H87.8359Z" fill="white"/>
<path d="M79.653 83.734V65.037H62.272V83.734H79.653Z" fill="#F5F5F5"/>
<path d="M287.035 57.869H250.586V97.895H287.035V57.869Z" fill="#E0E0E0"/>
<path d="M290.983 57.869H253.337V97.895H290.983V57.869Z" fill="#F5F5F5"/>
<path d="M287.833 94.738V61.026H256.494V94.738H287.833Z" fill="white"/>
<path d="M272.16 87.661C277.561 87.661 281.939 83.2828 281.939 77.882C281.939 72.4812 277.561 68.103 272.16 68.103C266.759 68.103 262.381 72.4812 262.381 77.882C262.381 83.2828 266.759 87.661 272.16 87.661Z" fill="#F5F5F5"/>
<path d="M127.743 78.54H98.637V110.502H127.743V78.54Z" fill="#E0E0E0"/>
<path d="M130.893 78.54H100.828V110.502H130.893V78.54Z" fill="#F5F5F5"/>
<path d="M128.373 107.982V81.06H103.348V107.982H128.373Z" fill="white"/>
<path d="M115.864 87.71L109.018 99.568H122.71L115.864 87.71Z" fill="#F5F5F5"/>
<path d="M175 299.292C249.958 299.292 310.723 295.744 310.723 291.368C310.723 286.992 249.958 283.444 175 283.444C100.042 283.444 39.277 286.992 39.277 291.368C39.277 295.744 100.042 299.292 175 299.292Z" fill="#F5F5F5"/>
<path d="M244.475 114.401L237.531 111.601C237.531 111.601 228.368 128.31 225.743 129.157C222.173 130.305 214.781 133.497 210.399 134.057C209.804 134.757 208.831 136.934 208.922 137.725C214.809 139.692 227.745 137.081 230.517 135.023C236.824 130.354 244.475 114.401 244.475 114.401Z" fill="#E58A7B"/>
<path d="M246.61 110.6C247.905 115.381 240.891 124.999 240.891 124.999L231.7 119.847C231.7 119.847 233.422 115.892 235.522 111.867C238.889 105.364 245.133 105.147 246.61 110.6Z" fill="#008FFF"/>
<path opacity="0.2" d="M246.61 110.6C247.905 115.381 240.891 124.999 240.891 124.999L231.7 119.847C231.7 119.847 233.422 115.892 235.522 111.867C238.889 105.364 245.133 105.147 246.61 110.6Z" fill="black"/>
<path opacity="0.2" d="M235.347 121.905L238.966 123.935L239.603 112.826C237.496 114.443 236.012 119.315 235.347 121.905Z" fill="black"/>
<path d="M240.562 107.002C240.562 107.002 233.408 122.92 237.58 152.558H265.769C266.217 148.232 264.733 127.12 270.102 106.736C267.01 106.132 263.881 105.732 260.736 105.539C256.747 105.308 252.748 105.308 248.759 105.539C245.994 105.82 243.254 106.309 240.562 107.002Z" fill="#008FFF"/>
<path opacity="0.2" d="M240.562 107.002C240.562 107.002 233.408 122.92 237.58 152.558H265.769C266.217 148.232 264.733 127.12 270.102 106.736C267.01 106.132 263.881 105.732 260.736 105.539C256.747 105.308 252.748 105.308 248.759 105.539C245.994 105.82 243.254 106.309 240.562 107.002Z" fill="black"/>
<g style="mix-blend-mode:multiply">
<path d="M234.024 291.998C233.982 292.754 244.671 293.363 257.894 293.363C271.117 293.363 281.883 292.754 281.925 291.998C281.967 291.242 271.285 290.64 258.055 290.64C244.825 290.64 234.073 291.249 234.024 291.998Z" fill="#E8ECF1"/>
</g>
<path d="M252.84 272.134L247.841 274.069L252.147 285.195L257.147 283.26L252.84 272.134Z" fill="#E58A7B"/>
<path d="M275.135 286.615H269.864L267.932 274.414H273.203L275.135 286.615Z" fill="#E58A7B"/>
<path d="M269.5 286.006H275.422C275.525 286.006 275.624 286.043 275.702 286.11C275.78 286.176 275.832 286.269 275.849 286.37L276.612 291.053C276.628 291.17 276.619 291.29 276.584 291.404C276.55 291.517 276.492 291.622 276.414 291.711C276.335 291.8 276.239 291.871 276.13 291.919C276.022 291.968 275.905 291.992 275.786 291.991C273.721 291.956 272.727 291.83 270.123 291.83C268.52 291.83 265.223 291.998 262.997 291.998C260.771 291.998 260.624 289.814 261.541 289.611C265.657 288.722 267.253 287.511 268.625 286.335C268.867 286.122 269.178 286.006 269.5 286.006Z" fill="#263238"/>
<path d="M252 284.2L257.6 282.562C257.7 282.534 257.806 282.541 257.902 282.581C257.997 282.622 258.076 282.694 258.125 282.786L260.225 286.986C260.274 287.093 260.299 287.208 260.298 287.326C260.297 287.443 260.271 287.558 260.221 287.664C260.171 287.77 260.098 287.864 260.008 287.939C259.918 288.014 259.813 288.069 259.7 288.099C257.663 288.659 256.298 289.002 253.75 289.744C251.993 290.255 250.201 291.088 248.465 291.641C247.261 292.026 244.433 292.04 242.97 292.04C240.807 292.04 240.324 289.758 241.255 289.653C243.6 289.394 243.915 289.513 245.21 288.862C247.329 287.936 249.249 286.61 250.866 284.956C251.171 284.609 251.562 284.348 252 284.2Z" fill="#263238"/>
<path d="M211.281 134.029L205.485 131.6L203.098 138.026C205.474 138.388 207.89 138.388 210.266 138.026L211.281 134.029Z" fill="#E58A7B"/>
<path d="M201.173 131.432L201.019 135.702L203.098 138.012L205.485 131.586L201.173 131.432Z" fill="#E58A7B"/>
<path d="M253.526 273.079L248.511 275.015L250.732 280.768L255.747 278.832L253.526 273.079Z" fill="#CF6F64"/>
<path d="M273.203 274.414H267.932L268.933 280.707H274.204L273.203 274.414Z" fill="#CF6F64"/>
<path opacity="0.2" d="M236.684 144.543C236.789 145.81 236.908 147.105 237.062 148.435L258.02 141.631C261.293 140.661 264.137 138.604 266.084 135.8C266.168 133.931 266.273 131.964 266.434 129.913C266.504 128.919 266.588 127.897 266.679 126.861C266.77 125.825 266.896 124.677 267.029 123.571L236.684 144.543Z" fill="black"/>
<path d="M243.53 121.583L242.83 121.499C243.243 117.999 245.854 115.241 248.605 115.311V116.011C246.197 115.962 243.901 118.447 243.53 121.583Z" fill="white"/>
<path d="M247.261 128.044H247.142V127.344C249.55 127.435 251.811 124.922 252.182 121.793L252.882 121.877C252.511 125.3 249.984 128.044 247.261 128.044Z" fill="white"/>
<path d="M260.344 92.05C259.357 95.907 258.195 102.97 260.736 105.539C260.736 105.539 258.958 109.452 251.797 109.452C245.252 109.452 248.759 105.539 248.759 105.539C253.113 104.517 253.19 101.339 252.616 98.329L260.344 92.05Z" fill="#E58A7B"/>
<path d="M257.194 94.612L252.623 98.329C252.765 99.0207 252.847 99.7233 252.868 100.429C254.205 101.759 256.886 98.392 257.159 96.67C257.298 95.9921 257.31 95.2943 257.194 94.612Z" fill="#CF6F64"/>
<path d="M244.762 92.001C245.08 92.5523 245.508 93.032 246.02 93.4102C246.532 93.7884 247.117 94.0569 247.737 94.199C249.417 94.57 250.257 93.023 249.795 91.469C249.382 90.069 248.003 88.186 246.295 88.508C245.929 88.5834 245.587 88.7453 245.296 88.9802C245.006 89.2152 244.776 89.5163 244.626 89.8583C244.476 90.2004 244.41 90.5734 244.433 90.9462C244.457 91.319 244.57 91.6807 244.762 92.001Z" fill="#CF6F64"/>
<path d="M247.541 79.66C244.923 80.857 243.999 91.259 247.289 92.799C250.579 94.339 252.497 77.385 247.541 79.66Z" fill="#263238"/>
<path d="M261.142 86.247C260.512 91.469 260.442 94.542 257.642 97.216C256.774 98.1033 255.678 98.7337 254.475 99.0374C253.272 99.3411 252.008 99.3063 250.823 98.937C249.638 98.5676 248.579 97.878 247.761 96.9443C246.943 96.0107 246.4 94.8692 246.19 93.646C245.343 88.956 246.512 81.207 251.748 79.128C252.848 78.6427 254.058 78.4606 255.252 78.6004C256.446 78.7402 257.582 79.1969 258.54 79.9231C259.498 80.6493 260.245 81.6187 260.702 82.7306C261.16 83.8425 261.312 85.0566 261.142 86.247Z" fill="#E58A7B"/>
<path d="M252.539 82.362C256.417 81.375 259.266 80.703 258.244 83.93C256.893 88.242 255.269 92.414 257.446 92.603C258.776 92.722 264.656 90.23 263.907 87.703C263.256 85.505 266.007 84.903 266.497 83.79C268.31 79.758 263.123 80.29 264.047 77.84C264.971 75.39 259.847 71.442 257.047 73.409C252.49 76.587 244.671 76.538 248.78 71.309C251.727 67.578 246.47 68.341 246.47 68.341C246.47 68.341 249.648 70.224 244.3 73.136C238.644 76.244 243.831 84.595 252.539 82.362Z" fill="#263238"/>
<path d="M263.2 92.001C262.434 93.1088 261.284 93.8922 259.973 94.199C258.244 94.57 257.579 93.023 258.23 91.469C258.811 90.069 260.407 88.186 262.059 88.508C263.711 88.83 264.089 90.629 263.2 92.001Z" fill="#E58A7B"/>
<path d="M237.58 152.558C237.58 152.558 232.848 194.908 232.477 210.98C232.099 227.696 248.514 279.853 248.514 279.853L256.914 276.353C256.914 276.353 247.114 228.697 248.514 212.282C249.998 194.383 256.13 152.586 256.13 152.586L237.58 152.558Z" fill="#008FFF"/>
<path opacity="0.2" d="M249.34 164.185C245.567 172.011 248.108 187.488 250.152 196.658C250.929 190.183 251.853 183.155 252.728 176.652C252.644 166.656 251.867 158.935 249.34 164.185Z" fill="black"/>
<path d="M256.543 273.581C256.585 273.581 257.537 276.255 257.537 276.255L247.849 280.329L246.323 277.487L256.543 273.581Z" fill="#008FFF"/>
<path d="M247.583 152.558C247.583 152.558 251.202 192.836 253.596 207.921C256.228 224.448 266.546 279.489 266.546 279.489H276.199C276.199 279.489 270.417 225.785 269.325 209.419C268.135 191.667 265.769 152.558 265.769 152.558H247.583Z" fill="#008FFF"/>
<path d="M276.346 276.976C276.388 276.976 276.668 279.671 276.668 279.671H266.056L265.3 276.577L276.346 276.976Z" fill="#008FFF"/>
<path opacity="0.2" d="M272.65 273.784C272.628 273.784 272.607 273.777 272.59 273.763C272.573 273.748 272.562 273.729 272.559 273.707C272.503 273.217 267.288 224.707 266.308 210.007C265.244 194.061 263.102 158.69 263.081 158.333C263.08 158.321 263.081 158.31 263.085 158.299C263.089 158.288 263.095 158.278 263.103 158.269C263.111 158.26 263.12 158.254 263.131 158.249C263.142 158.244 263.153 158.242 263.165 158.242C263.188 158.242 263.21 158.251 263.227 158.266C263.244 158.282 263.254 158.303 263.256 158.326C263.256 158.683 265.419 194.026 266.483 210C267.463 224.7 272.678 273.175 272.727 273.7C272.729 273.712 272.728 273.723 272.726 273.735C272.723 273.746 272.717 273.757 272.71 273.766C272.703 273.775 272.694 273.783 272.683 273.788C272.673 273.794 272.662 273.797 272.65 273.798V273.784Z" fill="black"/>
<path d="M253.134 87.703C253.134 88.13 252.868 88.473 252.588 88.473C252.308 88.473 252.105 88.13 252.133 87.703C252.161 87.276 252.399 86.933 252.679 86.933C252.959 86.933 253.162 87.283 253.134 87.703Z" fill="#263238"/>
<path d="M248.332 87.703C248.332 88.13 248.059 88.473 247.786 88.473C247.513 88.473 247.303 88.13 247.324 87.703C247.345 87.276 247.597 86.933 247.877 86.933C248.157 86.933 248.36 87.283 248.332 87.703Z" fill="#263238"/>
<path d="M249.844 87.92C249.26 89.2239 248.507 90.4453 247.604 91.553C248.304 92.253 249.613 91.931 249.613 91.931L249.844 87.92Z" fill="#DF5753"/>
<path d="M249.97 93.716C249.954 93.716 249.938 93.7127 249.923 93.7063C249.908 93.6999 249.894 93.6905 249.883 93.6787C249.872 93.6669 249.863 93.6529 249.858 93.6377C249.852 93.6224 249.85 93.6062 249.851 93.59C249.853 93.5559 249.868 93.5239 249.892 93.5004C249.917 93.477 249.95 93.464 249.984 93.464C250.519 93.4677 251.049 93.3514 251.533 93.1237C252.018 92.896 252.445 92.5626 252.784 92.148C252.808 92.1268 252.839 92.1152 252.871 92.1152C252.904 92.1152 252.935 92.1268 252.959 92.148C252.982 92.1715 252.994 92.2029 252.994 92.2355C252.994 92.2681 252.982 92.2995 252.959 92.323C252.596 92.7636 252.14 93.1174 251.622 93.3584C251.105 93.5995 250.541 93.7217 249.97 93.716Z" fill="#263238"/>
<path d="M253.988 86.415C253.954 86.4322 253.917 86.4412 253.879 86.4412C253.842 86.4412 253.805 86.4322 253.771 86.415C253.509 86.2457 253.211 86.1404 252.901 86.1076C252.591 86.0748 252.278 86.1153 251.986 86.226C251.958 86.2402 251.927 86.2486 251.895 86.2507C251.863 86.2527 251.831 86.2484 251.801 86.2379C251.771 86.2275 251.744 86.2112 251.72 86.1899C251.697 86.1686 251.677 86.1428 251.664 86.114C251.638 86.0517 251.637 85.9817 251.662 85.919C251.687 85.8562 251.735 85.8056 251.797 85.778C252.163 85.6285 252.56 85.5696 252.953 85.6061C253.347 85.6427 253.726 85.7737 254.058 85.988C254.085 86.0063 254.108 86.0297 254.125 86.0568C254.143 86.084 254.155 86.1144 254.161 86.1464C254.167 86.1783 254.166 86.211 254.16 86.2427C254.153 86.2744 254.14 86.3044 254.121 86.331C254.086 86.3712 254.039 86.4003 253.988 86.415Z" fill="#263238"/>
<path d="M246.477 85.015C246.44 85.006 246.406 84.9865 246.379 84.959C246.356 84.9362 246.337 84.9089 246.325 84.8789C246.312 84.8488 246.305 84.8166 246.305 84.784C246.305 84.7514 246.312 84.7191 246.325 84.6891C246.337 84.659 246.356 84.6318 246.379 84.609C246.647 84.3081 246.981 84.0732 247.355 83.9226C247.729 83.7721 248.133 83.7099 248.535 83.741C248.567 83.7459 248.598 83.7575 248.626 83.7748C248.653 83.7922 248.677 83.8151 248.695 83.842C248.714 83.8689 248.726 83.8993 248.732 83.9313C248.739 83.9633 248.738 83.9962 248.731 84.028C248.716 84.0928 248.678 84.1499 248.624 84.1886C248.57 84.2272 248.503 84.2448 248.437 84.238C248.119 84.2179 247.8 84.2706 247.506 84.3918C247.211 84.5131 246.948 84.6999 246.736 84.938C246.704 84.9734 246.663 84.9994 246.617 85.0129C246.572 85.0265 246.523 85.0272 246.477 85.015Z" fill="#263238"/>
<path d="M272.811 113.624L265.531 111.685C265.531 111.685 258.391 129.262 255.864 130.403C252.434 131.971 243.747 137.403 240.051 139.972C239.848 140.847 240.009 143.164 240.471 143.801C246.771 142.653 258.832 138.012 261.352 135.653C267.099 130.27 272.811 113.624 272.811 113.624Z" fill="#E58A7B"/>
<path d="M267.729 286.93C267.374 286.958 267.02 286.862 266.728 286.657C266.638 286.576 266.57 286.472 266.532 286.357C266.494 286.241 266.487 286.118 266.511 285.999C266.515 285.925 266.54 285.853 266.582 285.791C266.624 285.73 266.681 285.68 266.749 285.649C267.337 285.348 268.982 286.391 269.171 286.51C269.192 286.523 269.208 286.542 269.217 286.565C269.226 286.588 269.227 286.613 269.22 286.636C269.214 286.66 269.202 286.683 269.185 286.701C269.168 286.72 269.146 286.733 269.122 286.741C268.666 286.853 268.199 286.917 267.729 286.93ZM267.029 285.838C266.976 285.826 266.921 285.826 266.868 285.838C266.841 285.852 266.819 285.873 266.804 285.899C266.789 285.925 266.782 285.955 266.784 285.985C266.765 286.066 266.768 286.151 266.793 286.231C266.818 286.311 266.863 286.383 266.924 286.44C267.197 286.685 267.883 286.713 268.786 286.538C268.248 286.184 267.643 285.946 267.008 285.838H267.029Z" fill="#008FFF"/>
<path d="M269.087 286.741C269.069 286.747 269.049 286.747 269.031 286.741C268.506 286.447 267.519 285.292 267.666 284.704C267.688 284.611 267.741 284.528 267.816 284.468C267.89 284.408 267.983 284.376 268.079 284.375C268.173 284.362 268.269 284.37 268.359 284.398C268.45 284.426 268.533 284.473 268.604 284.536C269.185 285.033 269.22 286.559 269.22 286.636C269.223 286.659 269.219 286.683 269.208 286.703C269.196 286.723 269.178 286.739 269.157 286.748C269.134 286.753 269.109 286.75 269.087 286.741ZM268.149 284.606H268.1C267.939 284.606 267.918 284.697 267.911 284.732C267.827 285.075 268.45 285.95 268.968 286.363C268.966 285.772 268.782 285.195 268.443 284.711C268.362 284.64 268.257 284.603 268.149 284.606Z" fill="#008FFF"/>
<path d="M249.144 286.055C248.716 286.204 248.249 286.204 247.821 286.055C247.724 286.002 247.641 285.926 247.581 285.833C247.521 285.74 247.486 285.633 247.478 285.523C247.469 285.454 247.478 285.383 247.504 285.319C247.529 285.254 247.571 285.196 247.625 285.152C248.185 284.648 250.474 285.152 250.733 285.25C250.758 285.256 250.779 285.271 250.795 285.291C250.81 285.312 250.818 285.337 250.817 285.362C250.818 285.388 250.811 285.414 250.798 285.437C250.784 285.459 250.764 285.477 250.74 285.488C250.224 285.721 249.691 285.91 249.144 286.055ZM248.003 285.222C247.923 285.238 247.848 285.274 247.786 285.327C247.764 285.344 247.747 285.366 247.737 285.392C247.727 285.418 247.724 285.447 247.73 285.474C247.734 285.547 247.757 285.619 247.797 285.681C247.836 285.743 247.89 285.795 247.954 285.831C248.325 286.027 249.186 285.873 250.299 285.404C249.549 285.215 248.773 285.153 248.003 285.222Z" fill="#008FFF"/>
<path d="M250.719 285.488H250.663C249.963 285.362 248.563 284.557 248.521 283.955C248.521 283.815 248.584 283.619 248.92 283.507C249.034 283.467 249.154 283.449 249.274 283.457C249.395 283.464 249.512 283.495 249.62 283.549C250.376 283.92 250.775 285.264 250.796 285.327C250.801 285.348 250.8 285.37 250.794 285.391C250.788 285.412 250.777 285.431 250.761 285.446C250.751 285.463 250.736 285.478 250.719 285.488ZM249.06 283.717H248.99C248.773 283.794 248.773 283.885 248.773 283.913C248.773 284.277 249.788 284.942 250.495 285.166C250.332 284.604 249.988 284.111 249.515 283.766C249.374 283.695 249.213 283.677 249.06 283.717Z" fill="#008FFF"/>
<path d="M240.646 139.559L233.345 142.919L232.498 145.019L235.193 146.832C235.193 146.832 240.233 146.286 241.668 143.045L240.646 139.559Z" fill="#E58A7B"/>
<path d="M240.954 143.92C240.791 142.517 240.328 141.166 239.596 139.958L240.751 139.09C241.62 140.482 242.174 142.047 242.375 143.675L240.954 143.92Z" fill="#263238"/>
<path d="M242.2 140.553C242.354 140.796 242.43 141.08 242.417 141.368C242.404 141.655 242.303 141.931 242.127 142.159C241.951 142.387 241.71 142.555 241.435 142.641C241.161 142.726 240.866 142.725 240.592 142.638C240.318 142.55 240.078 142.38 239.904 142.151C239.73 141.922 239.631 141.645 239.62 141.358C239.609 141.07 239.686 140.786 239.843 140.545C239.999 140.303 240.225 140.115 240.492 140.007C240.791 139.855 241.138 139.826 241.458 139.929C241.778 140.031 242.045 140.255 242.2 140.553Z" fill="#263238"/>
<path d="M228.41 145.635L229.383 146.615L235.935 143.815L233.345 142.919L228.41 145.635Z" fill="#E58A7B"/>
<path opacity="0.2" d="M256.543 273.581C256.585 273.581 257.537 276.255 257.537 276.255L247.849 280.329L246.323 277.487L256.543 273.581Z" fill="black"/>
<path opacity="0.2" d="M276.346 276.976C276.388 276.976 276.668 279.671 276.668 279.671H266.056L265.3 276.577L276.346 276.976Z" fill="black"/>
<path d="M274.708 111.608C276.633 117.817 269.108 126.308 269.108 126.308L258.713 122.066C259.945 118.477 261.366 114.956 262.969 111.517C266.161 104.636 272.762 105.343 274.708 111.608Z" fill="#008FFF"/>
<path opacity="0.2" d="M274.708 111.608C276.633 117.817 269.108 126.308 269.108 126.308L258.713 122.066C259.945 118.477 261.366 114.956 262.969 111.517C266.161 104.636 272.762 105.343 274.708 111.608Z" fill="black"/>
<path d="M171.416 49.399H166.943V50.12H171.416V49.399Z" fill="#008FFF"/>
<path d="M229.319 77.9355L228.777 89.9493L229.498 89.9818L230.039 77.968L229.319 77.9355Z" fill="#008FFF"/>
<path d="M227.927 52.633H145.327L137.641 224.637H220.241L227.927 52.633Z" fill="#008FFF"/>
<path opacity="0.56" d="M225.463 54.999H142.863L135.177 227.003H217.777L225.463 54.999Z" fill="#FAFAFA"/>
<path opacity="0.07" d="M222.999 57.358H140.399L132.706 229.362H215.306L222.999 57.358Z" fill="#008FFF"/>
<path d="M213.598 132.377H143.094L142.506 145.537H213.01L213.598 132.377Z" fill="white"/>
<path d="M181.867 122.773H143.521L143.262 128.66H181.608L181.867 122.773Z" fill="#008FFF"/>
<path d="M212.009 167.895H141.505L140.917 181.055H211.421L212.009 167.895Z" fill="white"/>
<path opacity="0.47" d="M199.08 198.828H151.669L150.962 214.599H198.373L199.08 198.828Z" fill="#008FFF"/>
<path d="M195.909 217.049H148.498C148.477 217.054 148.456 217.054 148.435 217.049C148.428 217.029 148.428 217.006 148.435 216.986L149.135 201.208C149.135 201.197 149.137 201.187 149.142 201.177C149.146 201.167 149.152 201.158 149.16 201.151C149.168 201.144 149.177 201.138 149.188 201.135C149.198 201.131 149.208 201.13 149.219 201.131H196.63C196.639 201.127 196.648 201.124 196.658 201.124C196.668 201.124 196.677 201.127 196.686 201.131C196.691 201.139 196.694 201.149 196.694 201.159C196.694 201.169 196.691 201.178 196.686 201.187L196 217C195.992 217.016 195.979 217.03 195.962 217.039C195.946 217.047 195.927 217.051 195.909 217.049ZM148.582 216.881H195.825L196.525 201.271H149.282L148.582 216.881Z" fill="white"/>
<path d="M173.586 158.291H141.932L141.673 164.185H173.32L173.586 158.291Z" fill="#008FFF"/>
<path d="M198.177 89.866C197.996 93.696 196.634 97.376 194.278 100.401C192.534 102.686 190.289 104.541 187.717 105.823C185.145 107.106 182.312 107.782 179.438 107.8C177.115 107.818 174.813 107.36 172.674 106.454C170.535 105.549 168.604 104.215 167 102.534C165.396 100.854 164.153 98.8636 163.347 96.6848C162.542 94.5061 162.191 92.1855 162.316 89.866C162.562 85.0528 164.638 80.5155 168.118 77.1819C171.599 73.8483 176.222 71.9703 181.041 71.932C183.366 71.9103 185.67 72.3655 187.812 73.2696C189.953 74.1736 191.887 75.5072 193.493 77.1879C195.099 78.8687 196.343 80.8609 197.149 83.0415C197.954 85.2221 198.304 87.5448 198.177 89.866Z" fill="white"/>
<path d="M199.864 75.684C199.818 76.7024 199.456 77.6811 198.828 78.484C198.363 79.0909 197.766 79.5835 197.082 79.9244C196.397 80.2653 195.644 80.4454 194.88 80.451C194.139 80.4555 193.409 80.2786 192.752 79.9357C192.096 79.5928 191.533 79.0944 191.114 78.484C190.559 77.6592 190.284 76.6773 190.33 75.684C190.398 74.4061 190.95 73.2021 191.875 72.3176C192.8 71.4331 194.027 70.9347 195.307 70.924C195.924 70.9184 196.536 71.0392 197.105 71.279C197.674 71.5189 198.188 71.8727 198.615 72.3187C199.042 72.7646 199.373 73.2933 199.588 73.8721C199.802 74.4508 199.896 75.0675 199.864 75.684Z" fill="#008FFF"/>
<path d="M150.689 138.957C150.655 139.521 150.409 140.051 150 140.441C149.591 140.831 149.049 141.051 148.484 141.057C148.211 141.06 147.941 141.007 147.689 140.902C147.437 140.797 147.21 140.641 147.021 140.444C146.832 140.247 146.686 140.013 146.591 139.758C146.495 139.502 146.454 139.229 146.468 138.957C146.498 138.392 146.744 137.859 147.154 137.469C147.563 137.079 148.107 136.86 148.673 136.857C148.946 136.855 149.216 136.908 149.467 137.014C149.718 137.12 149.945 137.276 150.134 137.472C150.322 137.669 150.469 137.902 150.565 138.157C150.66 138.413 150.702 138.685 150.689 138.957Z" fill="#263238"/>
<path d="M160.125 138.957C160.093 139.522 159.847 140.053 159.438 140.443C159.028 140.833 158.486 141.053 157.92 141.057C157.648 141.059 157.378 141.006 157.127 140.9C156.876 140.794 156.65 140.638 156.462 140.441C156.274 140.244 156.128 140.011 156.033 139.756C155.938 139.501 155.897 139.229 155.911 138.957C155.941 138.393 156.186 137.862 156.594 137.471C157.002 137.081 157.544 136.862 158.109 136.857C158.382 136.854 158.652 136.906 158.904 137.012C159.156 137.117 159.383 137.273 159.572 137.47C159.761 137.667 159.908 137.901 160.003 138.156C160.098 138.412 160.139 138.685 160.125 138.957Z" fill="#263238"/>
<path d="M169.568 138.957C169.536 139.522 169.29 140.053 168.881 140.443C168.471 140.833 167.929 141.053 167.363 141.057C167.091 141.059 166.82 141.006 166.569 140.9C166.318 140.794 166.091 140.638 165.903 140.442C165.714 140.245 165.567 140.012 165.472 139.757C165.376 139.501 165.334 139.229 165.347 138.957C165.379 138.392 165.625 137.861 166.034 137.471C166.444 137.081 166.987 136.861 167.552 136.857C167.825 136.854 168.096 136.906 168.347 137.012C168.599 137.117 168.826 137.273 169.015 137.47C169.204 137.667 169.351 137.901 169.446 138.156C169.541 138.412 169.583 138.685 169.568 138.957Z" fill="#263238"/>
<path d="M149.1 174.475C149.066 175.039 148.82 175.569 148.411 175.959C148.002 176.349 147.46 176.569 146.895 176.575C146.622 176.577 146.352 176.524 146.101 176.418C145.85 176.312 145.623 176.156 145.434 175.96C145.246 175.763 145.099 175.53 145.004 175.275C144.908 175.019 144.866 174.747 144.879 174.475C144.911 173.91 145.157 173.379 145.566 172.989C145.976 172.599 146.518 172.379 147.084 172.375C147.357 172.373 147.627 172.426 147.878 172.532C148.129 172.638 148.356 172.794 148.545 172.99C148.733 173.187 148.88 173.42 148.975 173.675C149.071 173.931 149.113 174.203 149.1 174.475Z" fill="#263238"/>
<path d="M158.536 174.475C158.504 175.038 158.259 175.569 157.851 175.959C157.443 176.348 156.902 176.569 156.338 176.575C156.065 176.578 155.795 176.525 155.543 176.42C155.291 176.315 155.064 176.159 154.875 175.962C154.686 175.765 154.54 175.531 154.444 175.276C154.349 175.02 154.308 174.747 154.322 174.475C154.354 173.91 154.6 173.379 155.009 172.989C155.419 172.599 155.961 172.379 156.527 172.375C156.799 172.373 157.069 172.426 157.32 172.532C157.571 172.638 157.797 172.794 157.985 172.991C158.174 173.188 158.319 173.421 158.414 173.676C158.509 173.931 158.55 174.203 158.536 174.475Z" fill="#263238"/>
<path d="M168 174.475C167.968 175.04 167.722 175.571 167.313 175.961C166.903 176.351 166.361 176.571 165.795 176.575C165.523 176.576 165.253 176.522 165.002 176.416C164.752 176.31 164.525 176.154 164.337 175.957C164.148 175.761 164.002 175.528 163.906 175.273C163.81 175.019 163.767 174.747 163.779 174.475C163.813 173.911 164.059 173.381 164.468 172.991C164.877 172.601 165.419 172.381 165.984 172.375C166.257 172.372 166.527 172.424 166.779 172.53C167.031 172.635 167.258 172.791 167.447 172.988C167.636 173.185 167.783 173.419 167.878 173.674C167.973 173.93 168.014 174.203 168 174.475Z" fill="#263238"/>
<path d="M177.422 174.475C177.388 175.039 177.142 175.569 176.733 175.959C176.324 176.349 175.782 176.569 175.217 176.575C174.945 176.576 174.675 176.522 174.424 176.416C174.174 176.31 173.947 176.154 173.759 175.957C173.57 175.761 173.424 175.528 173.328 175.273C173.232 175.019 173.189 174.747 173.201 174.475C173.235 173.911 173.481 173.381 173.89 172.991C174.299 172.601 174.841 172.381 175.406 172.375C175.679 172.373 175.949 172.426 176.2 172.532C176.451 172.638 176.678 172.794 176.867 172.99C177.055 173.187 177.202 173.42 177.297 173.675C177.393 173.931 177.435 174.203 177.422 174.475Z" fill="#263238"/>
<path d="M186.9 174.475C186.866 175.039 186.62 175.569 186.211 175.959C185.802 176.349 185.26 176.569 184.695 176.575C184.422 176.578 184.152 176.525 183.9 176.42C183.648 176.315 183.421 176.159 183.232 175.962C183.043 175.765 182.897 175.531 182.801 175.276C182.706 175.02 182.665 174.747 182.679 174.475C182.711 173.91 182.957 173.379 183.366 172.989C183.776 172.599 184.318 172.379 184.884 172.375C185.157 172.373 185.427 172.426 185.678 172.532C185.929 172.638 186.156 172.794 186.345 172.99C186.533 173.187 186.68 173.42 186.776 173.675C186.871 173.931 186.913 174.203 186.9 174.475Z" fill="#263238"/>
<path d="M185.467 88.9319C188.397 86.0668 188.553 81.4743 185.815 78.6743C183.077 75.8744 178.482 75.9272 175.552 78.7924C172.622 81.6575 172.467 86.25 175.205 89.05C177.943 91.8499 182.538 91.7971 185.467 88.9319Z" fill="#008FFF"/>
<path d="M194.278 100.401C192.534 102.686 190.29 104.541 187.717 105.823C185.145 107.106 182.312 107.782 179.438 107.8C176.651 107.824 173.9 107.161 171.43 105.871C168.959 104.58 166.843 102.702 165.27 100.401C168.672 97.013 174.055 94.801 180.019 94.801C185.983 94.801 191.177 97.013 194.278 100.401Z" fill="#008FFF"/>
<path opacity="0.1" d="M185.467 88.9319C188.397 86.0668 188.553 81.4743 185.815 78.6743C183.077 75.8744 178.482 75.9272 175.552 78.7924C172.622 81.6575 172.467 86.25 175.205 89.05C177.943 91.8499 182.538 91.7971 185.467 88.9319Z" fill="white"/>
<path opacity="0.1" d="M194.278 100.401C192.534 102.686 190.29 104.541 187.717 105.823C185.145 107.106 182.312 107.782 179.438 107.8C176.651 107.824 173.9 107.161 171.43 105.871C168.959 104.58 166.843 102.702 165.27 100.401C168.672 97.013 174.055 94.801 180.019 94.801C185.983 94.801 191.177 97.013 194.278 100.401Z" fill="white"/>
<path d="M91.287 148.708C90.622 150.164 89.922 151.767 89.313 153.321C88.704 154.875 88.081 156.478 87.542 158.074C86.4415 161.219 85.6033 164.45 85.036 167.734L84.882 168.763C84.8673 168.94 84.8839 169.117 84.931 169.288C85.0962 169.868 85.3564 170.417 85.701 170.912C86.5999 172.194 87.6427 173.368 88.809 174.412C90.0386 175.556 91.3284 176.633 92.673 177.639C94.017 178.675 95.431 179.683 96.824 180.635L95.515 183.092C92.1887 181.643 89.0315 179.833 86.1 177.695C84.536 176.554 83.1245 175.218 81.9 173.719C81.1742 172.827 80.6081 171.815 80.227 170.73C80.0054 170.052 79.892 169.343 79.891 168.63C79.891 168.462 79.891 168.217 79.891 168.098V167.755L79.961 167.055C80.3623 163.408 81.1292 159.811 82.25 156.317C82.796 154.595 83.377 152.88 84.042 151.207C84.707 149.534 85.393 147.896 86.24 146.195L91.287 148.708Z" fill="#E58A7B"/>
<path d="M95.8369 180.201L100.786 177.695L99.5049 183.127C99.5049 183.127 96.1099 184.079 94.5349 182.427L95.8369 180.201Z" fill="#E58A7B"/>
<path d="M105.315 178.584L103.999 183.078L99.5049 183.127L100.786 177.695L105.315 178.584Z" fill="#E58A7B"/>
<path d="M112.301 122.5C112.566 123.47 112.934 124.409 113.4 125.3C113.264 125.454 113.089 125.569 112.893 125.632C112.697 125.695 112.487 125.703 112.287 125.657L112.301 122.5Z" fill="#DF5753"/>
<path d="M112.154 122.542C112.444 122.542 112.679 122.182 112.679 121.737C112.679 121.292 112.444 120.932 112.154 120.932C111.864 120.932 111.629 121.292 111.629 121.737C111.629 122.182 111.864 122.542 112.154 122.542Z" fill="#263238"/>
<path d="M112 120.96L113.064 120.659C113.064 120.659 112.546 121.485 112 120.96Z" fill="#263238"/>
<path d="M98.6299 127.638C99.2669 130.893 99.904 136.864 97.6219 139.041C97.6219 139.041 98.5179 142.345 104.573 142.345C111.23 142.345 107.751 139.041 107.751 139.041C104.118 138.173 104.209 135.478 104.846 132.944L98.6299 127.638Z" fill="#E58A7B"/>
<path d="M96.8589 120.218C97.1949 125.657 97.2229 127.967 99.9669 130.76C104.104 134.96 110.712 133.364 112.007 127.96C113.176 123.06 112.434 114.996 107.107 112.833C105.938 112.351 104.665 112.176 103.409 112.323C102.153 112.471 100.955 112.936 99.9291 113.675C98.9031 114.415 98.0827 115.404 97.5455 116.549C97.0082 117.693 96.7719 118.956 96.8589 120.218Z" fill="#E58A7B"/>
<path d="M97.3979 114.1C94.6679 115.094 91.0279 114.352 92.4559 122.773C93.9679 131.691 91.6439 134.624 91.6439 134.624C91.6439 134.624 101.997 136.829 112.567 134.491C112.567 134.491 109.34 128.849 110.243 124.691C111.398 119.441 110.488 117.502 110.488 117.502C110.488 117.502 101.234 112.7 97.3979 114.1Z" fill="#263238"/>
<path d="M108.948 123.053C108.951 124.087 109.247 125.099 109.802 125.972C110.544 127.106 111.419 126.672 111.636 125.468C111.832 124.411 111.685 122.542 110.74 121.814C109.795 121.086 108.962 121.8 108.948 123.053Z" fill="#E58A7B"/>
<path d="M95.025 115.017C94.241 112.812 97.979 109.417 105.889 110.817C113.799 112.217 114.142 118.804 114.142 118.804L112.546 116.9L112.616 118.902L104.489 120.463L95.025 115.017Z" fill="#263238"/>
<path d="M95.697 139.412C95.6503 139.092 95.7303 138.767 95.9199 138.506C96.1094 138.244 96.3937 138.067 96.712 138.012C99.176 137.606 104.776 136.78 107.59 137.172C109.69 137.466 110.236 138.684 110.327 139.685C110.341 139.86 110.318 140.037 110.258 140.202C110.199 140.368 110.104 140.518 109.982 140.644C109.859 140.77 109.711 140.869 109.547 140.933C109.383 140.996 109.208 141.025 109.032 141.015L96.866 140.469C96.5792 140.455 96.3061 140.341 96.0931 140.149C95.8801 139.956 95.7402 139.696 95.697 139.412Z" fill="#008FFF"/>
<path opacity="0.6" d="M95.697 139.412C95.6503 139.092 95.7303 138.767 95.9199 138.506C96.1094 138.244 96.3937 138.067 96.712 138.012C99.176 137.606 104.776 136.78 107.59 137.172C109.69 137.466 110.236 138.684 110.327 139.685C110.341 139.86 110.318 140.037 110.258 140.202C110.199 140.368 110.104 140.518 109.982 140.644C109.859 140.77 109.711 140.869 109.547 140.933C109.383 140.996 109.208 141.025 109.032 141.015L96.866 140.469C96.5792 140.455 96.3061 140.341 96.0931 140.149C95.8801 139.956 95.7402 139.696 95.697 139.412Z" fill="black"/>
<path d="M102.732 261.702L107.247 264.838L114.8 254.597L110.285 251.468L102.732 261.702Z" fill="#E58A7B"/>
<path d="M92.204 261.499L96.971 264.215L103.656 253.386L98.889 250.67L92.204 261.499Z" fill="#E58A7B"/>
<path d="M114.793 254.597L110.901 259.875L106.386 256.746L110.278 251.468L114.793 254.597Z" fill="#CF6F64"/>
<path d="M98.882 250.67L103.656 253.393L100.212 258.972L95.438 256.249L98.882 250.67Z" fill="#CF6F64"/>
<path d="M106.54 173.6C106.54 173.6 124.166 195.811 120.855 217.056C118.188 234.213 102.718 257.446 102.718 257.446L95.445 253.834C100.571 243.562 104.946 232.931 108.535 222.026C109.642 218.64 109.965 215.048 109.48 211.519C108.995 207.99 107.714 204.618 105.735 201.656C96.803 188.615 82.495 196.378 92.12 173.6H106.54Z" fill="#008FFF"/>
<path opacity="0.6" d="M106.54 173.6C106.54 173.6 124.166 195.811 120.855 217.056C118.188 234.213 102.718 257.446 102.718 257.446L95.445 253.834C100.571 243.562 104.946 232.931 108.535 222.026C109.642 218.64 109.965 215.048 109.48 211.519C108.995 207.99 107.714 204.618 105.735 201.656C96.803 188.615 82.495 196.378 92.12 173.6H106.54Z" fill="black"/>
<path opacity="0.4" d="M115.185 187.866L112.623 185.318C112.623 185.521 117.586 216.16 118.979 224.77C119.801 222.255 120.43 219.681 120.862 217.07C122.5 206.647 119.077 196 115.185 187.866Z" fill="black"/>
<path d="M114.408 173.6C114.408 173.6 135.632 201.516 136.234 218.253C136.731 232.253 113.134 259.378 113.134 259.378L106.274 254.94C106.274 254.94 120.085 235.676 123.564 219.94C122.22 204.344 93.7999 173.6 93.7999 173.6H114.408Z" fill="#008FFF"/>
<path opacity="0.6" d="M114.408 173.6C114.408 173.6 135.632 201.516 136.234 218.253C136.731 232.253 113.134 259.378 113.134 259.378L106.274 254.94C106.274 254.94 120.085 235.676 123.564 219.94C122.22 204.344 93.7999 173.6 93.7999 173.6H114.408Z" fill="black"/>
<path d="M88.1511 140.287C85.8831 140.826 83.7061 149.072 83.7061 149.072L92.5751 154.994C92.5751 154.994 95.5291 148.47 94.4931 145.614C93.4221 142.639 91.0001 139.608 88.1511 140.287Z" fill="#008FFF"/>
<path opacity="0.2" d="M89.8869 145.6L89.2709 152.789L92.5679 155.001C93.4782 152.951 94.1522 150.805 94.5769 148.603L89.8869 145.6Z" fill="black"/>
<path d="M117.033 140.448C117.033 140.448 119.651 141.365 114.408 173.593H92.1059C92.4839 164.493 92.4909 158.893 88.1509 140.287C91.2736 139.643 94.4389 139.227 97.6219 139.041C100.994 138.799 104.379 138.799 107.751 139.041C112.105 139.44 117.033 140.448 117.033 140.448Z" fill="#008FFF"/>
<path d="M119.301 145.6C119.805 147 120.337 148.505 120.897 149.954C121.457 151.403 121.989 152.894 122.556 154.364L124.271 158.76L124.705 159.859L124.929 160.405L125.034 160.678C125.034 160.727 125.034 160.727 125.034 160.72C124.906 160.54 124.738 160.391 124.544 160.286C124.267 160.123 123.955 160.029 123.634 160.013C123.367 160.005 123.102 160.055 122.857 160.16C122.535 160.307 122.535 160.37 122.542 160.363C122.6 160.316 122.652 160.262 122.696 160.202C123.083 159.693 123.419 159.147 123.697 158.571C124.026 157.927 124.341 157.241 124.656 156.548C125.272 155.148 125.839 153.699 126.406 152.236C126.973 150.773 127.512 149.296 128.037 147.805L129.633 143.339L132.328 144.039C131.796 147.231 131.11 150.339 130.284 153.503C129.885 155.078 129.416 156.639 128.884 158.214C128.618 159.005 128.324 159.789 127.988 160.594C127.638 161.468 127.207 162.307 126.7 163.1C126.514 163.367 126.308 163.62 126.084 163.856C125.727 164.242 125.293 164.55 124.81 164.759C124.382 164.943 123.918 165.029 123.452 165.011C122.93 164.992 122.422 164.84 121.975 164.57C121.448 164.241 121.01 163.786 120.701 163.247C120.596 163.065 120.505 162.883 120.442 162.75L120.309 162.484L120.043 161.938L119.511 160.853C118.811 159.397 118.111 157.927 117.502 156.45C116.893 154.973 116.249 153.475 115.647 151.97C115.045 150.465 114.506 148.96 113.995 147.336L119.301 145.6Z" fill="#E58A7B"/>
<path d="M117.033 140.448C119.714 141.085 122.731 149.009 122.731 149.009L114.758 155.792C114.758 155.792 109.599 147.154 110.642 144.305C111.727 141.337 113.533 139.615 117.033 140.448Z" fill="#008FFF"/>
<path d="M130.9 140.833L133.7 138.495L135.646 141.526L134.211 144.053C134.211 144.053 131.929 146.153 129.913 145.082C129.593 144.363 129.516 143.559 129.694 142.792C129.872 142.025 130.296 141.338 130.9 140.833Z" fill="#E58A7B"/>
<path d="M138.754 138.502L138.544 139.265L134.113 140.007L133.679 138.495L138.754 138.502Z" fill="#E58A7B"/>
<path d="M113.68 259.735L105.686 254.569L107.121 252.077L116.102 257.6L113.68 259.735Z" fill="#008FFF"/>
<path d="M100.1 263.851C99.3985 263.765 98.7245 263.526 98.1258 263.151C98.1011 263.142 98.0797 263.126 98.0646 263.105C98.0494 263.084 98.0413 263.058 98.0413 263.032C98.0413 263.006 98.0494 262.98 98.0646 262.959C98.0797 262.938 98.1011 262.922 98.1258 262.913C98.3428 262.843 100.226 262.262 100.772 262.71C100.833 262.761 100.88 262.827 100.907 262.903C100.934 262.978 100.941 263.059 100.926 263.137C100.916 263.263 100.874 263.384 100.805 263.49C100.735 263.595 100.639 263.681 100.527 263.739C100.396 263.811 100.249 263.849 100.1 263.851ZM98.5248 263.081C99.3999 263.529 100.1 263.69 100.436 263.522C100.509 263.481 100.571 263.423 100.615 263.352C100.659 263.281 100.684 263.2 100.688 263.116C100.688 263.004 100.688 262.955 100.625 262.927C100.331 262.689 99.2808 262.871 98.5108 263.081H98.5248Z" fill="#263238"/>
<path d="M98.1749 263.2C98.138 263.199 98.1028 263.184 98.0769 263.158C98.0665 263.139 98.061 263.117 98.061 263.095C98.061 263.073 98.0665 263.051 98.0769 263.032C98.0769 262.969 98.5319 261.45 99.2459 261.107C99.3371 261.065 99.4362 261.044 99.5364 261.044C99.6367 261.044 99.7357 261.065 99.8269 261.107C99.9252 261.138 100.01 261.201 100.069 261.286C100.127 261.371 100.155 261.473 100.149 261.576C100.1 262.206 98.8189 263.074 98.2309 263.221L98.1749 263.2ZM99.5329 261.289C99.4648 261.291 99.398 261.308 99.3369 261.338C98.9029 261.548 98.5459 262.367 98.3709 262.864C98.9869 262.605 99.8339 261.919 99.8619 261.534C99.8619 261.471 99.8619 261.394 99.7009 261.324C99.6485 261.296 99.5917 261.277 99.5329 261.268V261.289Z" fill="#263238"/>
<path d="M110.089 266.875C109.298 266.875 108.199 265.86 107.597 265.237C107.582 265.216 107.573 265.19 107.573 265.164C107.573 265.137 107.582 265.111 107.597 265.09C107.611 265.067 107.63 265.049 107.654 265.037C107.677 265.024 107.703 265.019 107.73 265.02C108.01 265.02 110.439 265.384 110.782 266.07C110.818 266.131 110.837 266.202 110.837 266.273C110.837 266.344 110.818 266.415 110.782 266.476C110.73 266.583 110.653 266.675 110.556 266.743C110.459 266.812 110.347 266.855 110.229 266.868L110.089 266.875ZM108.059 265.335C108.941 266.189 109.718 266.665 110.159 266.609C110.236 266.599 110.31 266.57 110.373 266.525C110.437 266.48 110.488 266.42 110.523 266.35C110.539 266.326 110.547 266.298 110.547 266.27C110.547 266.241 110.539 266.213 110.523 266.189C110.341 265.811 109.046 265.489 108.059 265.335Z" fill="#263238"/>
<path d="M108.136 265.3C107.979 265.304 107.822 265.293 107.667 265.265C107.645 265.262 107.625 265.253 107.608 265.239C107.591 265.226 107.577 265.208 107.569 265.188C107.558 265.167 107.553 265.145 107.553 265.122C107.553 265.098 107.558 265.076 107.569 265.055C107.611 265.006 108.556 263.865 109.452 263.788C109.706 263.768 109.957 263.849 110.152 264.012C110.425 264.25 110.411 264.46 110.341 264.593C110.166 265.069 108.955 265.3 108.136 265.3ZM107.954 265.041C108.738 265.083 109.991 264.824 110.152 264.481C110.152 264.481 110.208 264.369 110.026 264.215C109.953 264.152 109.869 264.105 109.777 264.076C109.686 264.047 109.589 264.037 109.494 264.047C108.89 264.215 108.353 264.565 107.954 265.048V265.041Z" fill="#263238"/>
<path d="M98.364 262.444L92.428 260.764C92.3257 260.733 92.2155 260.741 92.1186 260.786C92.0218 260.831 91.945 260.911 91.903 261.009L89.901 265.51C89.854 265.625 89.8319 265.749 89.8362 265.874C89.8405 265.998 89.8711 266.12 89.926 266.232C89.9809 266.344 90.0588 266.443 90.1546 266.522C90.2505 266.601 90.362 266.66 90.482 266.693C92.582 267.239 93.59 267.393 96.201 268.142C97.811 268.59 100.107 269.423 102.326 270.053C104.545 270.683 105.287 268.52 104.426 268.058C100.534 266 100.226 264.558 99.162 263.018C98.9714 262.739 98.689 262.536 98.364 262.444Z" fill="#008FFF"/>
<path d="M107.758 264.418L102.69 260.918C102.604 260.855 102.498 260.827 102.392 260.837C102.287 260.847 102.188 260.896 102.116 260.974L98.756 264.586C98.6741 264.679 98.613 264.789 98.5768 264.908C98.5406 265.027 98.5301 265.152 98.546 265.275C98.5619 265.398 98.6038 265.516 98.669 265.622C98.7342 265.728 98.8211 265.818 98.924 265.888C100.709 267.085 101.633 267.568 103.866 269.115C105.266 270.067 107.975 272.181 109.865 273.497C111.755 274.813 113.162 273.007 112.49 272.293C109.48 269.08 108.822 267.064 108.325 265.237C108.239 264.906 108.038 264.615 107.758 264.418Z" fill="#008FFF"/>
<path d="M103.649 257.908L94.5139 253.365L95.4589 250.887L105.217 255.675L103.649 257.908Z" fill="#008FFF"/>
<path d="M91.77 172.284L91 174.3C90.923 174.454 91.105 174.615 91.364 174.615H114.52C114.723 174.615 114.891 174.517 114.905 174.391L115.101 172.389C115.101 172.256 114.94 172.137 114.723 172.137H92.134C92.066 172.131 91.9974 172.141 91.9341 172.166C91.8708 172.192 91.8145 172.232 91.77 172.284Z" fill="#008FFF"/>
<path opacity="0.4" d="M91.77 172.284L91 174.3C90.923 174.454 91.105 174.615 91.364 174.615H114.52C114.723 174.615 114.891 174.517 114.905 174.391L115.101 172.389C115.101 172.256 114.94 172.137 114.723 172.137H92.134C92.066 172.131 91.9974 172.141 91.9341 172.166C91.8708 172.192 91.8145 172.232 91.77 172.284Z" fill="white"/>
<path d="M95.417 174.811H94.808C94.689 174.811 94.598 174.748 94.605 174.671L94.892 172.074C94.892 172.004 95.004 171.941 95.123 171.941H95.732C95.851 171.941 95.942 172.004 95.935 172.074L95.648 174.671C95.641 174.748 95.536 174.811 95.417 174.811Z" fill="#008FFF"/>
<path d="M109.697 174.811H109.095C108.976 174.811 108.885 174.748 108.892 174.671L109.172 172.074C109.172 172.004 109.291 171.941 109.41 171.941H110.012C110.131 171.941 110.229 172.004 110.215 172.074L109.935 174.671C109.9 174.748 109.823 174.811 109.697 174.811Z" fill="#008FFF"/>
<g style="mix-blend-mode:multiply">
<path d="M94.885 293.356C105.242 293.356 113.638 292.748 113.638 291.998C113.638 291.248 105.242 290.64 94.885 290.64C84.528 290.64 76.132 291.248 76.132 291.998C76.132 292.748 84.528 293.356 94.885 293.356Z" fill="#F5F5F5"/>
</g>
<path d="M106.309 290.08C102.991 289.114 99.3088 287.875 97.0829 286.58C97.0199 286.538 96.9499 286.517 96.8869 286.482V271.46H103.6C104.109 271.43 104.588 271.206 104.938 270.835C105.289 270.463 105.484 269.972 105.484 269.462C105.484 268.951 105.289 268.46 104.938 268.088C104.588 267.717 104.109 267.493 103.6 267.463H96.9219V198.989H92.8898V267.463H86.2188C85.9465 267.447 85.6736 267.487 85.4172 267.58C85.1607 267.673 84.9259 267.817 84.7274 268.005C84.5288 268.192 84.3706 268.418 84.2624 268.668C84.1543 268.919 84.0985 269.189 84.0985 269.462C84.0985 269.734 84.1543 270.004 84.2624 270.255C84.3706 270.505 84.5288 270.731 84.7274 270.918C84.9259 271.106 85.1607 271.25 85.4172 271.343C85.6736 271.436 85.9465 271.476 86.2188 271.46H92.8898V286.461C92.8268 286.461 92.7638 286.517 92.7008 286.559C90.4398 287.875 86.7858 289.114 83.4678 290.059C83.2437 290.127 83.0513 290.273 82.9253 290.47C82.7994 290.667 82.7483 290.903 82.7813 291.135C82.8143 291.367 82.9292 291.579 83.1052 291.734C83.2812 291.888 83.5067 291.974 83.7408 291.977H106.036C106.26 291.962 106.471 291.87 106.636 291.718C106.8 291.565 106.907 291.361 106.939 291.139C106.971 290.917 106.926 290.691 106.811 290.498C106.697 290.305 106.519 290.158 106.309 290.08Z" fill="#E0E0E0"/>
<path d="M107.338 192.017H82.4459C80.4434 192.017 78.8199 193.64 78.8199 195.643V203.042C78.8199 205.045 80.4434 206.668 82.4459 206.668H107.338C109.341 206.668 110.964 205.045 110.964 203.042V195.643C110.964 193.64 109.341 192.017 107.338 192.017Z" fill="#008FFF"/>
<path d="M82.215 206.675V207.949C82.215 208.999 83.356 209.853 84.756 209.853H105.056C106.456 209.853 107.597 208.999 107.597 207.949V206.675H82.215Z" fill="#008FFF"/>
<path opacity="0.3" d="M82.215 206.675V207.949C82.215 208.999 83.356 209.853 84.756 209.853H105.056C106.456 209.853 107.597 208.999 107.597 207.949V206.675H82.215Z" fill="white"/>
</svg>
