<svg width="80" height="82" viewBox="0 0 80 82" fill="none" xmlns="http://www.w3.org/2000/svg">
<path d="M40 10.3154C45.8 10.3154 50.5 15.0803 50.5 20.9604C50.5 26.8405 45.8 31.6054 40 31.6054C34.2 31.6054 29.5 26.8405 29.5 20.9604C29.5 15.0803 34.2 10.3154 40 10.3154ZM40 55.9367C54.85 55.9367 70.5 63.3376 70.5 66.5817V72.1577H9.5V66.5817C9.5 63.3376 25.15 55.9367 40 55.9367ZM40 0.684204C28.95 0.684204 20 9.75779 20 20.9604C20 32.1629 28.95 41.2365 40 41.2365C51.05 41.2365 60 32.1629 60 20.9604C60 9.75779 51.05 0.684204 40 0.684204ZM40 46.3056C26.65 46.3056 0 53.0981 0 66.5817V81.7889H80V66.5817C80 53.0981 53.35 46.3056 40 46.3056Z" fill="black"/>
</svg>
